<ttFont>
    <TTGlyph name="A" xMin="-5" yMin="-6" xMax="681" yMax="658">
      <contour>
        <pt x="395" y="178" on="1"/>
        <pt x="341" y="180" on="0"/>
        <pt x="303" y="180" on="0"/>
        <pt x="238" y="175" on="1"/>
        <pt x="225" y="118" on="0"/>
        <pt x="225" y="96" on="0"/>
        <pt x="236" y="89" on="0"/>
        <pt x="256" y="89" on="1"/>
        <pt x="282" y="89" on="1"/>
        <pt x="290" y="79" on="1"/>
        <pt x="282" y="-4" on="1"/>
        <pt x="189" y="-1" on="0"/>
        <pt x="128" y="-1" on="1"/>
        <pt x="-5" y="-2" on="1"/>
        <pt x="2" y="85" on="1"/>
        <pt x="38" y="94" on="0"/>
        <pt x="53" y="140" on="1"/>
        <pt x="212" y="642" on="1"/>
        <pt x="475" y="658" on="1"/>
        <pt x="490" y="646" on="1"/>
        <pt x="586" y="261" on="0"/>
        <pt x="615" y="153" on="1"/>
        <pt x="624" y="119" on="0"/>
        <pt x="651" y="88" on="0"/>
        <pt x="674" y="86" on="1"/>
        <pt x="681" y="76" on="1"/>
        <pt x="673" y="-3" on="1"/>
        <pt x="587" y="-1" on="0"/>
        <pt x="532" y="-1" on="1"/>
        <pt x="341" y="-6" on="1"/>
        <pt x="333" y="3" on="1"/>
        <pt x="339" y="87" on="1"/>
        <pt x="385" y="92" on="0"/>
        <pt x="403" y="102" on="0"/>
        <pt x="403" y="126" on="0"/>
      </contour>
      <contour>
        <pt x="321" y="301" on="1"/>
        <pt x="337" y="301" on="0"/>
        <pt x="373" y="303" on="1"/>
        <pt x="339" y="478" on="1"/>
        <pt x="317" y="478" on="1"/>
        <pt x="270" y="301" on="1"/>
      </contour>
    </TTGlyph>
    <TTGlyph name="AE" xMin="2" yMin="-7" xMax="917" yMax="659">
      <contour>
        <pt x="381" y="91" on="0"/>
        <pt x="407" y="108" on="0"/>
        <pt x="407" y="128" on="1"/>
        <pt x="407" y="151" on="0"/>
        <pt x="401" y="219" on="1"/>
        <pt x="326" y="206" on="1"/>
        <pt x="249" y="183" on="1"/>
        <pt x="227" y="110" on="0"/>
        <pt x="227" y="93" on="0"/>
        <pt x="244" y="89" on="0"/>
        <pt x="282" y="89" on="1"/>
        <pt x="289" y="79" on="1"/>
        <pt x="282" y="-4" on="1"/>
        <pt x="276" y="-1" on="0"/>
        <pt x="85" y="-1" on="1"/>
        <pt x="5" y="-2" on="1"/>
        <pt x="2" y="85" on="1"/>
        <pt x="38" y="94" on="0"/>
        <pt x="59" y="140" on="1"/>
        <pt x="225" y="531" on="1"/>
        <pt x="221" y="559" on="0"/>
        <pt x="199" y="559" on="1"/>
        <pt x="173" y="557" on="1"/>
        <pt x="161" y="571" on="1"/>
        <pt x="170" y="650" on="1"/>
        <pt x="333" y="647" on="0"/>
        <pt x="770" y="649" on="0"/>
        <pt x="847" y="659" on="1"/>
        <pt x="860" y="643" on="1"/>
        <pt x="842" y="538" on="0"/>
        <pt x="837" y="444" on="1"/>
        <pt x="699" y="435" on="1"/>
        <pt x="701" y="459" on="0"/>
        <pt x="701" y="472" on="1"/>
        <pt x="701" y="506" on="0"/>
        <pt x="664" y="527" on="0"/>
        <pt x="583" y="527" on="0"/>
        <pt x="569" y="517" on="0"/>
        <pt x="569" y="503" on="1"/>
        <pt x="588" y="372" on="1"/>
        <pt x="661" y="385" on="1"/>
        <pt x="762" y="411" on="1"/>
        <pt x="779" y="394" on="1"/>
        <pt x="767" y="278" on="1"/>
        <pt x="671" y="266" on="1"/>
        <pt x="606" y="254" on="1"/>
        <pt x="617" y="181" on="1"/>
        <pt x="627" y="114" on="0"/>
        <pt x="672" y="114" on="1"/>
        <pt x="730" y="114" on="0"/>
        <pt x="768" y="153" on="0"/>
        <pt x="777" y="221" on="1"/>
        <pt x="905" y="230" on="1"/>
        <pt x="917" y="215" on="1"/>
        <pt x="899" y="118" on="0"/>
        <pt x="889" y="9" on="1"/>
        <pt x="874" y="-7" on="1"/>
        <pt x="708" y="0" on="0"/>
        <pt x="553" y="0" on="1"/>
        <pt x="511" y="0" on="1"/>
        <pt x="340" y="-6" on="1"/>
        <pt x="333" y="3" on="1"/>
        <pt x="339" y="87" on="1"/>
      </contour>
      <contour>
        <pt x="298" y="324" on="1"/>
        <pt x="341" y="328" on="1"/>
        <pt x="391" y="337" on="1"/>
        <pt x="377" y="478" on="1"/>
        <pt x="355" y="478" on="1"/>
      </contour>
    </TTGlyph>
    <TTGlyph name="AEacute" xMin="2" yMin="-7" xMax="917" yMax="935">
      <contour>
        <pt x="381" y="91" on="0"/>
        <pt x="407" y="108" on="0"/>
        <pt x="407" y="128" on="1"/>
        <pt x="407" y="151" on="0"/>
        <pt x="401" y="219" on="1"/>
        <pt x="326" y="206" on="1"/>
        <pt x="249" y="183" on="1"/>
        <pt x="227" y="110" on="0"/>
        <pt x="227" y="93" on="0"/>
        <pt x="244" y="89" on="0"/>
        <pt x="282" y="89" on="1"/>
        <pt x="289" y="79" on="1"/>
        <pt x="282" y="-4" on="1"/>
        <pt x="276" y="-1" on="0"/>
        <pt x="85" y="-1" on="1"/>
        <pt x="5" y="-2" on="1"/>
        <pt x="2" y="85" on="1"/>
        <pt x="38" y="94" on="0"/>
        <pt x="59" y="140" on="1"/>
        <pt x="225" y="531" on="1"/>
        <pt x="221" y="559" on="0"/>
        <pt x="199" y="559" on="1"/>
        <pt x="173" y="557" on="1"/>
        <pt x="161" y="571" on="1"/>
        <pt x="170" y="650" on="1"/>
        <pt x="333" y="647" on="0"/>
        <pt x="770" y="649" on="0"/>
        <pt x="847" y="659" on="1"/>
        <pt x="860" y="643" on="1"/>
        <pt x="842" y="538" on="0"/>
        <pt x="837" y="444" on="1"/>
        <pt x="699" y="435" on="1"/>
        <pt x="701" y="459" on="0"/>
        <pt x="701" y="472" on="1"/>
        <pt x="701" y="506" on="0"/>
        <pt x="664" y="527" on="0"/>
        <pt x="583" y="527" on="0"/>
        <pt x="569" y="517" on="0"/>
        <pt x="569" y="503" on="1"/>
        <pt x="588" y="372" on="1"/>
        <pt x="661" y="385" on="1"/>
        <pt x="762" y="411" on="1"/>
        <pt x="779" y="394" on="1"/>
        <pt x="767" y="278" on="1"/>
        <pt x="671" y="266" on="1"/>
        <pt x="606" y="254" on="1"/>
        <pt x="617" y="181" on="1"/>
        <pt x="627" y="114" on="0"/>
        <pt x="672" y="114" on="1"/>
        <pt x="730" y="114" on="0"/>
        <pt x="768" y="153" on="0"/>
        <pt x="777" y="221" on="1"/>
        <pt x="905" y="230" on="1"/>
        <pt x="917" y="215" on="1"/>
        <pt x="899" y="118" on="0"/>
        <pt x="889" y="9" on="1"/>
        <pt x="874" y="-7" on="1"/>
        <pt x="708" y="0" on="0"/>
        <pt x="553" y="0" on="1"/>
        <pt x="511" y="0" on="1"/>
        <pt x="340" y="-6" on="1"/>
        <pt x="333" y="3" on="1"/>
        <pt x="339" y="87" on="1"/>
      </contour>
      <contour>
        <pt x="298" y="324" on="1"/>
        <pt x="341" y="328" on="1"/>
        <pt x="391" y="337" on="1"/>
        <pt x="377" y="478" on="1"/>
        <pt x="355" y="478" on="1"/>
      </contour>
      <contour>
        <pt x="678" y="834" on="1"/>
        <pt x="676" y="817" on="1"/>
        <pt x="568" y="761" on="0"/>
        <pt x="465" y="700" on="1"/>
        <pt x="443" y="707" on="1"/>
        <pt x="402" y="768" on="1"/>
        <pt x="589" y="935" on="1"/>
        <pt x="606" y="935" on="1"/>
      </contour>
    </TTGlyph>
    <TTGlyph name="Aacute" xMin="-5" yMin="-6" xMax="681" yMax="875">
      <contour>
        <pt x="395" y="178" on="1"/>
        <pt x="341" y="180" on="0"/>
        <pt x="303" y="180" on="0"/>
        <pt x="238" y="175" on="1"/>
        <pt x="225" y="118" on="0"/>
        <pt x="225" y="96" on="0"/>
        <pt x="236" y="89" on="0"/>
        <pt x="256" y="89" on="1"/>
        <pt x="282" y="89" on="1"/>
        <pt x="290" y="79" on="1"/>
        <pt x="282" y="-4" on="1"/>
        <pt x="189" y="-1" on="0"/>
        <pt x="128" y="-1" on="1"/>
        <pt x="-5" y="-2" on="1"/>
        <pt x="2" y="85" on="1"/>
        <pt x="38" y="94" on="0"/>
        <pt x="53" y="140" on="1"/>
        <pt x="212" y="642" on="1"/>
        <pt x="475" y="658" on="1"/>
        <pt x="490" y="646" on="1"/>
        <pt x="586" y="261" on="0"/>
        <pt x="615" y="153" on="1"/>
        <pt x="624" y="119" on="0"/>
        <pt x="651" y="88" on="0"/>
        <pt x="674" y="86" on="1"/>
        <pt x="681" y="76" on="1"/>
        <pt x="673" y="-3" on="1"/>
        <pt x="587" y="-1" on="0"/>
        <pt x="532" y="-1" on="1"/>
        <pt x="341" y="-6" on="1"/>
        <pt x="333" y="3" on="1"/>
        <pt x="339" y="87" on="1"/>
        <pt x="385" y="92" on="0"/>
        <pt x="403" y="102" on="0"/>
        <pt x="403" y="126" on="0"/>
      </contour>
      <contour>
        <pt x="321" y="301" on="1"/>
        <pt x="337" y="301" on="0"/>
        <pt x="373" y="303" on="1"/>
        <pt x="339" y="478" on="1"/>
        <pt x="317" y="478" on="1"/>
        <pt x="270" y="301" on="1"/>
      </contour>
      <contour>
        <pt x="530" y="762" on="1"/>
        <pt x="523" y="746" on="1"/>
        <pt x="393" y="722" on="0"/>
        <pt x="269" y="691" on="1"/>
        <pt x="250" y="704" on="1"/>
        <pt x="229" y="775" on="1"/>
        <pt x="332" y="813" on="0"/>
        <pt x="478" y="875" on="1"/>
        <pt x="494" y="870" on="1"/>
      </contour>
    </TTGlyph>
    <TTGlyph name="Abreve" xMin="-5" yMin="-6" xMax="681" yMax="880">
      <contour>
        <pt x="395" y="178" on="1"/>
        <pt x="341" y="180" on="0"/>
        <pt x="303" y="180" on="0"/>
        <pt x="238" y="175" on="1"/>
        <pt x="225" y="118" on="0"/>
        <pt x="225" y="96" on="0"/>
        <pt x="236" y="89" on="0"/>
        <pt x="256" y="89" on="1"/>
        <pt x="282" y="89" on="1"/>
        <pt x="290" y="79" on="1"/>
        <pt x="282" y="-4" on="1"/>
        <pt x="189" y="-1" on="0"/>
        <pt x="128" y="-1" on="1"/>
        <pt x="-5" y="-2" on="1"/>
        <pt x="2" y="85" on="1"/>
        <pt x="38" y="94" on="0"/>
        <pt x="53" y="140" on="1"/>
        <pt x="212" y="642" on="1"/>
        <pt x="475" y="658" on="1"/>
        <pt x="490" y="646" on="1"/>
        <pt x="586" y="261" on="0"/>
        <pt x="615" y="153" on="1"/>
        <pt x="624" y="119" on="0"/>
        <pt x="651" y="88" on="0"/>
        <pt x="674" y="86" on="1"/>
        <pt x="681" y="76" on="1"/>
        <pt x="673" y="-3" on="1"/>
        <pt x="587" y="-1" on="0"/>
        <pt x="532" y="-1" on="1"/>
        <pt x="341" y="-6" on="1"/>
        <pt x="333" y="3" on="1"/>
        <pt x="339" y="87" on="1"/>
        <pt x="385" y="92" on="0"/>
        <pt x="403" y="102" on="0"/>
        <pt x="403" y="126" on="0"/>
      </contour>
      <contour>
        <pt x="321" y="301" on="1"/>
        <pt x="337" y="301" on="0"/>
        <pt x="373" y="303" on="1"/>
        <pt x="339" y="478" on="1"/>
        <pt x="317" y="478" on="1"/>
        <pt x="270" y="301" on="1"/>
      </contour>
      <contour>
        <pt x="260" y="810" on="0"/>
        <pt x="422" y="810" on="0"/>
        <pt x="452" y="880" on="1"/>
        <pt x="479" y="873" on="1"/>
        <pt x="519" y="811" on="1"/>
        <pt x="501" y="753" on="0"/>
        <pt x="412" y="675" on="0"/>
        <pt x="270" y="675" on="0"/>
        <pt x="181" y="753" on="0"/>
        <pt x="163" y="811" on="1"/>
        <pt x="203" y="873" on="1"/>
        <pt x="230" y="880" on="1"/>
      </contour>
    </TTGlyph>
    <TTGlyph name="Acircumflex" xMin="-5" yMin="-6" xMax="681" yMax="908">
      <contour>
        <pt x="395" y="178" on="1"/>
        <pt x="341" y="180" on="0"/>
        <pt x="303" y="180" on="0"/>
        <pt x="238" y="175" on="1"/>
        <pt x="225" y="118" on="0"/>
        <pt x="225" y="96" on="0"/>
        <pt x="236" y="89" on="0"/>
        <pt x="256" y="89" on="1"/>
        <pt x="282" y="89" on="1"/>
        <pt x="290" y="79" on="1"/>
        <pt x="282" y="-4" on="1"/>
        <pt x="189" y="-1" on="0"/>
        <pt x="128" y="-1" on="1"/>
        <pt x="-5" y="-2" on="1"/>
        <pt x="2" y="85" on="1"/>
        <pt x="38" y="94" on="0"/>
        <pt x="53" y="140" on="1"/>
        <pt x="212" y="642" on="1"/>
        <pt x="475" y="658" on="1"/>
        <pt x="490" y="646" on="1"/>
        <pt x="586" y="261" on="0"/>
        <pt x="615" y="153" on="1"/>
        <pt x="624" y="119" on="0"/>
        <pt x="651" y="88" on="0"/>
        <pt x="674" y="86" on="1"/>
        <pt x="681" y="76" on="1"/>
        <pt x="673" y="-3" on="1"/>
        <pt x="587" y="-1" on="0"/>
        <pt x="532" y="-1" on="1"/>
        <pt x="341" y="-6" on="1"/>
        <pt x="333" y="3" on="1"/>
        <pt x="339" y="87" on="1"/>
        <pt x="385" y="92" on="0"/>
        <pt x="403" y="102" on="0"/>
        <pt x="403" y="126" on="0"/>
      </contour>
      <contour>
        <pt x="321" y="301" on="1"/>
        <pt x="337" y="301" on="0"/>
        <pt x="373" y="303" on="1"/>
        <pt x="339" y="478" on="1"/>
        <pt x="317" y="478" on="1"/>
        <pt x="270" y="301" on="1"/>
      </contour>
      <contour>
        <pt x="357" y="908" on="1"/>
        <pt x="357" y="911" on="0"/>
        <pt x="382" y="891" on="1"/>
        <pt x="481" y="810" on="0"/>
        <pt x="533" y="770" on="1"/>
        <pt x="498" y="708" on="1"/>
        <pt x="475" y="701" on="1"/>
        <pt x="428" y="721" on="0"/>
        <pt x="343" y="752" on="1"/>
        <pt x="291" y="733" on="0"/>
        <pt x="212" y="701" on="1"/>
        <pt x="189" y="708" on="1"/>
        <pt x="153" y="770" on="1"/>
        <pt x="236" y="830" on="0"/>
        <pt x="330" y="908" on="1"/>
      </contour>
    </TTGlyph>
    <TTGlyph name="Adieresis" xMin="-5" yMin="-6" xMax="681" yMax="852">
      <contour>
        <pt x="395" y="178" on="1"/>
        <pt x="341" y="180" on="0"/>
        <pt x="303" y="180" on="0"/>
        <pt x="238" y="175" on="1"/>
        <pt x="225" y="118" on="0"/>
        <pt x="225" y="96" on="0"/>
        <pt x="236" y="89" on="0"/>
        <pt x="256" y="89" on="1"/>
        <pt x="282" y="89" on="1"/>
        <pt x="290" y="79" on="1"/>
        <pt x="282" y="-4" on="1"/>
        <pt x="189" y="-1" on="0"/>
        <pt x="128" y="-1" on="1"/>
        <pt x="-5" y="-2" on="1"/>
        <pt x="2" y="85" on="1"/>
        <pt x="38" y="94" on="0"/>
        <pt x="53" y="140" on="1"/>
        <pt x="212" y="642" on="1"/>
        <pt x="475" y="658" on="1"/>
        <pt x="490" y="646" on="1"/>
        <pt x="586" y="261" on="0"/>
        <pt x="615" y="153" on="1"/>
        <pt x="624" y="119" on="0"/>
        <pt x="651" y="88" on="0"/>
        <pt x="674" y="86" on="1"/>
        <pt x="681" y="76" on="1"/>
        <pt x="673" y="-3" on="1"/>
        <pt x="587" y="-1" on="0"/>
        <pt x="532" y="-1" on="1"/>
        <pt x="341" y="-6" on="1"/>
        <pt x="333" y="3" on="1"/>
        <pt x="339" y="87" on="1"/>
        <pt x="385" y="92" on="0"/>
        <pt x="403" y="102" on="0"/>
        <pt x="403" y="126" on="0"/>
      </contour>
      <contour>
        <pt x="321" y="301" on="1"/>
        <pt x="337" y="301" on="0"/>
        <pt x="373" y="303" on="1"/>
        <pt x="339" y="478" on="1"/>
        <pt x="317" y="478" on="1"/>
        <pt x="270" y="301" on="1"/>
      </contour>
      <contour>
        <pt x="435" y="685" on="1"/>
        <pt x="355" y="685" on="0"/>
        <pt x="355" y="765" on="1"/>
        <pt x="355" y="805" on="0"/>
        <pt x="401" y="852" on="0"/>
        <pt x="479" y="852" on="0"/>
        <pt x="520" y="810" on="0"/>
        <pt x="520" y="732" on="0"/>
        <pt x="474" y="685" on="0"/>
      </contour>
      <contour>
        <pt x="242" y="685" on="1"/>
        <pt x="163" y="685" on="0"/>
        <pt x="163" y="765" on="1"/>
        <pt x="163" y="805" on="0"/>
        <pt x="209" y="852" on="0"/>
        <pt x="287" y="852" on="0"/>
        <pt x="328" y="810" on="0"/>
        <pt x="328" y="732" on="0"/>
        <pt x="282" y="685" on="0"/>
      </contour>
    </TTGlyph>
    <TTGlyph name="Agrave" xMin="-5" yMin="-6" xMax="681" yMax="875">
      <contour>
        <pt x="395" y="178" on="1"/>
        <pt x="341" y="180" on="0"/>
        <pt x="303" y="180" on="0"/>
        <pt x="238" y="175" on="1"/>
        <pt x="225" y="118" on="0"/>
        <pt x="225" y="96" on="0"/>
        <pt x="236" y="89" on="0"/>
        <pt x="256" y="89" on="1"/>
        <pt x="282" y="89" on="1"/>
        <pt x="290" y="79" on="1"/>
        <pt x="282" y="-4" on="1"/>
        <pt x="189" y="-1" on="0"/>
        <pt x="128" y="-1" on="1"/>
        <pt x="-5" y="-2" on="1"/>
        <pt x="2" y="85" on="1"/>
        <pt x="38" y="94" on="0"/>
        <pt x="53" y="140" on="1"/>
        <pt x="212" y="642" on="1"/>
        <pt x="475" y="658" on="1"/>
        <pt x="490" y="646" on="1"/>
        <pt x="586" y="261" on="0"/>
        <pt x="615" y="153" on="1"/>
        <pt x="624" y="119" on="0"/>
        <pt x="651" y="88" on="0"/>
        <pt x="674" y="86" on="1"/>
        <pt x="681" y="76" on="1"/>
        <pt x="673" y="-3" on="1"/>
        <pt x="587" y="-1" on="0"/>
        <pt x="532" y="-1" on="1"/>
        <pt x="341" y="-6" on="1"/>
        <pt x="333" y="3" on="1"/>
        <pt x="339" y="87" on="1"/>
        <pt x="385" y="92" on="0"/>
        <pt x="403" y="102" on="0"/>
        <pt x="403" y="126" on="0"/>
      </contour>
      <contour>
        <pt x="321" y="301" on="1"/>
        <pt x="337" y="301" on="0"/>
        <pt x="373" y="303" on="1"/>
        <pt x="339" y="478" on="1"/>
        <pt x="317" y="478" on="1"/>
        <pt x="270" y="301" on="1"/>
      </contour>
      <contour>
        <pt x="195" y="746" on="1"/>
        <pt x="188" y="762" on="1"/>
        <pt x="224" y="870" on="1"/>
        <pt x="240" y="875" on="1"/>
        <pt x="366" y="821" on="0"/>
        <pt x="489" y="775" on="1"/>
        <pt x="468" y="704" on="1"/>
        <pt x="449" y="691" on="1"/>
        <pt x="356" y="715" on="0"/>
      </contour>
    </TTGlyph>
    <TTGlyph name="Amacron" xMin="-5" yMin="-6" xMax="681" yMax="823">
      <contour>
        <pt x="395" y="178" on="1"/>
        <pt x="341" y="180" on="0"/>
        <pt x="303" y="180" on="0"/>
        <pt x="238" y="175" on="1"/>
        <pt x="225" y="118" on="0"/>
        <pt x="225" y="96" on="0"/>
        <pt x="236" y="89" on="0"/>
        <pt x="256" y="89" on="1"/>
        <pt x="282" y="89" on="1"/>
        <pt x="290" y="79" on="1"/>
        <pt x="282" y="-4" on="1"/>
        <pt x="189" y="-1" on="0"/>
        <pt x="128" y="-1" on="1"/>
        <pt x="-5" y="-2" on="1"/>
        <pt x="2" y="85" on="1"/>
        <pt x="38" y="94" on="0"/>
        <pt x="53" y="140" on="1"/>
        <pt x="212" y="642" on="1"/>
        <pt x="475" y="658" on="1"/>
        <pt x="490" y="646" on="1"/>
        <pt x="586" y="261" on="0"/>
        <pt x="615" y="153" on="1"/>
        <pt x="624" y="119" on="0"/>
        <pt x="651" y="88" on="0"/>
        <pt x="674" y="86" on="1"/>
        <pt x="681" y="76" on="1"/>
        <pt x="673" y="-3" on="1"/>
        <pt x="587" y="-1" on="0"/>
        <pt x="532" y="-1" on="1"/>
        <pt x="341" y="-6" on="1"/>
        <pt x="333" y="3" on="1"/>
        <pt x="339" y="87" on="1"/>
        <pt x="385" y="92" on="0"/>
        <pt x="403" y="102" on="0"/>
        <pt x="403" y="126" on="0"/>
      </contour>
      <contour>
        <pt x="321" y="301" on="1"/>
        <pt x="337" y="301" on="0"/>
        <pt x="373" y="303" on="1"/>
        <pt x="339" y="478" on="1"/>
        <pt x="317" y="478" on="1"/>
        <pt x="270" y="301" on="1"/>
      </contour>
      <contour>
        <pt x="489" y="823" on="1"/>
        <pt x="500" y="805" on="1"/>
        <pt x="482" y="696" on="1"/>
        <pt x="208" y="694" on="1"/>
        <pt x="192" y="709" on="1"/>
        <pt x="211" y="818" on="1"/>
        <pt x="306" y="817" on="0"/>
        <pt x="365" y="817" on="1"/>
      </contour>
    </TTGlyph>
    <TTGlyph name="Aogonek" xMin="-5" yMin="-242" xMax="681" yMax="658">
      <contour>
        <pt x="515" y="-242" on="0"/>
        <pt x="446" y="-194" on="0"/>
        <pt x="446" y="-121" on="0"/>
        <pt x="485" y="-53" on="0"/>
        <pt x="533" y="-1" on="1"/>
        <pt x="532" y="-1" on="1"/>
        <pt x="341" y="-6" on="1"/>
        <pt x="333" y="3" on="1"/>
        <pt x="339" y="87" on="1"/>
        <pt x="385" y="92" on="0"/>
        <pt x="403" y="102" on="0"/>
        <pt x="403" y="121" on="1"/>
        <pt x="403" y="126" on="0"/>
        <pt x="395" y="178" on="1"/>
        <pt x="341" y="180" on="0"/>
        <pt x="303" y="180" on="0"/>
        <pt x="238" y="175" on="1"/>
        <pt x="225" y="118" on="0"/>
        <pt x="225" y="96" on="0"/>
        <pt x="236" y="89" on="0"/>
        <pt x="256" y="89" on="1"/>
        <pt x="282" y="89" on="1"/>
        <pt x="290" y="79" on="1"/>
        <pt x="282" y="-4" on="1"/>
        <pt x="189" y="-1" on="0"/>
        <pt x="128" y="-1" on="1"/>
        <pt x="-5" y="-2" on="1"/>
        <pt x="2" y="85" on="1"/>
        <pt x="38" y="94" on="0"/>
        <pt x="53" y="140" on="1"/>
        <pt x="212" y="642" on="1"/>
        <pt x="475" y="658" on="1"/>
        <pt x="490" y="646" on="1"/>
        <pt x="586" y="261" on="0"/>
        <pt x="615" y="153" on="1"/>
        <pt x="624" y="119" on="0"/>
        <pt x="651" y="88" on="0"/>
        <pt x="674" y="86" on="1"/>
        <pt x="681" y="76" on="1"/>
        <pt x="673" y="-3" on="1"/>
        <pt x="643" y="-2" on="0"/>
        <pt x="608" y="-1" on="1"/>
        <pt x="547" y="-84" on="0"/>
        <pt x="547" y="-116" on="1"/>
        <pt x="547" y="-135" on="0"/>
        <pt x="569" y="-157" on="0"/>
        <pt x="585" y="-157" on="1"/>
        <pt x="612" y="-157" on="0"/>
        <pt x="654" y="-132" on="1"/>
        <pt x="679" y="-171" on="1"/>
        <pt x="623" y="-224" on="0"/>
        <pt x="575" y="-242" on="1"/>
      </contour>
      <contour>
        <pt x="321" y="301" on="1"/>
        <pt x="337" y="301" on="0"/>
        <pt x="373" y="303" on="1"/>
        <pt x="339" y="478" on="1"/>
        <pt x="317" y="478" on="1"/>
        <pt x="270" y="301" on="1"/>
      </contour>
    </TTGlyph>
    <TTGlyph name="Aring" xMin="-5" yMin="-6" xMax="681" yMax="892">
      <contour>
        <pt x="395" y="178" on="1"/>
        <pt x="341" y="180" on="0"/>
        <pt x="303" y="180" on="0"/>
        <pt x="238" y="175" on="1"/>
        <pt x="225" y="118" on="0"/>
        <pt x="225" y="96" on="0"/>
        <pt x="236" y="89" on="0"/>
        <pt x="256" y="89" on="1"/>
        <pt x="282" y="89" on="1"/>
        <pt x="290" y="79" on="1"/>
        <pt x="282" y="-4" on="1"/>
        <pt x="189" y="-1" on="0"/>
        <pt x="128" y="-1" on="1"/>
        <pt x="-5" y="-2" on="1"/>
        <pt x="2" y="85" on="1"/>
        <pt x="38" y="94" on="0"/>
        <pt x="53" y="140" on="1"/>
        <pt x="212" y="642" on="1"/>
        <pt x="475" y="658" on="1"/>
        <pt x="490" y="646" on="1"/>
        <pt x="586" y="261" on="0"/>
        <pt x="615" y="153" on="1"/>
        <pt x="624" y="119" on="0"/>
        <pt x="651" y="88" on="0"/>
        <pt x="674" y="86" on="1"/>
        <pt x="681" y="76" on="1"/>
        <pt x="673" y="-3" on="1"/>
        <pt x="587" y="-1" on="0"/>
        <pt x="532" y="-1" on="1"/>
        <pt x="341" y="-6" on="1"/>
        <pt x="333" y="3" on="1"/>
        <pt x="339" y="87" on="1"/>
        <pt x="385" y="92" on="0"/>
        <pt x="403" y="102" on="0"/>
        <pt x="403" y="126" on="0"/>
      </contour>
      <contour>
        <pt x="321" y="301" on="1"/>
        <pt x="337" y="301" on="0"/>
        <pt x="373" y="303" on="1"/>
        <pt x="339" y="478" on="1"/>
        <pt x="317" y="478" on="1"/>
        <pt x="270" y="301" on="1"/>
      </contour>
      <contour>
        <pt x="344" y="752" on="1"/>
        <pt x="379" y="752" on="0"/>
        <pt x="379" y="785" on="1"/>
        <pt x="379" y="820" on="0"/>
        <pt x="305" y="820" on="0"/>
        <pt x="305" y="788" on="1"/>
        <pt x="305" y="769" on="0"/>
        <pt x="329" y="752" on="0"/>
      </contour>
      <contour>
        <pt x="448" y="748" on="0"/>
        <pt x="388" y="682" on="0"/>
        <pt x="289" y="682" on="0"/>
        <pt x="236" y="738" on="0"/>
        <pt x="236" y="832" on="0"/>
        <pt x="296" y="892" on="0"/>
        <pt x="398" y="892" on="0"/>
        <pt x="448" y="836" on="0"/>
      </contour>
    </TTGlyph>
    <TTGlyph name="Aringacute" xMin="-5" yMin="-6" xMax="681" yMax="1016">
      <contour>
        <pt x="395" y="178" on="1"/>
        <pt x="341" y="180" on="0"/>
        <pt x="303" y="180" on="0"/>
        <pt x="238" y="175" on="1"/>
        <pt x="225" y="118" on="0"/>
        <pt x="225" y="96" on="0"/>
        <pt x="236" y="89" on="0"/>
        <pt x="256" y="89" on="1"/>
        <pt x="282" y="89" on="1"/>
        <pt x="290" y="79" on="1"/>
        <pt x="282" y="-4" on="1"/>
        <pt x="189" y="-1" on="0"/>
        <pt x="128" y="-1" on="1"/>
        <pt x="-5" y="-2" on="1"/>
        <pt x="2" y="85" on="1"/>
        <pt x="38" y="94" on="0"/>
        <pt x="53" y="140" on="1"/>
        <pt x="212" y="642" on="1"/>
        <pt x="475" y="658" on="1"/>
        <pt x="490" y="646" on="1"/>
        <pt x="586" y="261" on="0"/>
        <pt x="615" y="153" on="1"/>
        <pt x="624" y="119" on="0"/>
        <pt x="651" y="88" on="0"/>
        <pt x="674" y="86" on="1"/>
        <pt x="681" y="76" on="1"/>
        <pt x="673" y="-3" on="1"/>
        <pt x="587" y="-1" on="0"/>
        <pt x="532" y="-1" on="1"/>
        <pt x="341" y="-6" on="1"/>
        <pt x="333" y="3" on="1"/>
        <pt x="339" y="87" on="1"/>
        <pt x="385" y="92" on="0"/>
        <pt x="403" y="102" on="0"/>
        <pt x="403" y="126" on="0"/>
      </contour>
      <contour>
        <pt x="321" y="301" on="1"/>
        <pt x="337" y="301" on="0"/>
        <pt x="373" y="303" on="1"/>
        <pt x="339" y="478" on="1"/>
        <pt x="317" y="478" on="1"/>
        <pt x="270" y="301" on="1"/>
      </contour>
      <contour>
        <pt x="309" y="773" on="1"/>
        <pt x="309" y="741" on="0"/>
        <pt x="375" y="741" on="0"/>
        <pt x="375" y="770" on="1"/>
        <pt x="375" y="802" on="0"/>
        <pt x="309" y="802" on="0"/>
      </contour>
      <contour>
        <pt x="437" y="737" on="0"/>
        <pt x="383" y="678" on="0"/>
        <pt x="295" y="678" on="0"/>
        <pt x="247" y="728" on="0"/>
        <pt x="247" y="812" on="0"/>
        <pt x="301" y="867" on="0"/>
        <pt x="392" y="867" on="0"/>
        <pt x="437" y="816" on="0"/>
      </contour>
      <contour>
        <pt x="476" y="915" on="1"/>
        <pt x="470" y="900" on="1"/>
        <pt x="353" y="879" on="0"/>
        <pt x="241" y="851" on="1"/>
        <pt x="224" y="863" on="1"/>
        <pt x="205" y="926" on="1"/>
        <pt x="429" y="1016" on="1"/>
        <pt x="444" y="1012" on="1"/>
      </contour>
    </TTGlyph>
    <TTGlyph name="Atilde" xMin="-5" yMin="-6" xMax="681" yMax="888">
      <contour>
        <pt x="395" y="178" on="1"/>
        <pt x="341" y="180" on="0"/>
        <pt x="303" y="180" on="0"/>
        <pt x="238" y="175" on="1"/>
        <pt x="225" y="118" on="0"/>
        <pt x="225" y="96" on="0"/>
        <pt x="236" y="89" on="0"/>
        <pt x="256" y="89" on="1"/>
        <pt x="282" y="89" on="1"/>
        <pt x="290" y="79" on="1"/>
        <pt x="282" y="-4" on="1"/>
        <pt x="189" y="-1" on="0"/>
        <pt x="128" y="-1" on="1"/>
        <pt x="-5" y="-2" on="1"/>
        <pt x="2" y="85" on="1"/>
        <pt x="38" y="94" on="0"/>
        <pt x="53" y="140" on="1"/>
        <pt x="212" y="642" on="1"/>
        <pt x="475" y="658" on="1"/>
        <pt x="490" y="646" on="1"/>
        <pt x="586" y="261" on="0"/>
        <pt x="615" y="153" on="1"/>
        <pt x="624" y="119" on="0"/>
        <pt x="651" y="88" on="0"/>
        <pt x="674" y="86" on="1"/>
        <pt x="681" y="76" on="1"/>
        <pt x="673" y="-3" on="1"/>
        <pt x="587" y="-1" on="0"/>
        <pt x="532" y="-1" on="1"/>
        <pt x="341" y="-6" on="1"/>
        <pt x="333" y="3" on="1"/>
        <pt x="339" y="87" on="1"/>
        <pt x="385" y="92" on="0"/>
        <pt x="403" y="102" on="0"/>
        <pt x="403" y="126" on="0"/>
      </contour>
      <contour>
        <pt x="321" y="301" on="1"/>
        <pt x="337" y="301" on="0"/>
        <pt x="373" y="303" on="1"/>
        <pt x="339" y="478" on="1"/>
        <pt x="317" y="478" on="1"/>
        <pt x="270" y="301" on="1"/>
      </contour>
      <contour>
        <pt x="261" y="864" on="0"/>
        <pt x="383" y="830" on="0"/>
        <pt x="396" y="830" on="1"/>
        <pt x="418" y="830" on="0"/>
        <pt x="452" y="874" on="1"/>
        <pt x="464" y="888" on="1"/>
        <pt x="480" y="888" on="1"/>
        <pt x="539" y="834" on="1"/>
        <pt x="539" y="818" on="1"/>
        <pt x="458" y="703" on="1"/>
        <pt x="441" y="699" on="1"/>
        <pt x="423" y="699" on="0"/>
        <pt x="301" y="733" on="0"/>
        <pt x="276" y="733" on="0"/>
        <pt x="242" y="704" on="0"/>
        <pt x="220" y="675" on="1"/>
        <pt x="204" y="675" on="1"/>
        <pt x="145" y="729" on="1"/>
        <pt x="145" y="745" on="1"/>
        <pt x="226" y="860" on="1"/>
        <pt x="243" y="864" on="1"/>
      </contour>
    </TTGlyph>
    <TTGlyph name="B" xMin="13" yMin="-11" xMax="646" yMax="654">
      <contour>
        <pt x="618" y="496" on="1"/>
        <pt x="618" y="408" on="0"/>
        <pt x="521" y="343" on="1"/>
        <pt x="577" y="323" on="0"/>
        <pt x="646" y="258" on="0"/>
        <pt x="646" y="198" on="1"/>
        <pt x="646" y="-11" on="0"/>
        <pt x="358" y="-11" on="1"/>
        <pt x="276" y="0" on="0"/>
        <pt x="194" y="0" on="1"/>
        <pt x="13" y="-7" on="1"/>
        <pt x="22" y="83" on="1"/>
        <pt x="61" y="90" on="0"/>
        <pt x="89" y="120" on="0"/>
        <pt x="89" y="156" on="1"/>
        <pt x="90" y="513" on="1"/>
        <pt x="90" y="559" on="0"/>
        <pt x="63" y="559" on="1"/>
        <pt x="29" y="557" on="1"/>
        <pt x="17" y="569" on="1"/>
        <pt x="29" y="649" on="1"/>
        <pt x="166" y="647" on="0"/>
        <pt x="198" y="647" on="1"/>
        <pt x="390" y="654" on="1"/>
        <pt x="502" y="654" on="0"/>
        <pt x="618" y="573" on="0"/>
      </contour>
      <contour>
        <pt x="283" y="160" on="1"/>
        <pt x="283" y="114" on="0"/>
        <pt x="431" y="114" on="0"/>
        <pt x="431" y="187" on="1"/>
        <pt x="431" y="240" on="0"/>
        <pt x="367" y="260" on="1"/>
        <pt x="288" y="260" on="1"/>
      </contour>
      <contour>
        <pt x="412" y="460" on="1"/>
        <pt x="412" y="528" on="0"/>
        <pt x="315" y="528" on="1"/>
        <pt x="298" y="528" on="0"/>
        <pt x="297" y="514" on="1"/>
        <pt x="290" y="389" on="1"/>
        <pt x="347" y="378" on="0"/>
        <pt x="370" y="378" on="1"/>
        <pt x="386" y="388" on="0"/>
        <pt x="412" y="436" on="0"/>
      </contour>
    </TTGlyph>
    <TTGlyph name="C" xMin="15" yMin="-11" xMax="584" yMax="659">
      <contour>
        <pt x="547" y="27" on="1"/>
        <pt x="439" y="-11" on="0"/>
        <pt x="171" y="-11" on="0"/>
        <pt x="15" y="159" on="0"/>
        <pt x="15" y="479" on="0"/>
        <pt x="197" y="659" on="0"/>
        <pt x="366" y="659" on="1"/>
        <pt x="442" y="659" on="0"/>
        <pt x="576" y="633" on="1"/>
        <pt x="584" y="613" on="1"/>
        <pt x="563" y="521" on="0"/>
        <pt x="556" y="399" on="1"/>
        <pt x="402" y="390" on="1"/>
        <pt x="404" y="416" on="0"/>
        <pt x="404" y="487" on="0"/>
        <pt x="373" y="521" on="0"/>
        <pt x="335" y="521" on="1"/>
        <pt x="283" y="521" on="0"/>
        <pt x="243" y="446" on="0"/>
        <pt x="243" y="235" on="0"/>
        <pt x="290" y="130" on="0"/>
        <pt x="340" y="130" on="1"/>
        <pt x="378" y="130" on="0"/>
        <pt x="414" y="182" on="0"/>
        <pt x="419" y="246" on="1"/>
        <pt x="572" y="256" on="1"/>
        <pt x="560" y="139" on="0"/>
        <pt x="560" y="43" on="1"/>
      </contour>
    </TTGlyph>
    <TTGlyph name="Cacute" xMin="15" yMin="-11" xMax="584" yMax="875">
      <contour>
        <pt x="547" y="27" on="1"/>
        <pt x="439" y="-11" on="0"/>
        <pt x="171" y="-11" on="0"/>
        <pt x="15" y="159" on="0"/>
        <pt x="15" y="479" on="0"/>
        <pt x="197" y="659" on="0"/>
        <pt x="366" y="659" on="1"/>
        <pt x="442" y="659" on="0"/>
        <pt x="576" y="633" on="1"/>
        <pt x="584" y="613" on="1"/>
        <pt x="563" y="521" on="0"/>
        <pt x="556" y="399" on="1"/>
        <pt x="402" y="390" on="1"/>
        <pt x="404" y="416" on="0"/>
        <pt x="404" y="487" on="0"/>
        <pt x="373" y="521" on="0"/>
        <pt x="335" y="521" on="1"/>
        <pt x="283" y="521" on="0"/>
        <pt x="243" y="446" on="0"/>
        <pt x="243" y="235" on="0"/>
        <pt x="290" y="130" on="0"/>
        <pt x="340" y="130" on="1"/>
        <pt x="378" y="130" on="0"/>
        <pt x="414" y="182" on="0"/>
        <pt x="419" y="246" on="1"/>
        <pt x="572" y="256" on="1"/>
        <pt x="560" y="139" on="0"/>
        <pt x="560" y="43" on="1"/>
      </contour>
      <contour>
        <pt x="524" y="762" on="1"/>
        <pt x="517" y="746" on="1"/>
        <pt x="387" y="722" on="0"/>
        <pt x="263" y="691" on="1"/>
        <pt x="244" y="704" on="1"/>
        <pt x="223" y="775" on="1"/>
        <pt x="326" y="813" on="0"/>
        <pt x="472" y="875" on="1"/>
        <pt x="488" y="870" on="1"/>
      </contour>
    </TTGlyph>
    <TTGlyph name="Ccaron" xMin="15" yMin="-11" xMax="584" yMax="895">
      <contour>
        <pt x="547" y="27" on="1"/>
        <pt x="439" y="-11" on="0"/>
        <pt x="171" y="-11" on="0"/>
        <pt x="15" y="159" on="0"/>
        <pt x="15" y="479" on="0"/>
        <pt x="197" y="659" on="0"/>
        <pt x="366" y="659" on="1"/>
        <pt x="442" y="659" on="0"/>
        <pt x="576" y="633" on="1"/>
        <pt x="584" y="613" on="1"/>
        <pt x="563" y="521" on="0"/>
        <pt x="556" y="399" on="1"/>
        <pt x="402" y="390" on="1"/>
        <pt x="404" y="416" on="0"/>
        <pt x="404" y="487" on="0"/>
        <pt x="373" y="521" on="0"/>
        <pt x="335" y="521" on="1"/>
        <pt x="283" y="521" on="0"/>
        <pt x="243" y="446" on="0"/>
        <pt x="243" y="235" on="0"/>
        <pt x="290" y="130" on="0"/>
        <pt x="340" y="130" on="1"/>
        <pt x="378" y="130" on="0"/>
        <pt x="414" y="182" on="0"/>
        <pt x="419" y="246" on="1"/>
        <pt x="572" y="256" on="1"/>
        <pt x="560" y="139" on="0"/>
        <pt x="560" y="43" on="1"/>
      </contour>
      <contour>
        <pt x="489" y="888" on="1"/>
        <pt x="525" y="826" on="1"/>
        <pt x="442" y="766" on="0"/>
        <pt x="348" y="688" on="1"/>
        <pt x="321" y="688" on="1"/>
        <pt x="228" y="765" on="0"/>
        <pt x="145" y="826" on="1"/>
        <pt x="180" y="888" on="1"/>
        <pt x="203" y="895" on="1"/>
        <pt x="250" y="875" on="0"/>
        <pt x="335" y="844" on="1"/>
        <pt x="387" y="863" on="0"/>
        <pt x="466" y="895" on="1"/>
      </contour>
    </TTGlyph>
    <TTGlyph name="Ccedilla" xMin="15" yMin="-242" xMax="584" yMax="659">
      <contour>
        <pt x="15" y="311" on="1"/>
        <pt x="15" y="479" on="0"/>
        <pt x="197" y="659" on="0"/>
        <pt x="366" y="659" on="1"/>
        <pt x="442" y="659" on="0"/>
        <pt x="576" y="633" on="1"/>
        <pt x="584" y="613" on="1"/>
        <pt x="563" y="521" on="0"/>
        <pt x="556" y="399" on="1"/>
        <pt x="402" y="390" on="1"/>
        <pt x="404" y="416" on="0"/>
        <pt x="404" y="487" on="0"/>
        <pt x="373" y="521" on="0"/>
        <pt x="335" y="521" on="1"/>
        <pt x="283" y="521" on="0"/>
        <pt x="243" y="446" on="0"/>
        <pt x="243" y="235" on="0"/>
        <pt x="290" y="130" on="0"/>
        <pt x="340" y="130" on="1"/>
        <pt x="378" y="130" on="0"/>
        <pt x="414" y="182" on="0"/>
        <pt x="419" y="246" on="1"/>
        <pt x="572" y="256" on="1"/>
        <pt x="560" y="139" on="0"/>
        <pt x="560" y="43" on="1"/>
        <pt x="547" y="27" on="1"/>
        <pt x="456" y="-5" on="0"/>
        <pt x="343" y="-10" on="1"/>
        <pt x="337" y="-38" on="1"/>
        <pt x="379" y="-58" on="0"/>
        <pt x="445" y="-113" on="0"/>
        <pt x="445" y="-184" on="0"/>
        <pt x="359" y="-242" on="0"/>
        <pt x="297" y="-242" on="1"/>
        <pt x="265" y="-242" on="0"/>
        <pt x="209" y="-213" on="0"/>
        <pt x="209" y="-169" on="0"/>
        <pt x="258" y="-120" on="1"/>
        <pt x="267" y="-120" on="1"/>
        <pt x="268" y="-147" on="0"/>
        <pt x="294" y="-176" on="0"/>
        <pt x="348" y="-176" on="0"/>
        <pt x="348" y="-129" on="0"/>
        <pt x="261" y="-87" on="1"/>
        <pt x="280" y="-10" on="1"/>
        <pt x="154" y="-1" on="0"/>
        <pt x="15" y="167" on="0"/>
      </contour>
    </TTGlyph>
    <TTGlyph name="Ccircumflex" xMin="15" yMin="-11" xMax="584" yMax="934">
      <contour>
        <pt x="547" y="27" on="1"/>
        <pt x="439" y="-11" on="0"/>
        <pt x="171" y="-11" on="0"/>
        <pt x="15" y="159" on="0"/>
        <pt x="15" y="479" on="0"/>
        <pt x="197" y="659" on="0"/>
        <pt x="366" y="659" on="1"/>
        <pt x="442" y="659" on="0"/>
        <pt x="576" y="633" on="1"/>
        <pt x="584" y="613" on="1"/>
        <pt x="563" y="521" on="0"/>
        <pt x="556" y="399" on="1"/>
        <pt x="402" y="390" on="1"/>
        <pt x="404" y="416" on="0"/>
        <pt x="404" y="487" on="0"/>
        <pt x="373" y="521" on="0"/>
        <pt x="335" y="521" on="1"/>
        <pt x="283" y="521" on="0"/>
        <pt x="243" y="446" on="0"/>
        <pt x="243" y="235" on="0"/>
        <pt x="290" y="130" on="0"/>
        <pt x="340" y="130" on="1"/>
        <pt x="378" y="130" on="0"/>
        <pt x="414" y="182" on="0"/>
        <pt x="419" y="246" on="1"/>
        <pt x="572" y="256" on="1"/>
        <pt x="560" y="139" on="0"/>
        <pt x="560" y="43" on="1"/>
      </contour>
      <contour>
        <pt x="206" y="716" on="1"/>
        <pt x="160" y="778" on="1"/>
        <pt x="240" y="849" on="0"/>
        <pt x="327" y="934" on="1"/>
        <pt x="354" y="934" on="1"/>
        <pt x="442" y="847" on="0"/>
        <pt x="520" y="778" on="1"/>
        <pt x="475" y="716" on="1"/>
        <pt x="452" y="709" on="1"/>
        <pt x="414" y="735" on="0"/>
        <pt x="340" y="778" on="1"/>
        <pt x="272" y="739" on="0"/>
        <pt x="229" y="709" on="1"/>
      </contour>
    </TTGlyph>
    <TTGlyph name="Cdotaccent" xMin="15" yMin="-11" xMax="584" yMax="882">
      <contour>
        <pt x="547" y="27" on="1"/>
        <pt x="439" y="-11" on="0"/>
        <pt x="171" y="-11" on="0"/>
        <pt x="15" y="159" on="0"/>
        <pt x="15" y="479" on="0"/>
        <pt x="197" y="659" on="0"/>
        <pt x="366" y="659" on="1"/>
        <pt x="442" y="659" on="0"/>
        <pt x="576" y="633" on="1"/>
        <pt x="584" y="613" on="1"/>
        <pt x="563" y="521" on="0"/>
        <pt x="556" y="399" on="1"/>
        <pt x="402" y="390" on="1"/>
        <pt x="404" y="416" on="0"/>
        <pt x="404" y="487" on="0"/>
        <pt x="373" y="521" on="0"/>
        <pt x="335" y="521" on="1"/>
        <pt x="283" y="521" on="0"/>
        <pt x="243" y="446" on="0"/>
        <pt x="243" y="235" on="0"/>
        <pt x="290" y="130" on="0"/>
        <pt x="340" y="130" on="1"/>
        <pt x="378" y="130" on="0"/>
        <pt x="414" y="182" on="0"/>
        <pt x="419" y="246" on="1"/>
        <pt x="572" y="256" on="1"/>
        <pt x="560" y="139" on="0"/>
        <pt x="560" y="43" on="1"/>
      </contour>
      <contour>
        <pt x="435" y="739" on="0"/>
        <pt x="381" y="683" on="0"/>
        <pt x="288" y="683" on="0"/>
        <pt x="240" y="732" on="0"/>
        <pt x="240" y="826" on="0"/>
        <pt x="295" y="882" on="0"/>
        <pt x="386" y="882" on="0"/>
        <pt x="435" y="832" on="0"/>
      </contour>
    </TTGlyph>
    <TTGlyph name="D" xMin="17" yMin="-12" xMax="667" yMax="653">
      <contour>
        <pt x="90" y="168" on="1"/>
        <pt x="90" y="503" on="1"/>
        <pt x="90" y="534" on="0"/>
        <pt x="79" y="557" on="0"/>
        <pt x="65" y="557" on="1"/>
        <pt x="33" y="555" on="1"/>
        <pt x="23" y="569" on="1"/>
        <pt x="32" y="650" on="1"/>
        <pt x="143" y="647" on="0"/>
        <pt x="184" y="647" on="1"/>
        <pt x="350" y="653" on="1"/>
        <pt x="667" y="653" on="0"/>
        <pt x="667" y="352" on="1"/>
        <pt x="667" y="184" on="0"/>
        <pt x="480" y="-12" on="0"/>
        <pt x="319" y="-12" on="1"/>
        <pt x="223" y="0" on="0"/>
        <pt x="160" y="0" on="1"/>
        <pt x="17" y="-8" on="1"/>
        <pt x="25" y="85" on="1"/>
        <pt x="63" y="91" on="0"/>
        <pt x="90" y="126" on="0"/>
      </contour>
      <contour>
        <pt x="314" y="526" on="1"/>
        <pt x="294" y="526" on="0"/>
        <pt x="293" y="499" on="1"/>
        <pt x="283" y="356" on="0"/>
        <pt x="283" y="162" on="1"/>
        <pt x="283" y="133" on="0"/>
        <pt x="298" y="113" on="0"/>
        <pt x="319" y="113" on="1"/>
        <pt x="384" y="113" on="0"/>
        <pt x="438" y="205" on="0"/>
        <pt x="438" y="436" on="0"/>
        <pt x="385" y="526" on="0"/>
      </contour>
    </TTGlyph>
    <TTGlyph name="Dcaron" xMin="17" yMin="-12" xMax="667" yMax="895">
      <contour>
        <pt x="90" y="168" on="1"/>
        <pt x="90" y="503" on="1"/>
        <pt x="90" y="534" on="0"/>
        <pt x="79" y="557" on="0"/>
        <pt x="65" y="557" on="1"/>
        <pt x="33" y="555" on="1"/>
        <pt x="23" y="569" on="1"/>
        <pt x="32" y="650" on="1"/>
        <pt x="143" y="647" on="0"/>
        <pt x="184" y="647" on="1"/>
        <pt x="350" y="653" on="1"/>
        <pt x="667" y="653" on="0"/>
        <pt x="667" y="352" on="1"/>
        <pt x="667" y="184" on="0"/>
        <pt x="480" y="-12" on="0"/>
        <pt x="319" y="-12" on="1"/>
        <pt x="223" y="0" on="0"/>
        <pt x="160" y="0" on="1"/>
        <pt x="17" y="-8" on="1"/>
        <pt x="25" y="85" on="1"/>
        <pt x="63" y="91" on="0"/>
        <pt x="90" y="126" on="0"/>
      </contour>
      <contour>
        <pt x="314" y="526" on="1"/>
        <pt x="294" y="526" on="0"/>
        <pt x="293" y="499" on="1"/>
        <pt x="283" y="356" on="0"/>
        <pt x="283" y="162" on="1"/>
        <pt x="283" y="133" on="0"/>
        <pt x="298" y="113" on="0"/>
        <pt x="319" y="113" on="1"/>
        <pt x="384" y="113" on="0"/>
        <pt x="438" y="205" on="0"/>
        <pt x="438" y="436" on="0"/>
        <pt x="385" y="526" on="0"/>
      </contour>
      <contour>
        <pt x="501" y="888" on="1"/>
        <pt x="537" y="826" on="1"/>
        <pt x="454" y="766" on="0"/>
        <pt x="360" y="688" on="1"/>
        <pt x="333" y="688" on="1"/>
        <pt x="240" y="765" on="0"/>
        <pt x="157" y="826" on="1"/>
        <pt x="192" y="888" on="1"/>
        <pt x="215" y="895" on="1"/>
        <pt x="262" y="875" on="0"/>
        <pt x="347" y="844" on="1"/>
        <pt x="399" y="863" on="0"/>
        <pt x="478" y="895" on="1"/>
      </contour>
    </TTGlyph>
    <TTGlyph name="Dcroat" xMin="7" yMin="-12" xMax="690" yMax="653">
      <contour>
        <pt x="113" y="168" on="1"/>
        <pt x="113" y="266" on="1"/>
        <pt x="17" y="266" on="1"/>
        <pt x="7" y="274" on="1"/>
        <pt x="20" y="363" on="1"/>
        <pt x="113" y="363" on="1"/>
        <pt x="113" y="503" on="1"/>
        <pt x="113" y="534" on="0"/>
        <pt x="102" y="557" on="0"/>
        <pt x="88" y="557" on="1"/>
        <pt x="56" y="555" on="1"/>
        <pt x="46" y="569" on="1"/>
        <pt x="55" y="650" on="1"/>
        <pt x="166" y="647" on="0"/>
        <pt x="207" y="647" on="1"/>
        <pt x="373" y="653" on="1"/>
        <pt x="690" y="653" on="0"/>
        <pt x="690" y="352" on="1"/>
        <pt x="690" y="184" on="0"/>
        <pt x="503" y="-12" on="0"/>
        <pt x="342" y="-12" on="1"/>
        <pt x="246" y="0" on="0"/>
        <pt x="183" y="0" on="1"/>
        <pt x="40" y="-8" on="1"/>
        <pt x="48" y="85" on="1"/>
        <pt x="86" y="91" on="0"/>
        <pt x="113" y="126" on="0"/>
      </contour>
      <contour>
        <pt x="306" y="267" on="1"/>
        <pt x="306" y="162" on="1"/>
        <pt x="306" y="133" on="0"/>
        <pt x="321" y="113" on="0"/>
        <pt x="342" y="113" on="1"/>
        <pt x="407" y="113" on="0"/>
        <pt x="461" y="205" on="0"/>
        <pt x="461" y="436" on="0"/>
        <pt x="408" y="526" on="0"/>
        <pt x="337" y="526" on="1"/>
        <pt x="317" y="526" on="0"/>
        <pt x="316" y="499" on="1"/>
        <pt x="309" y="364" on="1"/>
        <pt x="384" y="367" on="1"/>
        <pt x="392" y="357" on="1"/>
        <pt x="385" y="267" on="1"/>
      </contour>
    </TTGlyph>
    <TTGlyph name="Delta" xMin="12" yMin="0" xMax="663" yMax="659">
      <contour>
        <pt x="24" y="0" on="1"/>
        <pt x="12" y="13" on="1"/>
        <pt x="212" y="642" on="1"/>
        <pt x="477" y="659" on="1"/>
        <pt x="487" y="659" on="1"/>
        <pt x="567" y="299" on="0"/>
        <pt x="663" y="7" on="1"/>
        <pt x="654" y="0" on="1"/>
      </contour>
      <contour>
        <pt x="339" y="497" on="1"/>
        <pt x="316" y="497" on="1"/>
        <pt x="227" y="136" on="1"/>
        <pt x="406" y="136" on="1"/>
      </contour>
    </TTGlyph>
    <TTGlyph name="E" xMin="13" yMin="-10" xMax="588" yMax="659">
      <contour>
        <pt x="290" y="387" on="1"/>
        <pt x="372" y="386" on="1"/>
        <pt x="482" y="392" on="1"/>
        <pt x="494" y="378" on="1"/>
        <pt x="480" y="263" on="1"/>
        <pt x="406" y="266" on="0"/>
        <pt x="339" y="266" on="0"/>
        <pt x="285" y="260" on="1"/>
        <pt x="284" y="226" on="0"/>
        <pt x="284" y="136" on="0"/>
        <pt x="301" y="115" on="0"/>
        <pt x="332" y="115" on="1"/>
        <pt x="397" y="115" on="0"/>
        <pt x="439" y="154" on="0"/>
        <pt x="448" y="221" on="1"/>
        <pt x="576" y="230" on="1"/>
        <pt x="588" y="215" on="1"/>
        <pt x="570" y="118" on="0"/>
        <pt x="560" y="9" on="1"/>
        <pt x="545" y="-7" on="1"/>
        <pt x="379" y="0" on="0"/>
        <pt x="278" y="0" on="1"/>
        <pt x="133" y="0" on="0"/>
        <pt x="13" y="-10" on="1"/>
        <pt x="22" y="82" on="1"/>
        <pt x="60" y="88" on="0"/>
        <pt x="87" y="125" on="0"/>
        <pt x="87" y="170" on="1"/>
        <pt x="88" y="505" on="1"/>
        <pt x="88" y="537" on="0"/>
        <pt x="77" y="559" on="0"/>
        <pt x="61" y="559" on="1"/>
        <pt x="35" y="557" on="1"/>
        <pt x="23" y="571" on="1"/>
        <pt x="32" y="650" on="1"/>
        <pt x="174" y="647" on="0"/>
        <pt x="478" y="647" on="0"/>
        <pt x="574" y="659" on="1"/>
        <pt x="587" y="643" on="1"/>
        <pt x="569" y="538" on="0"/>
        <pt x="564" y="444" on="1"/>
        <pt x="426" y="435" on="1"/>
        <pt x="428" y="459" on="0"/>
        <pt x="428" y="472" on="1"/>
        <pt x="428" y="506" on="0"/>
        <pt x="391" y="527" on="0"/>
        <pt x="309" y="527" on="0"/>
        <pt x="296" y="517" on="0"/>
        <pt x="296" y="500" on="1"/>
      </contour>
    </TTGlyph>
    <TTGlyph name="Eacute" xMin="13" yMin="-10" xMax="588" yMax="875">
      <contour>
        <pt x="290" y="387" on="1"/>
        <pt x="372" y="386" on="1"/>
        <pt x="482" y="392" on="1"/>
        <pt x="494" y="378" on="1"/>
        <pt x="480" y="263" on="1"/>
        <pt x="406" y="266" on="0"/>
        <pt x="339" y="266" on="0"/>
        <pt x="285" y="260" on="1"/>
        <pt x="284" y="226" on="0"/>
        <pt x="284" y="136" on="0"/>
        <pt x="301" y="115" on="0"/>
        <pt x="332" y="115" on="1"/>
        <pt x="397" y="115" on="0"/>
        <pt x="439" y="154" on="0"/>
        <pt x="448" y="221" on="1"/>
        <pt x="576" y="230" on="1"/>
        <pt x="588" y="215" on="1"/>
        <pt x="570" y="118" on="0"/>
        <pt x="560" y="9" on="1"/>
        <pt x="545" y="-7" on="1"/>
        <pt x="379" y="0" on="0"/>
        <pt x="278" y="0" on="1"/>
        <pt x="133" y="0" on="0"/>
        <pt x="13" y="-10" on="1"/>
        <pt x="22" y="82" on="1"/>
        <pt x="60" y="88" on="0"/>
        <pt x="87" y="125" on="0"/>
        <pt x="87" y="170" on="1"/>
        <pt x="88" y="505" on="1"/>
        <pt x="88" y="537" on="0"/>
        <pt x="77" y="559" on="0"/>
        <pt x="61" y="559" on="1"/>
        <pt x="35" y="557" on="1"/>
        <pt x="23" y="571" on="1"/>
        <pt x="32" y="650" on="1"/>
        <pt x="174" y="647" on="0"/>
        <pt x="478" y="647" on="0"/>
        <pt x="574" y="659" on="1"/>
        <pt x="587" y="643" on="1"/>
        <pt x="569" y="538" on="0"/>
        <pt x="564" y="444" on="1"/>
        <pt x="426" y="435" on="1"/>
        <pt x="428" y="459" on="0"/>
        <pt x="428" y="472" on="1"/>
        <pt x="428" y="506" on="0"/>
        <pt x="391" y="527" on="0"/>
        <pt x="309" y="527" on="0"/>
        <pt x="296" y="517" on="0"/>
        <pt x="296" y="500" on="1"/>
      </contour>
      <contour>
        <pt x="515" y="762" on="1"/>
        <pt x="508" y="746" on="1"/>
        <pt x="378" y="722" on="0"/>
        <pt x="254" y="691" on="1"/>
        <pt x="235" y="704" on="1"/>
        <pt x="214" y="775" on="1"/>
        <pt x="317" y="813" on="0"/>
        <pt x="463" y="875" on="1"/>
        <pt x="479" y="870" on="1"/>
      </contour>
    </TTGlyph>
    <TTGlyph name="Ebreve" xMin="13" yMin="-10" xMax="588" yMax="905">
      <contour>
        <pt x="290" y="387" on="1"/>
        <pt x="372" y="386" on="1"/>
        <pt x="482" y="392" on="1"/>
        <pt x="494" y="378" on="1"/>
        <pt x="480" y="263" on="1"/>
        <pt x="406" y="266" on="0"/>
        <pt x="339" y="266" on="0"/>
        <pt x="285" y="260" on="1"/>
        <pt x="284" y="226" on="0"/>
        <pt x="284" y="136" on="0"/>
        <pt x="301" y="115" on="0"/>
        <pt x="332" y="115" on="1"/>
        <pt x="397" y="115" on="0"/>
        <pt x="439" y="154" on="0"/>
        <pt x="448" y="221" on="1"/>
        <pt x="576" y="230" on="1"/>
        <pt x="588" y="215" on="1"/>
        <pt x="570" y="118" on="0"/>
        <pt x="560" y="9" on="1"/>
        <pt x="545" y="-7" on="1"/>
        <pt x="379" y="0" on="0"/>
        <pt x="278" y="0" on="1"/>
        <pt x="133" y="0" on="0"/>
        <pt x="13" y="-10" on="1"/>
        <pt x="22" y="82" on="1"/>
        <pt x="60" y="88" on="0"/>
        <pt x="87" y="125" on="0"/>
        <pt x="87" y="170" on="1"/>
        <pt x="88" y="505" on="1"/>
        <pt x="88" y="537" on="0"/>
        <pt x="77" y="559" on="0"/>
        <pt x="61" y="559" on="1"/>
        <pt x="35" y="557" on="1"/>
        <pt x="23" y="571" on="1"/>
        <pt x="32" y="650" on="1"/>
        <pt x="174" y="647" on="0"/>
        <pt x="478" y="647" on="0"/>
        <pt x="574" y="659" on="1"/>
        <pt x="587" y="643" on="1"/>
        <pt x="569" y="538" on="0"/>
        <pt x="564" y="444" on="1"/>
        <pt x="426" y="435" on="1"/>
        <pt x="428" y="459" on="0"/>
        <pt x="428" y="472" on="1"/>
        <pt x="428" y="506" on="0"/>
        <pt x="391" y="527" on="0"/>
        <pt x="309" y="527" on="0"/>
        <pt x="296" y="517" on="0"/>
        <pt x="296" y="500" on="1"/>
      </contour>
      <contour>
        <pt x="246" y="835" on="0"/>
        <pt x="408" y="835" on="0"/>
        <pt x="438" y="905" on="1"/>
        <pt x="465" y="898" on="1"/>
        <pt x="505" y="836" on="1"/>
        <pt x="487" y="778" on="0"/>
        <pt x="398" y="700" on="0"/>
        <pt x="256" y="700" on="0"/>
        <pt x="167" y="778" on="0"/>
        <pt x="149" y="836" on="1"/>
        <pt x="189" y="898" on="1"/>
        <pt x="216" y="905" on="1"/>
      </contour>
    </TTGlyph>
    <TTGlyph name="Ecaron" xMin="13" yMin="-10" xMax="588" yMax="895">
      <contour>
        <pt x="290" y="387" on="1"/>
        <pt x="372" y="386" on="1"/>
        <pt x="482" y="392" on="1"/>
        <pt x="494" y="378" on="1"/>
        <pt x="480" y="263" on="1"/>
        <pt x="406" y="266" on="0"/>
        <pt x="339" y="266" on="0"/>
        <pt x="285" y="260" on="1"/>
        <pt x="284" y="226" on="0"/>
        <pt x="284" y="136" on="0"/>
        <pt x="301" y="115" on="0"/>
        <pt x="332" y="115" on="1"/>
        <pt x="397" y="115" on="0"/>
        <pt x="439" y="154" on="0"/>
        <pt x="448" y="221" on="1"/>
        <pt x="576" y="230" on="1"/>
        <pt x="588" y="215" on="1"/>
        <pt x="570" y="118" on="0"/>
        <pt x="560" y="9" on="1"/>
        <pt x="545" y="-7" on="1"/>
        <pt x="379" y="0" on="0"/>
        <pt x="278" y="0" on="1"/>
        <pt x="133" y="0" on="0"/>
        <pt x="13" y="-10" on="1"/>
        <pt x="22" y="82" on="1"/>
        <pt x="60" y="88" on="0"/>
        <pt x="87" y="125" on="0"/>
        <pt x="87" y="170" on="1"/>
        <pt x="88" y="505" on="1"/>
        <pt x="88" y="537" on="0"/>
        <pt x="77" y="559" on="0"/>
        <pt x="61" y="559" on="1"/>
        <pt x="35" y="557" on="1"/>
        <pt x="23" y="571" on="1"/>
        <pt x="32" y="650" on="1"/>
        <pt x="174" y="647" on="0"/>
        <pt x="478" y="647" on="0"/>
        <pt x="574" y="659" on="1"/>
        <pt x="587" y="643" on="1"/>
        <pt x="569" y="538" on="0"/>
        <pt x="564" y="444" on="1"/>
        <pt x="426" y="435" on="1"/>
        <pt x="428" y="459" on="0"/>
        <pt x="428" y="472" on="1"/>
        <pt x="428" y="506" on="0"/>
        <pt x="391" y="527" on="0"/>
        <pt x="309" y="527" on="0"/>
        <pt x="296" y="517" on="0"/>
        <pt x="296" y="500" on="1"/>
      </contour>
      <contour>
        <pt x="480" y="888" on="1"/>
        <pt x="516" y="826" on="1"/>
        <pt x="433" y="766" on="0"/>
        <pt x="339" y="688" on="1"/>
        <pt x="312" y="688" on="1"/>
        <pt x="219" y="765" on="0"/>
        <pt x="136" y="826" on="1"/>
        <pt x="171" y="888" on="1"/>
        <pt x="194" y="895" on="1"/>
        <pt x="241" y="875" on="0"/>
        <pt x="326" y="844" on="1"/>
        <pt x="378" y="863" on="0"/>
        <pt x="457" y="895" on="1"/>
      </contour>
    </TTGlyph>
    <TTGlyph name="Ecircumflex" xMin="13" yMin="-10" xMax="588" yMax="908">
      <contour>
        <pt x="290" y="387" on="1"/>
        <pt x="372" y="386" on="1"/>
        <pt x="482" y="392" on="1"/>
        <pt x="494" y="378" on="1"/>
        <pt x="480" y="263" on="1"/>
        <pt x="406" y="266" on="0"/>
        <pt x="339" y="266" on="0"/>
        <pt x="285" y="260" on="1"/>
        <pt x="284" y="226" on="0"/>
        <pt x="284" y="136" on="0"/>
        <pt x="301" y="115" on="0"/>
        <pt x="332" y="115" on="1"/>
        <pt x="397" y="115" on="0"/>
        <pt x="439" y="154" on="0"/>
        <pt x="448" y="221" on="1"/>
        <pt x="576" y="230" on="1"/>
        <pt x="588" y="215" on="1"/>
        <pt x="570" y="118" on="0"/>
        <pt x="560" y="9" on="1"/>
        <pt x="545" y="-7" on="1"/>
        <pt x="379" y="0" on="0"/>
        <pt x="278" y="0" on="1"/>
        <pt x="133" y="0" on="0"/>
        <pt x="13" y="-10" on="1"/>
        <pt x="22" y="82" on="1"/>
        <pt x="60" y="88" on="0"/>
        <pt x="87" y="125" on="0"/>
        <pt x="87" y="170" on="1"/>
        <pt x="88" y="505" on="1"/>
        <pt x="88" y="537" on="0"/>
        <pt x="77" y="559" on="0"/>
        <pt x="61" y="559" on="1"/>
        <pt x="35" y="557" on="1"/>
        <pt x="23" y="571" on="1"/>
        <pt x="32" y="650" on="1"/>
        <pt x="174" y="647" on="0"/>
        <pt x="478" y="647" on="0"/>
        <pt x="574" y="659" on="1"/>
        <pt x="587" y="643" on="1"/>
        <pt x="569" y="538" on="0"/>
        <pt x="564" y="444" on="1"/>
        <pt x="426" y="435" on="1"/>
        <pt x="428" y="459" on="0"/>
        <pt x="428" y="472" on="1"/>
        <pt x="428" y="506" on="0"/>
        <pt x="391" y="527" on="0"/>
        <pt x="309" y="527" on="0"/>
        <pt x="296" y="517" on="0"/>
        <pt x="296" y="500" on="1"/>
      </contour>
      <contour>
        <pt x="342" y="908" on="1"/>
        <pt x="342" y="911" on="0"/>
        <pt x="366" y="891" on="1"/>
        <pt x="466" y="810" on="0"/>
        <pt x="518" y="770" on="1"/>
        <pt x="483" y="708" on="1"/>
        <pt x="460" y="701" on="1"/>
        <pt x="413" y="721" on="0"/>
        <pt x="328" y="752" on="1"/>
        <pt x="276" y="733" on="0"/>
        <pt x="197" y="701" on="1"/>
        <pt x="174" y="708" on="1"/>
        <pt x="138" y="770" on="1"/>
        <pt x="221" y="830" on="0"/>
        <pt x="315" y="908" on="1"/>
      </contour>
    </TTGlyph>
    <TTGlyph name="Edieresis" xMin="13" yMin="-10" xMax="588" yMax="852">
      <contour>
        <pt x="290" y="387" on="1"/>
        <pt x="372" y="386" on="1"/>
        <pt x="482" y="392" on="1"/>
        <pt x="494" y="378" on="1"/>
        <pt x="480" y="263" on="1"/>
        <pt x="406" y="266" on="0"/>
        <pt x="339" y="266" on="0"/>
        <pt x="285" y="260" on="1"/>
        <pt x="284" y="226" on="0"/>
        <pt x="284" y="136" on="0"/>
        <pt x="301" y="115" on="0"/>
        <pt x="332" y="115" on="1"/>
        <pt x="397" y="115" on="0"/>
        <pt x="439" y="154" on="0"/>
        <pt x="448" y="221" on="1"/>
        <pt x="576" y="230" on="1"/>
        <pt x="588" y="215" on="1"/>
        <pt x="570" y="118" on="0"/>
        <pt x="560" y="9" on="1"/>
        <pt x="545" y="-7" on="1"/>
        <pt x="379" y="0" on="0"/>
        <pt x="278" y="0" on="1"/>
        <pt x="133" y="0" on="0"/>
        <pt x="13" y="-10" on="1"/>
        <pt x="22" y="82" on="1"/>
        <pt x="60" y="88" on="0"/>
        <pt x="87" y="125" on="0"/>
        <pt x="87" y="170" on="1"/>
        <pt x="88" y="505" on="1"/>
        <pt x="88" y="537" on="0"/>
        <pt x="77" y="559" on="0"/>
        <pt x="61" y="559" on="1"/>
        <pt x="35" y="557" on="1"/>
        <pt x="23" y="571" on="1"/>
        <pt x="32" y="650" on="1"/>
        <pt x="174" y="647" on="0"/>
        <pt x="478" y="647" on="0"/>
        <pt x="574" y="659" on="1"/>
        <pt x="587" y="643" on="1"/>
        <pt x="569" y="538" on="0"/>
        <pt x="564" y="444" on="1"/>
        <pt x="426" y="435" on="1"/>
        <pt x="428" y="459" on="0"/>
        <pt x="428" y="472" on="1"/>
        <pt x="428" y="506" on="0"/>
        <pt x="391" y="527" on="0"/>
        <pt x="309" y="527" on="0"/>
        <pt x="296" y="517" on="0"/>
        <pt x="296" y="500" on="1"/>
      </contour>
      <contour>
        <pt x="420" y="685" on="1"/>
        <pt x="340" y="685" on="0"/>
        <pt x="340" y="765" on="1"/>
        <pt x="340" y="805" on="0"/>
        <pt x="386" y="852" on="0"/>
        <pt x="464" y="852" on="0"/>
        <pt x="505" y="810" on="0"/>
        <pt x="505" y="732" on="0"/>
        <pt x="459" y="685" on="0"/>
      </contour>
      <contour>
        <pt x="227" y="685" on="1"/>
        <pt x="148" y="685" on="0"/>
        <pt x="148" y="765" on="1"/>
        <pt x="148" y="805" on="0"/>
        <pt x="194" y="852" on="0"/>
        <pt x="272" y="852" on="0"/>
        <pt x="313" y="810" on="0"/>
        <pt x="313" y="732" on="0"/>
        <pt x="267" y="685" on="0"/>
      </contour>
    </TTGlyph>
    <TTGlyph name="Edotaccent" xMin="13" yMin="-10" xMax="588" yMax="882">
      <contour>
        <pt x="290" y="387" on="1"/>
        <pt x="372" y="386" on="1"/>
        <pt x="482" y="392" on="1"/>
        <pt x="494" y="378" on="1"/>
        <pt x="480" y="263" on="1"/>
        <pt x="406" y="266" on="0"/>
        <pt x="339" y="266" on="0"/>
        <pt x="285" y="260" on="1"/>
        <pt x="284" y="226" on="0"/>
        <pt x="284" y="136" on="0"/>
        <pt x="301" y="115" on="0"/>
        <pt x="332" y="115" on="1"/>
        <pt x="397" y="115" on="0"/>
        <pt x="439" y="154" on="0"/>
        <pt x="448" y="221" on="1"/>
        <pt x="576" y="230" on="1"/>
        <pt x="588" y="215" on="1"/>
        <pt x="570" y="118" on="0"/>
        <pt x="560" y="9" on="1"/>
        <pt x="545" y="-7" on="1"/>
        <pt x="379" y="0" on="0"/>
        <pt x="278" y="0" on="1"/>
        <pt x="133" y="0" on="0"/>
        <pt x="13" y="-10" on="1"/>
        <pt x="22" y="82" on="1"/>
        <pt x="60" y="88" on="0"/>
        <pt x="87" y="125" on="0"/>
        <pt x="87" y="170" on="1"/>
        <pt x="88" y="505" on="1"/>
        <pt x="88" y="537" on="0"/>
        <pt x="77" y="559" on="0"/>
        <pt x="61" y="559" on="1"/>
        <pt x="35" y="557" on="1"/>
        <pt x="23" y="571" on="1"/>
        <pt x="32" y="650" on="1"/>
        <pt x="174" y="647" on="0"/>
        <pt x="478" y="647" on="0"/>
        <pt x="574" y="659" on="1"/>
        <pt x="587" y="643" on="1"/>
        <pt x="569" y="538" on="0"/>
        <pt x="564" y="444" on="1"/>
        <pt x="426" y="435" on="1"/>
        <pt x="428" y="459" on="0"/>
        <pt x="428" y="472" on="1"/>
        <pt x="428" y="506" on="0"/>
        <pt x="391" y="527" on="0"/>
        <pt x="309" y="527" on="0"/>
        <pt x="296" y="517" on="0"/>
        <pt x="296" y="500" on="1"/>
      </contour>
      <contour>
        <pt x="426" y="739" on="0"/>
        <pt x="372" y="683" on="0"/>
        <pt x="279" y="683" on="0"/>
        <pt x="231" y="732" on="0"/>
        <pt x="231" y="826" on="0"/>
        <pt x="286" y="882" on="0"/>
        <pt x="377" y="882" on="0"/>
        <pt x="426" y="832" on="0"/>
      </contour>
    </TTGlyph>
    <TTGlyph name="Egrave" xMin="13" yMin="-10" xMax="588" yMax="875">
      <contour>
        <pt x="290" y="387" on="1"/>
        <pt x="372" y="386" on="1"/>
        <pt x="482" y="392" on="1"/>
        <pt x="494" y="378" on="1"/>
        <pt x="480" y="263" on="1"/>
        <pt x="406" y="266" on="0"/>
        <pt x="339" y="266" on="0"/>
        <pt x="285" y="260" on="1"/>
        <pt x="284" y="226" on="0"/>
        <pt x="284" y="136" on="0"/>
        <pt x="301" y="115" on="0"/>
        <pt x="332" y="115" on="1"/>
        <pt x="397" y="115" on="0"/>
        <pt x="439" y="154" on="0"/>
        <pt x="448" y="221" on="1"/>
        <pt x="576" y="230" on="1"/>
        <pt x="588" y="215" on="1"/>
        <pt x="570" y="118" on="0"/>
        <pt x="560" y="9" on="1"/>
        <pt x="545" y="-7" on="1"/>
        <pt x="379" y="0" on="0"/>
        <pt x="278" y="0" on="1"/>
        <pt x="133" y="0" on="0"/>
        <pt x="13" y="-10" on="1"/>
        <pt x="22" y="82" on="1"/>
        <pt x="60" y="88" on="0"/>
        <pt x="87" y="125" on="0"/>
        <pt x="87" y="170" on="1"/>
        <pt x="88" y="505" on="1"/>
        <pt x="88" y="537" on="0"/>
        <pt x="77" y="559" on="0"/>
        <pt x="61" y="559" on="1"/>
        <pt x="35" y="557" on="1"/>
        <pt x="23" y="571" on="1"/>
        <pt x="32" y="650" on="1"/>
        <pt x="174" y="647" on="0"/>
        <pt x="478" y="647" on="0"/>
        <pt x="574" y="659" on="1"/>
        <pt x="587" y="643" on="1"/>
        <pt x="569" y="538" on="0"/>
        <pt x="564" y="444" on="1"/>
        <pt x="426" y="435" on="1"/>
        <pt x="428" y="459" on="0"/>
        <pt x="428" y="472" on="1"/>
        <pt x="428" y="506" on="0"/>
        <pt x="391" y="527" on="0"/>
        <pt x="309" y="527" on="0"/>
        <pt x="296" y="517" on="0"/>
        <pt x="296" y="500" on="1"/>
      </contour>
      <contour>
        <pt x="150" y="746" on="1"/>
        <pt x="143" y="762" on="1"/>
        <pt x="179" y="870" on="1"/>
        <pt x="195" y="875" on="1"/>
        <pt x="321" y="821" on="0"/>
        <pt x="444" y="775" on="1"/>
        <pt x="423" y="704" on="1"/>
        <pt x="404" y="691" on="1"/>
        <pt x="311" y="715" on="0"/>
      </contour>
    </TTGlyph>
    <TTGlyph name="Emacron" xMin="13" yMin="-10" xMax="588" yMax="823">
      <contour>
        <pt x="290" y="387" on="1"/>
        <pt x="372" y="386" on="1"/>
        <pt x="482" y="392" on="1"/>
        <pt x="494" y="378" on="1"/>
        <pt x="480" y="263" on="1"/>
        <pt x="406" y="266" on="0"/>
        <pt x="339" y="266" on="0"/>
        <pt x="285" y="260" on="1"/>
        <pt x="284" y="226" on="0"/>
        <pt x="284" y="136" on="0"/>
        <pt x="301" y="115" on="0"/>
        <pt x="332" y="115" on="1"/>
        <pt x="397" y="115" on="0"/>
        <pt x="439" y="154" on="0"/>
        <pt x="448" y="221" on="1"/>
        <pt x="576" y="230" on="1"/>
        <pt x="588" y="215" on="1"/>
        <pt x="570" y="118" on="0"/>
        <pt x="560" y="9" on="1"/>
        <pt x="545" y="-7" on="1"/>
        <pt x="379" y="0" on="0"/>
        <pt x="278" y="0" on="1"/>
        <pt x="133" y="0" on="0"/>
        <pt x="13" y="-10" on="1"/>
        <pt x="22" y="82" on="1"/>
        <pt x="60" y="88" on="0"/>
        <pt x="87" y="125" on="0"/>
        <pt x="87" y="170" on="1"/>
        <pt x="88" y="505" on="1"/>
        <pt x="88" y="537" on="0"/>
        <pt x="77" y="559" on="0"/>
        <pt x="61" y="559" on="1"/>
        <pt x="35" y="557" on="1"/>
        <pt x="23" y="571" on="1"/>
        <pt x="32" y="650" on="1"/>
        <pt x="174" y="647" on="0"/>
        <pt x="478" y="647" on="0"/>
        <pt x="574" y="659" on="1"/>
        <pt x="587" y="643" on="1"/>
        <pt x="569" y="538" on="0"/>
        <pt x="564" y="444" on="1"/>
        <pt x="426" y="435" on="1"/>
        <pt x="428" y="459" on="0"/>
        <pt x="428" y="472" on="1"/>
        <pt x="428" y="506" on="0"/>
        <pt x="391" y="527" on="0"/>
        <pt x="309" y="527" on="0"/>
        <pt x="296" y="517" on="0"/>
        <pt x="296" y="500" on="1"/>
      </contour>
      <contour>
        <pt x="474" y="823" on="1"/>
        <pt x="485" y="805" on="1"/>
        <pt x="467" y="696" on="1"/>
        <pt x="193" y="694" on="1"/>
        <pt x="177" y="709" on="1"/>
        <pt x="196" y="818" on="1"/>
        <pt x="291" y="817" on="0"/>
        <pt x="350" y="817" on="1"/>
      </contour>
    </TTGlyph>
    <TTGlyph name="Eng" xMin="17" yMin="-172" xMax="736" yMax="652">
      <contour>
        <pt x="168" y="647" on="1"/>
        <pt x="289" y="651" on="1"/>
        <pt x="377" y="495" on="0"/>
        <pt x="493" y="318" on="1"/>
        <pt x="507" y="318" on="1"/>
        <pt x="503" y="520" on="1"/>
        <pt x="503" y="544" on="0"/>
        <pt x="488" y="563" on="0"/>
        <pt x="470" y="563" on="1"/>
        <pt x="439" y="562" on="1"/>
        <pt x="434" y="572" on="1"/>
        <pt x="439" y="651" on="1"/>
        <pt x="573" y="647" on="0"/>
        <pt x="603" y="647" on="1"/>
        <pt x="736" y="651" on="1"/>
        <pt x="731" y="564" on="1"/>
        <pt x="698" y="560" on="0"/>
        <pt x="673" y="532" on="0"/>
        <pt x="672" y="501" on="1"/>
        <pt x="661" y="85" on="1"/>
        <pt x="658" y="-16" on="0"/>
        <pt x="548" y="-138" on="0"/>
        <pt x="427" y="-172" on="1"/>
        <pt x="389" y="-126" on="1"/>
        <pt x="391" y="-111" on="1"/>
        <pt x="428" y="-82" on="0"/>
        <pt x="465" y="-32" on="0"/>
        <pt x="474" y="0" on="1"/>
        <pt x="368" y="175" on="0"/>
        <pt x="265" y="331" on="1"/>
        <pt x="251" y="331" on="1"/>
        <pt x="253" y="133" on="1"/>
        <pt x="254" y="104" on="0"/>
        <pt x="270" y="83" on="0"/>
        <pt x="292" y="83" on="1"/>
        <pt x="327" y="86" on="1"/>
        <pt x="335" y="78" on="1"/>
        <pt x="325" y="-4" on="1"/>
        <pt x="224" y="0" on="0"/>
        <pt x="145" y="0" on="1"/>
        <pt x="25" y="-8" on="1"/>
        <pt x="35" y="78" on="1"/>
        <pt x="65" y="82" on="0"/>
        <pt x="91" y="112" on="0"/>
        <pt x="92" y="143" on="1"/>
        <pt x="104" y="499" on="1"/>
        <pt x="104" y="531" on="0"/>
        <pt x="76" y="556" on="0"/>
        <pt x="28" y="561" on="1"/>
        <pt x="17" y="575" on="1"/>
        <pt x="23" y="652" on="1"/>
        <pt x="114" y="647" on="0"/>
      </contour>
    </TTGlyph>
    <TTGlyph name="Eogonek" xMin="13" yMin="-242" xMax="588" yMax="659">
      <contour>
        <pt x="290" y="387" on="1"/>
        <pt x="372" y="386" on="1"/>
        <pt x="482" y="392" on="1"/>
        <pt x="494" y="378" on="1"/>
        <pt x="480" y="263" on="1"/>
        <pt x="406" y="266" on="0"/>
        <pt x="339" y="266" on="0"/>
        <pt x="285" y="260" on="1"/>
        <pt x="284" y="226" on="0"/>
        <pt x="284" y="136" on="0"/>
        <pt x="301" y="115" on="0"/>
        <pt x="332" y="115" on="1"/>
        <pt x="397" y="115" on="0"/>
        <pt x="439" y="154" on="0"/>
        <pt x="448" y="221" on="1"/>
        <pt x="576" y="230" on="1"/>
        <pt x="588" y="215" on="1"/>
        <pt x="570" y="118" on="0"/>
        <pt x="560" y="9" on="1"/>
        <pt x="545" y="-7" on="1"/>
        <pt x="533" y="-6" on="0"/>
        <pt x="514" y="-5" on="1"/>
        <pt x="456" y="-83" on="0"/>
        <pt x="456" y="-116" on="1"/>
        <pt x="456" y="-135" on="0"/>
        <pt x="478" y="-157" on="0"/>
        <pt x="494" y="-157" on="1"/>
        <pt x="521" y="-157" on="0"/>
        <pt x="563" y="-132" on="1"/>
        <pt x="588" y="-171" on="1"/>
        <pt x="532" y="-224" on="0"/>
        <pt x="484" y="-242" on="1"/>
        <pt x="424" y="-242" on="0"/>
        <pt x="355" y="-194" on="0"/>
        <pt x="355" y="-121" on="0"/>
        <pt x="393" y="-53" on="0"/>
        <pt x="440" y="-3" on="1"/>
        <pt x="348" y="0" on="0"/>
        <pt x="263" y="0" on="1"/>
        <pt x="133" y="0" on="0"/>
        <pt x="13" y="-10" on="1"/>
        <pt x="22" y="82" on="1"/>
        <pt x="60" y="88" on="0"/>
        <pt x="87" y="125" on="0"/>
        <pt x="87" y="170" on="1"/>
        <pt x="88" y="505" on="1"/>
        <pt x="88" y="537" on="0"/>
        <pt x="77" y="559" on="0"/>
        <pt x="61" y="559" on="1"/>
        <pt x="35" y="557" on="1"/>
        <pt x="23" y="571" on="1"/>
        <pt x="32" y="650" on="1"/>
        <pt x="174" y="647" on="0"/>
        <pt x="478" y="647" on="0"/>
        <pt x="574" y="659" on="1"/>
        <pt x="587" y="643" on="1"/>
        <pt x="569" y="538" on="0"/>
        <pt x="564" y="444" on="1"/>
        <pt x="426" y="435" on="1"/>
        <pt x="428" y="459" on="0"/>
        <pt x="428" y="472" on="1"/>
        <pt x="428" y="506" on="0"/>
        <pt x="391" y="527" on="0"/>
        <pt x="309" y="527" on="0"/>
        <pt x="296" y="517" on="0"/>
        <pt x="296" y="500" on="1"/>
      </contour>
    </TTGlyph>
    <TTGlyph name="Eth" xMin="7" yMin="-12" xMax="690" yMax="653">
      <contour>
        <pt x="113" y="168" on="1"/>
        <pt x="113" y="266" on="1"/>
        <pt x="17" y="266" on="1"/>
        <pt x="7" y="274" on="1"/>
        <pt x="20" y="363" on="1"/>
        <pt x="113" y="363" on="1"/>
        <pt x="113" y="503" on="1"/>
        <pt x="113" y="534" on="0"/>
        <pt x="102" y="557" on="0"/>
        <pt x="88" y="557" on="1"/>
        <pt x="56" y="555" on="1"/>
        <pt x="46" y="569" on="1"/>
        <pt x="55" y="650" on="1"/>
        <pt x="166" y="647" on="0"/>
        <pt x="207" y="647" on="1"/>
        <pt x="373" y="653" on="1"/>
        <pt x="690" y="653" on="0"/>
        <pt x="690" y="352" on="1"/>
        <pt x="690" y="184" on="0"/>
        <pt x="503" y="-12" on="0"/>
        <pt x="342" y="-12" on="1"/>
        <pt x="246" y="0" on="0"/>
        <pt x="183" y="0" on="1"/>
        <pt x="40" y="-8" on="1"/>
        <pt x="48" y="85" on="1"/>
        <pt x="86" y="91" on="0"/>
        <pt x="113" y="126" on="0"/>
      </contour>
      <contour>
        <pt x="306" y="267" on="1"/>
        <pt x="306" y="162" on="1"/>
        <pt x="306" y="133" on="0"/>
        <pt x="321" y="113" on="0"/>
        <pt x="342" y="113" on="1"/>
        <pt x="407" y="113" on="0"/>
        <pt x="461" y="205" on="0"/>
        <pt x="461" y="436" on="0"/>
        <pt x="408" y="526" on="0"/>
        <pt x="337" y="526" on="1"/>
        <pt x="317" y="526" on="0"/>
        <pt x="316" y="499" on="1"/>
        <pt x="309" y="364" on="1"/>
        <pt x="384" y="367" on="1"/>
        <pt x="392" y="357" on="1"/>
        <pt x="385" y="267" on="1"/>
      </contour>
    </TTGlyph>
    <TTGlyph name="Euro" xMin="-2" yMin="-8" xMax="538" yMax="512">
      <contour>
        <pt x="338" y="98" on="1"/>
        <pt x="371" y="98" on="0"/>
        <pt x="404" y="140" on="0"/>
        <pt x="409" y="190" on="1"/>
        <pt x="529" y="198" on="1"/>
        <pt x="519" y="107" on="0"/>
        <pt x="518" y="33" on="1"/>
        <pt x="508" y="21" on="1"/>
        <pt x="420" y="-8" on="0"/>
        <pt x="219" y="-8" on="0"/>
        <pt x="98" y="80" on="0"/>
        <pt x="78" y="160" on="1"/>
        <pt x="6" y="160" on="1"/>
        <pt x="-2" y="166" on="1"/>
        <pt x="7" y="233" on="1"/>
        <pt x="69" y="233" on="1"/>
        <pt x="69" y="241" on="1"/>
        <pt x="69" y="262" on="0"/>
        <pt x="70" y="273" on="1"/>
        <pt x="6" y="273" on="1"/>
        <pt x="-2" y="279" on="1"/>
        <pt x="7" y="346" on="1"/>
        <pt x="84" y="346" on="1"/>
        <pt x="110" y="427" on="0"/>
        <pt x="251" y="512" on="0"/>
        <pt x="359" y="512" on="1"/>
        <pt x="423" y="512" on="0"/>
        <pt x="531" y="492" on="1"/>
        <pt x="538" y="476" on="1"/>
        <pt x="520" y="406" on="0"/>
        <pt x="514" y="312" on="1"/>
        <pt x="394" y="305" on="1"/>
        <pt x="395" y="325" on="0"/>
        <pt x="395" y="380" on="0"/>
        <pt x="366" y="407" on="0"/>
        <pt x="333" y="407" on="1"/>
        <pt x="270" y="407" on="0"/>
        <pt x="255" y="346" on="1"/>
        <pt x="371" y="350" on="1"/>
        <pt x="379" y="342" on="1"/>
        <pt x="373" y="274" on="1"/>
        <pt x="248" y="273" on="1"/>
        <pt x="248" y="269" on="1"/>
        <pt x="248" y="244" on="0"/>
        <pt x="249" y="233" on="1"/>
        <pt x="252" y="233" on="1"/>
        <pt x="371" y="237" on="1"/>
        <pt x="379" y="229" on="1"/>
        <pt x="373" y="161" on="1"/>
        <pt x="261" y="160" on="1"/>
        <pt x="282" y="98" on="0"/>
      </contour>
    </TTGlyph>
    <TTGlyph name="F" xMin="13" yMin="-10" xMax="559" yMax="659">
      <contour>
        <pt x="284" y="139" on="0"/>
        <pt x="301" y="115" on="0"/>
        <pt x="352" y="115" on="0"/>
        <pt x="384" y="123" on="1"/>
        <pt x="400" y="105" on="1"/>
        <pt x="387" y="-3" on="1"/>
        <pt x="271" y="0" on="0"/>
        <pt x="224" y="0" on="1"/>
        <pt x="133" y="0" on="0"/>
        <pt x="13" y="-10" on="1"/>
        <pt x="22" y="82" on="1"/>
        <pt x="60" y="88" on="0"/>
        <pt x="87" y="125" on="0"/>
        <pt x="87" y="170" on="1"/>
        <pt x="88" y="505" on="1"/>
        <pt x="88" y="537" on="0"/>
        <pt x="77" y="559" on="0"/>
        <pt x="61" y="559" on="1"/>
        <pt x="35" y="557" on="1"/>
        <pt x="23" y="571" on="1"/>
        <pt x="32" y="650" on="1"/>
        <pt x="174" y="647" on="0"/>
        <pt x="459" y="647" on="0"/>
        <pt x="546" y="659" on="1"/>
        <pt x="559" y="643" on="1"/>
        <pt x="545" y="536" on="0"/>
        <pt x="541" y="444" on="1"/>
        <pt x="403" y="436" on="1"/>
        <pt x="405" y="460" on="0"/>
        <pt x="405" y="472" on="1"/>
        <pt x="405" y="504" on="0"/>
        <pt x="374" y="527" on="0"/>
        <pt x="309" y="527" on="0"/>
        <pt x="296" y="517" on="0"/>
        <pt x="296" y="500" on="1"/>
        <pt x="289" y="370" on="1"/>
        <pt x="372" y="369" on="1"/>
        <pt x="477" y="375" on="1"/>
        <pt x="489" y="361" on="1"/>
        <pt x="475" y="246" on="1"/>
        <pt x="404" y="249" on="0"/>
        <pt x="336" y="249" on="0"/>
        <pt x="285" y="243" on="1"/>
        <pt x="284" y="175" on="1"/>
      </contour>
    </TTGlyph>
    <TTGlyph name="G" xMin="15" yMin="-11" xMax="619" yMax="659">
      <contour>
        <pt x="347" y="130" on="1"/>
        <pt x="379" y="130" on="0"/>
        <pt x="399" y="142" on="1"/>
        <pt x="399" y="205" on="1"/>
        <pt x="399" y="229" on="0"/>
        <pt x="386" y="246" on="0"/>
        <pt x="367" y="246" on="1"/>
        <pt x="334" y="245" on="1"/>
        <pt x="325" y="259" on="1"/>
        <pt x="337" y="354" on="1"/>
        <pt x="490" y="354" on="1"/>
        <pt x="609" y="354" on="0"/>
        <pt x="609" y="359" on="1"/>
        <pt x="619" y="301" on="1"/>
        <pt x="584" y="281" on="0"/>
        <pt x="567" y="222" on="0"/>
        <pt x="567" y="67" on="0"/>
        <pt x="574" y="38" on="1"/>
        <pt x="562" y="22" on="1"/>
        <pt x="482" y="-11" on="0"/>
        <pt x="176" y="-11" on="0"/>
        <pt x="15" y="159" on="0"/>
        <pt x="15" y="481" on="0"/>
        <pt x="200" y="659" on="0"/>
        <pt x="376" y="659" on="1"/>
        <pt x="459" y="659" on="0"/>
        <pt x="579" y="633" on="1"/>
        <pt x="590" y="613" on="1"/>
        <pt x="568" y="528" on="0"/>
        <pt x="562" y="411" on="1"/>
        <pt x="408" y="402" on="1"/>
        <pt x="410" y="425" on="0"/>
        <pt x="410" y="494" on="0"/>
        <pt x="385" y="521" on="0"/>
        <pt x="351" y="521" on="1"/>
        <pt x="290" y="521" on="0"/>
        <pt x="243" y="446" on="0"/>
        <pt x="243" y="233" on="0"/>
        <pt x="292" y="130" on="0"/>
      </contour>
    </TTGlyph>
    <TTGlyph name="Gbreve" xMin="15" yMin="-11" xMax="619" yMax="910">
      <contour>
        <pt x="347" y="130" on="1"/>
        <pt x="379" y="130" on="0"/>
        <pt x="399" y="142" on="1"/>
        <pt x="399" y="205" on="1"/>
        <pt x="399" y="229" on="0"/>
        <pt x="386" y="246" on="0"/>
        <pt x="367" y="246" on="1"/>
        <pt x="334" y="245" on="1"/>
        <pt x="325" y="259" on="1"/>
        <pt x="337" y="354" on="1"/>
        <pt x="490" y="354" on="1"/>
        <pt x="609" y="354" on="0"/>
        <pt x="609" y="359" on="1"/>
        <pt x="619" y="301" on="1"/>
        <pt x="584" y="281" on="0"/>
        <pt x="567" y="222" on="0"/>
        <pt x="567" y="67" on="0"/>
        <pt x="574" y="38" on="1"/>
        <pt x="562" y="22" on="1"/>
        <pt x="482" y="-11" on="0"/>
        <pt x="176" y="-11" on="0"/>
        <pt x="15" y="159" on="0"/>
        <pt x="15" y="481" on="0"/>
        <pt x="200" y="659" on="0"/>
        <pt x="376" y="659" on="1"/>
        <pt x="459" y="659" on="0"/>
        <pt x="579" y="633" on="1"/>
        <pt x="590" y="613" on="1"/>
        <pt x="568" y="528" on="0"/>
        <pt x="562" y="411" on="1"/>
        <pt x="408" y="402" on="1"/>
        <pt x="410" y="425" on="0"/>
        <pt x="410" y="494" on="0"/>
        <pt x="385" y="521" on="0"/>
        <pt x="351" y="521" on="1"/>
        <pt x="290" y="521" on="0"/>
        <pt x="243" y="446" on="0"/>
        <pt x="243" y="233" on="0"/>
        <pt x="292" y="130" on="0"/>
      </contour>
      <contour>
        <pt x="261" y="840" on="0"/>
        <pt x="423" y="840" on="0"/>
        <pt x="453" y="910" on="1"/>
        <pt x="480" y="903" on="1"/>
        <pt x="520" y="841" on="1"/>
        <pt x="502" y="783" on="0"/>
        <pt x="413" y="705" on="0"/>
        <pt x="271" y="705" on="0"/>
        <pt x="182" y="783" on="0"/>
        <pt x="164" y="841" on="1"/>
        <pt x="204" y="903" on="1"/>
        <pt x="231" y="910" on="1"/>
      </contour>
    </TTGlyph>
    <TTGlyph name="Gcircumflex" xMin="15" yMin="-11" xMax="619" yMax="934">
      <contour>
        <pt x="347" y="130" on="1"/>
        <pt x="379" y="130" on="0"/>
        <pt x="399" y="142" on="1"/>
        <pt x="399" y="205" on="1"/>
        <pt x="399" y="229" on="0"/>
        <pt x="386" y="246" on="0"/>
        <pt x="367" y="246" on="1"/>
        <pt x="334" y="245" on="1"/>
        <pt x="325" y="259" on="1"/>
        <pt x="337" y="354" on="1"/>
        <pt x="490" y="354" on="1"/>
        <pt x="609" y="354" on="0"/>
        <pt x="609" y="359" on="1"/>
        <pt x="619" y="301" on="1"/>
        <pt x="584" y="281" on="0"/>
        <pt x="567" y="222" on="0"/>
        <pt x="567" y="67" on="0"/>
        <pt x="574" y="38" on="1"/>
        <pt x="562" y="22" on="1"/>
        <pt x="482" y="-11" on="0"/>
        <pt x="176" y="-11" on="0"/>
        <pt x="15" y="159" on="0"/>
        <pt x="15" y="481" on="0"/>
        <pt x="200" y="659" on="0"/>
        <pt x="376" y="659" on="1"/>
        <pt x="459" y="659" on="0"/>
        <pt x="579" y="633" on="1"/>
        <pt x="590" y="613" on="1"/>
        <pt x="568" y="528" on="0"/>
        <pt x="562" y="411" on="1"/>
        <pt x="408" y="402" on="1"/>
        <pt x="410" y="425" on="0"/>
        <pt x="410" y="494" on="0"/>
        <pt x="385" y="521" on="0"/>
        <pt x="351" y="521" on="1"/>
        <pt x="290" y="521" on="0"/>
        <pt x="243" y="446" on="0"/>
        <pt x="243" y="233" on="0"/>
        <pt x="292" y="130" on="0"/>
      </contour>
      <contour>
        <pt x="213" y="716" on="1"/>
        <pt x="167" y="778" on="1"/>
        <pt x="247" y="849" on="0"/>
        <pt x="334" y="934" on="1"/>
        <pt x="361" y="934" on="1"/>
        <pt x="449" y="847" on="0"/>
        <pt x="527" y="778" on="1"/>
        <pt x="482" y="716" on="1"/>
        <pt x="459" y="709" on="1"/>
        <pt x="421" y="735" on="0"/>
        <pt x="347" y="778" on="1"/>
        <pt x="279" y="739" on="0"/>
        <pt x="236" y="709" on="1"/>
      </contour>
    </TTGlyph>
    <TTGlyph name="Gcommaaccent" xMin="15" yMin="-345" xMax="619" yMax="659">
      <contour>
        <pt x="347" y="130" on="1"/>
        <pt x="379" y="130" on="0"/>
        <pt x="399" y="142" on="1"/>
        <pt x="399" y="205" on="1"/>
        <pt x="399" y="229" on="0"/>
        <pt x="386" y="246" on="0"/>
        <pt x="367" y="246" on="1"/>
        <pt x="334" y="245" on="1"/>
        <pt x="325" y="259" on="1"/>
        <pt x="337" y="354" on="1"/>
        <pt x="490" y="354" on="1"/>
        <pt x="609" y="354" on="0"/>
        <pt x="609" y="359" on="1"/>
        <pt x="619" y="301" on="1"/>
        <pt x="584" y="281" on="0"/>
        <pt x="567" y="222" on="0"/>
        <pt x="567" y="67" on="0"/>
        <pt x="574" y="38" on="1"/>
        <pt x="562" y="22" on="1"/>
        <pt x="482" y="-11" on="0"/>
        <pt x="176" y="-11" on="0"/>
        <pt x="15" y="159" on="0"/>
        <pt x="15" y="481" on="0"/>
        <pt x="200" y="659" on="0"/>
        <pt x="376" y="659" on="1"/>
        <pt x="459" y="659" on="0"/>
        <pt x="579" y="633" on="1"/>
        <pt x="590" y="613" on="1"/>
        <pt x="568" y="528" on="0"/>
        <pt x="562" y="411" on="1"/>
        <pt x="408" y="402" on="1"/>
        <pt x="410" y="425" on="0"/>
        <pt x="410" y="494" on="0"/>
        <pt x="385" y="521" on="0"/>
        <pt x="351" y="521" on="1"/>
        <pt x="290" y="521" on="0"/>
        <pt x="243" y="446" on="0"/>
        <pt x="243" y="233" on="0"/>
        <pt x="292" y="130" on="0"/>
      </contour>
      <contour>
        <pt x="237" y="-78" on="1"/>
        <pt x="294" y="-34" on="0"/>
        <pt x="377" y="-34" on="0"/>
        <pt x="424" y="-89" on="0"/>
        <pt x="424" y="-188" on="0"/>
        <pt x="334" y="-301" on="0"/>
        <pt x="257" y="-345" on="1"/>
        <pt x="199" y="-299" on="1"/>
        <pt x="199" y="-274" on="1"/>
        <pt x="228" y="-253" on="0"/>
        <pt x="263" y="-195" on="0"/>
        <pt x="263" y="-124" on="0"/>
        <pt x="234" y="-92" on="1"/>
      </contour>
    </TTGlyph>
    <TTGlyph name="Gdotaccent" xMin="15" yMin="-11" xMax="619" yMax="882">
      <contour>
        <pt x="347" y="130" on="1"/>
        <pt x="379" y="130" on="0"/>
        <pt x="399" y="142" on="1"/>
        <pt x="399" y="205" on="1"/>
        <pt x="399" y="229" on="0"/>
        <pt x="386" y="246" on="0"/>
        <pt x="367" y="246" on="1"/>
        <pt x="334" y="245" on="1"/>
        <pt x="325" y="259" on="1"/>
        <pt x="337" y="354" on="1"/>
        <pt x="490" y="354" on="1"/>
        <pt x="609" y="354" on="0"/>
        <pt x="609" y="359" on="1"/>
        <pt x="619" y="301" on="1"/>
        <pt x="584" y="281" on="0"/>
        <pt x="567" y="222" on="0"/>
        <pt x="567" y="67" on="0"/>
        <pt x="574" y="38" on="1"/>
        <pt x="562" y="22" on="1"/>
        <pt x="482" y="-11" on="0"/>
        <pt x="176" y="-11" on="0"/>
        <pt x="15" y="159" on="0"/>
        <pt x="15" y="481" on="0"/>
        <pt x="200" y="659" on="0"/>
        <pt x="376" y="659" on="1"/>
        <pt x="459" y="659" on="0"/>
        <pt x="579" y="633" on="1"/>
        <pt x="590" y="613" on="1"/>
        <pt x="568" y="528" on="0"/>
        <pt x="562" y="411" on="1"/>
        <pt x="408" y="402" on="1"/>
        <pt x="410" y="425" on="0"/>
        <pt x="410" y="494" on="0"/>
        <pt x="385" y="521" on="0"/>
        <pt x="351" y="521" on="1"/>
        <pt x="290" y="521" on="0"/>
        <pt x="243" y="446" on="0"/>
        <pt x="243" y="233" on="0"/>
        <pt x="292" y="130" on="0"/>
      </contour>
      <contour>
        <pt x="442" y="739" on="0"/>
        <pt x="388" y="683" on="0"/>
        <pt x="295" y="683" on="0"/>
        <pt x="247" y="732" on="0"/>
        <pt x="247" y="826" on="0"/>
        <pt x="302" y="882" on="0"/>
        <pt x="393" y="882" on="0"/>
        <pt x="442" y="832" on="0"/>
      </contour>
    </TTGlyph>
    <TTGlyph name="H" xMin="15" yMin="-5" xMax="731" yMax="652">
      <contour>
        <pt x="654" y="156" on="1"/>
        <pt x="654" y="119" on="0"/>
        <pt x="671" y="89" on="0"/>
        <pt x="693" y="89" on="1"/>
        <pt x="721" y="92" on="1"/>
        <pt x="729" y="81" on="1"/>
        <pt x="720" y="-2" on="1"/>
        <pt x="632" y="0" on="0"/>
        <pt x="549" y="0" on="1"/>
        <pt x="383" y="-1" on="1"/>
        <pt x="391" y="86" on="1"/>
        <pt x="427" y="87" on="0"/>
        <pt x="457" y="121" on="0"/>
        <pt x="457" y="162" on="1"/>
        <pt x="457" y="264" on="1"/>
        <pt x="423" y="265" on="0"/>
        <pt x="398" y="265" on="1"/>
        <pt x="285" y="256" on="1"/>
        <pt x="285" y="156" on="1"/>
        <pt x="285" y="114" on="0"/>
        <pt x="298" y="87" on="0"/>
        <pt x="317" y="87" on="1"/>
        <pt x="344" y="90" on="1"/>
        <pt x="352" y="80" on="1"/>
        <pt x="343" y="-4" on="1"/>
        <pt x="222" y="0" on="0"/>
        <pt x="181" y="0" on="1"/>
        <pt x="15" y="-5" on="1"/>
        <pt x="23" y="80" on="1"/>
        <pt x="63" y="88" on="0"/>
        <pt x="88" y="120" on="0"/>
        <pt x="88" y="162" on="1"/>
        <pt x="88" y="508" on="1"/>
        <pt x="88" y="539" on="0"/>
        <pt x="74" y="559" on="0"/>
        <pt x="53" y="559" on="1"/>
        <pt x="27" y="558" on="1"/>
        <pt x="18" y="572" on="1"/>
        <pt x="26" y="647" on="1"/>
        <pt x="155" y="647" on="1"/>
        <pt x="354" y="652" on="1"/>
        <pt x="347" y="562" on="1"/>
        <pt x="315" y="556" on="0"/>
        <pt x="296" y="537" on="0"/>
        <pt x="294" y="510" on="1"/>
        <pt x="288" y="389" on="1"/>
        <pt x="373" y="386" on="1"/>
        <pt x="428" y="386" on="0"/>
        <pt x="457" y="389" on="1"/>
        <pt x="457" y="508" on="1"/>
        <pt x="457" y="538" on="0"/>
        <pt x="443" y="559" on="0"/>
        <pt x="422" y="559" on="1"/>
        <pt x="395" y="558" on="1"/>
        <pt x="386" y="572" on="1"/>
        <pt x="394" y="647" on="1"/>
        <pt x="555" y="647" on="1"/>
        <pt x="731" y="652" on="1"/>
        <pt x="724" y="564" on="1"/>
        <pt x="688" y="558" on="0"/>
        <pt x="665" y="538" on="0"/>
        <pt x="664" y="510" on="1"/>
        <pt x="654" y="375" on="0"/>
      </contour>
    </TTGlyph>
    <TTGlyph name="Hbar" xMin="-5" yMin="-5" xMax="748" yMax="652">
      <contour>
        <pt x="664" y="510" on="1"/>
        <pt x="664" y="509" on="0"/>
        <pt x="663" y="506" on="1"/>
        <pt x="733" y="508" on="1"/>
        <pt x="748" y="493" on="1"/>
        <pt x="743" y="438" on="1"/>
        <pt x="660" y="437" on="1"/>
        <pt x="654" y="316" on="0"/>
        <pt x="654" y="156" on="1"/>
        <pt x="654" y="119" on="0"/>
        <pt x="671" y="89" on="0"/>
        <pt x="693" y="89" on="1"/>
        <pt x="721" y="92" on="1"/>
        <pt x="729" y="81" on="1"/>
        <pt x="720" y="-2" on="1"/>
        <pt x="632" y="0" on="0"/>
        <pt x="549" y="0" on="1"/>
        <pt x="383" y="-1" on="1"/>
        <pt x="391" y="86" on="1"/>
        <pt x="427" y="87" on="0"/>
        <pt x="457" y="121" on="0"/>
        <pt x="457" y="162" on="1"/>
        <pt x="457" y="264" on="1"/>
        <pt x="423" y="265" on="0"/>
        <pt x="398" y="265" on="1"/>
        <pt x="285" y="256" on="1"/>
        <pt x="285" y="156" on="1"/>
        <pt x="285" y="114" on="0"/>
        <pt x="298" y="87" on="0"/>
        <pt x="317" y="87" on="1"/>
        <pt x="344" y="90" on="1"/>
        <pt x="352" y="80" on="1"/>
        <pt x="343" y="-4" on="1"/>
        <pt x="222" y="0" on="0"/>
        <pt x="181" y="0" on="1"/>
        <pt x="15" y="-5" on="1"/>
        <pt x="23" y="80" on="1"/>
        <pt x="63" y="88" on="0"/>
        <pt x="88" y="120" on="0"/>
        <pt x="88" y="162" on="1"/>
        <pt x="88" y="436" on="1"/>
        <pt x="6" y="436" on="1"/>
        <pt x="-5" y="446" on="1"/>
        <pt x="3" y="504" on="1"/>
        <pt x="38" y="503" on="0"/>
        <pt x="88" y="503" on="1"/>
        <pt x="88" y="508" on="1"/>
        <pt x="88" y="539" on="0"/>
        <pt x="74" y="559" on="0"/>
        <pt x="53" y="559" on="1"/>
        <pt x="27" y="558" on="1"/>
        <pt x="18" y="572" on="1"/>
        <pt x="26" y="647" on="1"/>
        <pt x="155" y="647" on="1"/>
        <pt x="354" y="652" on="1"/>
        <pt x="347" y="562" on="1"/>
        <pt x="315" y="556" on="0"/>
        <pt x="296" y="537" on="0"/>
        <pt x="294" y="510" on="1"/>
        <pt x="293" y="503" on="1"/>
        <pt x="457" y="503" on="1"/>
        <pt x="457" y="508" on="1"/>
        <pt x="457" y="538" on="0"/>
        <pt x="443" y="559" on="0"/>
        <pt x="422" y="559" on="1"/>
        <pt x="395" y="558" on="1"/>
        <pt x="386" y="572" on="1"/>
        <pt x="394" y="647" on="1"/>
        <pt x="555" y="647" on="1"/>
        <pt x="731" y="652" on="1"/>
        <pt x="724" y="564" on="1"/>
        <pt x="688" y="558" on="0"/>
        <pt x="665" y="538" on="0"/>
      </contour>
      <contour>
        <pt x="457" y="437" on="1"/>
        <pt x="290" y="437" on="1"/>
        <pt x="288" y="389" on="1"/>
        <pt x="373" y="386" on="1"/>
        <pt x="428" y="386" on="0"/>
        <pt x="457" y="389" on="1"/>
      </contour>
    </TTGlyph>
    <TTGlyph name="Hcircumflex" xMin="15" yMin="-5" xMax="731" yMax="960">
      <contour>
        <pt x="654" y="156" on="1"/>
        <pt x="654" y="119" on="0"/>
        <pt x="671" y="89" on="0"/>
        <pt x="693" y="89" on="1"/>
        <pt x="721" y="92" on="1"/>
        <pt x="729" y="81" on="1"/>
        <pt x="720" y="-2" on="1"/>
        <pt x="632" y="0" on="0"/>
        <pt x="549" y="0" on="1"/>
        <pt x="383" y="-1" on="1"/>
        <pt x="391" y="86" on="1"/>
        <pt x="427" y="87" on="0"/>
        <pt x="457" y="121" on="0"/>
        <pt x="457" y="162" on="1"/>
        <pt x="457" y="264" on="1"/>
        <pt x="423" y="265" on="0"/>
        <pt x="398" y="265" on="1"/>
        <pt x="285" y="256" on="1"/>
        <pt x="285" y="156" on="1"/>
        <pt x="285" y="114" on="0"/>
        <pt x="298" y="87" on="0"/>
        <pt x="317" y="87" on="1"/>
        <pt x="344" y="90" on="1"/>
        <pt x="352" y="80" on="1"/>
        <pt x="343" y="-4" on="1"/>
        <pt x="222" y="0" on="0"/>
        <pt x="181" y="0" on="1"/>
        <pt x="15" y="-5" on="1"/>
        <pt x="23" y="80" on="1"/>
        <pt x="63" y="88" on="0"/>
        <pt x="88" y="120" on="0"/>
        <pt x="88" y="162" on="1"/>
        <pt x="88" y="508" on="1"/>
        <pt x="88" y="539" on="0"/>
        <pt x="74" y="559" on="0"/>
        <pt x="53" y="559" on="1"/>
        <pt x="27" y="558" on="1"/>
        <pt x="18" y="572" on="1"/>
        <pt x="26" y="647" on="1"/>
        <pt x="155" y="647" on="1"/>
        <pt x="354" y="652" on="1"/>
        <pt x="347" y="562" on="1"/>
        <pt x="315" y="556" on="0"/>
        <pt x="296" y="537" on="0"/>
        <pt x="294" y="510" on="1"/>
        <pt x="288" y="389" on="1"/>
        <pt x="373" y="386" on="1"/>
        <pt x="428" y="386" on="0"/>
        <pt x="457" y="389" on="1"/>
        <pt x="457" y="508" on="1"/>
        <pt x="457" y="538" on="0"/>
        <pt x="443" y="559" on="0"/>
        <pt x="422" y="559" on="1"/>
        <pt x="395" y="558" on="1"/>
        <pt x="386" y="572" on="1"/>
        <pt x="394" y="647" on="1"/>
        <pt x="555" y="647" on="1"/>
        <pt x="731" y="652" on="1"/>
        <pt x="724" y="564" on="1"/>
        <pt x="688" y="558" on="0"/>
        <pt x="665" y="538" on="0"/>
        <pt x="664" y="510" on="1"/>
        <pt x="654" y="375" on="0"/>
      </contour>
      <contour>
        <pt x="235" y="742" on="1"/>
        <pt x="189" y="804" on="1"/>
        <pt x="269" y="875" on="0"/>
        <pt x="356" y="960" on="1"/>
        <pt x="383" y="960" on="1"/>
        <pt x="471" y="873" on="0"/>
        <pt x="549" y="804" on="1"/>
        <pt x="504" y="742" on="1"/>
        <pt x="481" y="735" on="1"/>
        <pt x="443" y="761" on="0"/>
        <pt x="369" y="804" on="1"/>
        <pt x="301" y="765" on="0"/>
        <pt x="258" y="735" on="1"/>
      </contour>
    </TTGlyph>
    <TTGlyph name="I" xMin="15" yMin="-5" xMax="359" yMax="652">
      <contour>
        <pt x="285" y="156" on="1"/>
        <pt x="285" y="114" on="0"/>
        <pt x="298" y="87" on="0"/>
        <pt x="317" y="87" on="1"/>
        <pt x="349" y="90" on="1"/>
        <pt x="357" y="80" on="1"/>
        <pt x="348" y="-4" on="1"/>
        <pt x="223" y="0" on="0"/>
        <pt x="181" y="0" on="1"/>
        <pt x="15" y="-5" on="1"/>
        <pt x="23" y="80" on="1"/>
        <pt x="63" y="89" on="0"/>
        <pt x="88" y="121" on="0"/>
        <pt x="88" y="162" on="1"/>
        <pt x="88" y="508" on="1"/>
        <pt x="88" y="539" on="0"/>
        <pt x="74" y="559" on="0"/>
        <pt x="53" y="559" on="1"/>
        <pt x="27" y="558" on="1"/>
        <pt x="18" y="572" on="1"/>
        <pt x="26" y="647" on="1"/>
        <pt x="187" y="647" on="1"/>
        <pt x="359" y="652" on="1"/>
        <pt x="352" y="562" on="1"/>
        <pt x="318" y="557" on="0"/>
        <pt x="297" y="538" on="0"/>
        <pt x="295" y="510" on="1"/>
        <pt x="285" y="353" on="0"/>
      </contour>
    </TTGlyph>
    <TTGlyph name="IJ" xMin="15" yMin="-164" xMax="712" yMax="655">
      <contour>
        <pt x="285" y="156" on="1"/>
        <pt x="285" y="114" on="0"/>
        <pt x="298" y="87" on="0"/>
        <pt x="317" y="87" on="1"/>
        <pt x="349" y="90" on="1"/>
        <pt x="357" y="80" on="1"/>
        <pt x="348" y="-4" on="1"/>
        <pt x="223" y="0" on="0"/>
        <pt x="181" y="0" on="1"/>
        <pt x="15" y="-5" on="1"/>
        <pt x="23" y="80" on="1"/>
        <pt x="63" y="89" on="0"/>
        <pt x="88" y="121" on="0"/>
        <pt x="88" y="162" on="1"/>
        <pt x="88" y="508" on="1"/>
        <pt x="88" y="539" on="0"/>
        <pt x="74" y="559" on="0"/>
        <pt x="53" y="559" on="1"/>
        <pt x="27" y="558" on="1"/>
        <pt x="18" y="572" on="1"/>
        <pt x="26" y="647" on="1"/>
        <pt x="187" y="647" on="1"/>
        <pt x="359" y="652" on="1"/>
        <pt x="352" y="562" on="1"/>
        <pt x="318" y="557" on="0"/>
        <pt x="297" y="538" on="0"/>
        <pt x="295" y="510" on="1"/>
        <pt x="285" y="353" on="0"/>
      </contour>
      <contour>
        <pt x="450" y="132" on="1"/>
        <pt x="450" y="508" on="1"/>
        <pt x="450" y="539" on="0"/>
        <pt x="437" y="559" on="0"/>
        <pt x="418" y="559" on="1"/>
        <pt x="382" y="557" on="1"/>
        <pt x="373" y="571" on="1"/>
        <pt x="381" y="647" on="1"/>
        <pt x="522" y="648" on="1"/>
        <pt x="712" y="655" on="1"/>
        <pt x="704" y="562" on="1"/>
        <pt x="675" y="555" on="0"/>
        <pt x="659" y="538" on="0"/>
        <pt x="657" y="510" on="1"/>
        <pt x="645" y="326" on="0"/>
        <pt x="645" y="85" on="1"/>
        <pt x="645" y="-11" on="0"/>
        <pt x="530" y="-131" on="0"/>
        <pt x="405" y="-164" on="1"/>
        <pt x="365" y="-116" on="1"/>
        <pt x="367" y="-101" on="1"/>
        <pt x="418" y="-54" on="0"/>
        <pt x="450" y="35" on="0"/>
      </contour>
    </TTGlyph>
    <TTGlyph name="Iacute" xMin="15" yMin="-5" xMax="376" yMax="875">
      <contour>
        <pt x="285" y="156" on="1"/>
        <pt x="285" y="114" on="0"/>
        <pt x="298" y="87" on="0"/>
        <pt x="317" y="87" on="1"/>
        <pt x="349" y="90" on="1"/>
        <pt x="357" y="80" on="1"/>
        <pt x="348" y="-4" on="1"/>
        <pt x="223" y="0" on="0"/>
        <pt x="181" y="0" on="1"/>
        <pt x="15" y="-5" on="1"/>
        <pt x="23" y="80" on="1"/>
        <pt x="63" y="89" on="0"/>
        <pt x="88" y="121" on="0"/>
        <pt x="88" y="162" on="1"/>
        <pt x="88" y="508" on="1"/>
        <pt x="88" y="539" on="0"/>
        <pt x="74" y="559" on="0"/>
        <pt x="53" y="559" on="1"/>
        <pt x="27" y="558" on="1"/>
        <pt x="18" y="572" on="1"/>
        <pt x="26" y="647" on="1"/>
        <pt x="187" y="647" on="1"/>
        <pt x="359" y="652" on="1"/>
        <pt x="352" y="562" on="1"/>
        <pt x="318" y="557" on="0"/>
        <pt x="297" y="538" on="0"/>
        <pt x="295" y="510" on="1"/>
        <pt x="285" y="353" on="0"/>
      </contour>
      <contour>
        <pt x="376" y="762" on="1"/>
        <pt x="369" y="746" on="1"/>
        <pt x="239" y="722" on="0"/>
        <pt x="115" y="691" on="1"/>
        <pt x="96" y="704" on="1"/>
        <pt x="75" y="775" on="1"/>
        <pt x="178" y="813" on="0"/>
        <pt x="324" y="875" on="1"/>
        <pt x="340" y="870" on="1"/>
      </contour>
    </TTGlyph>
    <TTGlyph name="Ibreve" xMin="10" yMin="-5" xMax="366" yMax="905">
      <contour>
        <pt x="285" y="156" on="1"/>
        <pt x="285" y="114" on="0"/>
        <pt x="298" y="87" on="0"/>
        <pt x="317" y="87" on="1"/>
        <pt x="349" y="90" on="1"/>
        <pt x="357" y="80" on="1"/>
        <pt x="348" y="-4" on="1"/>
        <pt x="223" y="0" on="0"/>
        <pt x="181" y="0" on="1"/>
        <pt x="15" y="-5" on="1"/>
        <pt x="23" y="80" on="1"/>
        <pt x="63" y="89" on="0"/>
        <pt x="88" y="121" on="0"/>
        <pt x="88" y="162" on="1"/>
        <pt x="88" y="508" on="1"/>
        <pt x="88" y="539" on="0"/>
        <pt x="74" y="559" on="0"/>
        <pt x="53" y="559" on="1"/>
        <pt x="27" y="558" on="1"/>
        <pt x="18" y="572" on="1"/>
        <pt x="26" y="647" on="1"/>
        <pt x="187" y="647" on="1"/>
        <pt x="359" y="652" on="1"/>
        <pt x="352" y="562" on="1"/>
        <pt x="318" y="557" on="0"/>
        <pt x="297" y="538" on="0"/>
        <pt x="295" y="510" on="1"/>
        <pt x="285" y="353" on="0"/>
      </contour>
      <contour>
        <pt x="107" y="835" on="0"/>
        <pt x="269" y="835" on="0"/>
        <pt x="299" y="905" on="1"/>
        <pt x="326" y="898" on="1"/>
        <pt x="366" y="836" on="1"/>
        <pt x="348" y="778" on="0"/>
        <pt x="259" y="700" on="0"/>
        <pt x="117" y="700" on="0"/>
        <pt x="28" y="778" on="0"/>
        <pt x="10" y="836" on="1"/>
        <pt x="50" y="898" on="1"/>
        <pt x="77" y="905" on="1"/>
      </contour>
    </TTGlyph>
    <TTGlyph name="Icircumflex" xMin="-1" yMin="-5" xMax="379" yMax="908">
      <contour>
        <pt x="285" y="156" on="1"/>
        <pt x="285" y="114" on="0"/>
        <pt x="298" y="87" on="0"/>
        <pt x="317" y="87" on="1"/>
        <pt x="349" y="90" on="1"/>
        <pt x="357" y="80" on="1"/>
        <pt x="348" y="-4" on="1"/>
        <pt x="223" y="0" on="0"/>
        <pt x="181" y="0" on="1"/>
        <pt x="15" y="-5" on="1"/>
        <pt x="23" y="80" on="1"/>
        <pt x="63" y="89" on="0"/>
        <pt x="88" y="121" on="0"/>
        <pt x="88" y="162" on="1"/>
        <pt x="88" y="508" on="1"/>
        <pt x="88" y="539" on="0"/>
        <pt x="74" y="559" on="0"/>
        <pt x="53" y="559" on="1"/>
        <pt x="27" y="558" on="1"/>
        <pt x="18" y="572" on="1"/>
        <pt x="26" y="647" on="1"/>
        <pt x="187" y="647" on="1"/>
        <pt x="359" y="652" on="1"/>
        <pt x="352" y="562" on="1"/>
        <pt x="318" y="557" on="0"/>
        <pt x="297" y="538" on="0"/>
        <pt x="295" y="510" on="1"/>
        <pt x="285" y="353" on="0"/>
      </contour>
      <contour>
        <pt x="203" y="908" on="1"/>
        <pt x="203" y="911" on="0"/>
        <pt x="228" y="891" on="1"/>
        <pt x="327" y="810" on="0"/>
        <pt x="379" y="770" on="1"/>
        <pt x="344" y="708" on="1"/>
        <pt x="321" y="701" on="1"/>
        <pt x="274" y="721" on="0"/>
        <pt x="189" y="752" on="1"/>
        <pt x="137" y="733" on="0"/>
        <pt x="58" y="701" on="1"/>
        <pt x="35" y="708" on="1"/>
        <pt x="-1" y="770" on="1"/>
        <pt x="82" y="830" on="0"/>
        <pt x="176" y="908" on="1"/>
      </contour>
    </TTGlyph>
    <TTGlyph name="Idieresis" xMin="9" yMin="-5" xMax="366" yMax="852">
      <contour>
        <pt x="285" y="156" on="1"/>
        <pt x="285" y="114" on="0"/>
        <pt x="298" y="87" on="0"/>
        <pt x="317" y="87" on="1"/>
        <pt x="349" y="90" on="1"/>
        <pt x="357" y="80" on="1"/>
        <pt x="348" y="-4" on="1"/>
        <pt x="223" y="0" on="0"/>
        <pt x="181" y="0" on="1"/>
        <pt x="15" y="-5" on="1"/>
        <pt x="23" y="80" on="1"/>
        <pt x="63" y="89" on="0"/>
        <pt x="88" y="121" on="0"/>
        <pt x="88" y="162" on="1"/>
        <pt x="88" y="508" on="1"/>
        <pt x="88" y="539" on="0"/>
        <pt x="74" y="559" on="0"/>
        <pt x="53" y="559" on="1"/>
        <pt x="27" y="558" on="1"/>
        <pt x="18" y="572" on="1"/>
        <pt x="26" y="647" on="1"/>
        <pt x="187" y="647" on="1"/>
        <pt x="359" y="652" on="1"/>
        <pt x="352" y="562" on="1"/>
        <pt x="318" y="557" on="0"/>
        <pt x="297" y="538" on="0"/>
        <pt x="295" y="510" on="1"/>
        <pt x="285" y="353" on="0"/>
      </contour>
      <contour>
        <pt x="281" y="685" on="1"/>
        <pt x="201" y="685" on="0"/>
        <pt x="201" y="765" on="1"/>
        <pt x="201" y="805" on="0"/>
        <pt x="247" y="852" on="0"/>
        <pt x="325" y="852" on="0"/>
        <pt x="366" y="810" on="0"/>
        <pt x="366" y="732" on="0"/>
        <pt x="320" y="685" on="0"/>
      </contour>
      <contour>
        <pt x="88" y="685" on="1"/>
        <pt x="9" y="685" on="0"/>
        <pt x="9" y="765" on="1"/>
        <pt x="9" y="805" on="0"/>
        <pt x="55" y="852" on="0"/>
        <pt x="133" y="852" on="0"/>
        <pt x="174" y="810" on="0"/>
        <pt x="174" y="732" on="0"/>
        <pt x="128" y="685" on="0"/>
      </contour>
    </TTGlyph>
    <TTGlyph name="Idotaccent" xMin="15" yMin="-5" xMax="359" yMax="882">
      <contour>
        <pt x="285" y="156" on="1"/>
        <pt x="285" y="114" on="0"/>
        <pt x="298" y="87" on="0"/>
        <pt x="317" y="87" on="1"/>
        <pt x="349" y="90" on="1"/>
        <pt x="357" y="80" on="1"/>
        <pt x="348" y="-4" on="1"/>
        <pt x="223" y="0" on="0"/>
        <pt x="181" y="0" on="1"/>
        <pt x="15" y="-5" on="1"/>
        <pt x="23" y="80" on="1"/>
        <pt x="63" y="89" on="0"/>
        <pt x="88" y="121" on="0"/>
        <pt x="88" y="162" on="1"/>
        <pt x="88" y="508" on="1"/>
        <pt x="88" y="539" on="0"/>
        <pt x="74" y="559" on="0"/>
        <pt x="53" y="559" on="1"/>
        <pt x="27" y="558" on="1"/>
        <pt x="18" y="572" on="1"/>
        <pt x="26" y="647" on="1"/>
        <pt x="187" y="647" on="1"/>
        <pt x="359" y="652" on="1"/>
        <pt x="352" y="562" on="1"/>
        <pt x="318" y="557" on="0"/>
        <pt x="297" y="538" on="0"/>
        <pt x="295" y="510" on="1"/>
        <pt x="285" y="353" on="0"/>
      </contour>
      <contour>
        <pt x="287" y="739" on="0"/>
        <pt x="233" y="683" on="0"/>
        <pt x="140" y="683" on="0"/>
        <pt x="92" y="732" on="0"/>
        <pt x="92" y="826" on="0"/>
        <pt x="147" y="882" on="0"/>
        <pt x="238" y="882" on="0"/>
        <pt x="287" y="832" on="0"/>
      </contour>
    </TTGlyph>
    <TTGlyph name="Igrave" xMin="4" yMin="-5" xMax="359" yMax="875">
      <contour>
        <pt x="285" y="156" on="1"/>
        <pt x="285" y="114" on="0"/>
        <pt x="298" y="87" on="0"/>
        <pt x="317" y="87" on="1"/>
        <pt x="349" y="90" on="1"/>
        <pt x="357" y="80" on="1"/>
        <pt x="348" y="-4" on="1"/>
        <pt x="223" y="0" on="0"/>
        <pt x="181" y="0" on="1"/>
        <pt x="15" y="-5" on="1"/>
        <pt x="23" y="80" on="1"/>
        <pt x="63" y="89" on="0"/>
        <pt x="88" y="121" on="0"/>
        <pt x="88" y="162" on="1"/>
        <pt x="88" y="508" on="1"/>
        <pt x="88" y="539" on="0"/>
        <pt x="74" y="559" on="0"/>
        <pt x="53" y="559" on="1"/>
        <pt x="27" y="558" on="1"/>
        <pt x="18" y="572" on="1"/>
        <pt x="26" y="647" on="1"/>
        <pt x="187" y="647" on="1"/>
        <pt x="359" y="652" on="1"/>
        <pt x="352" y="562" on="1"/>
        <pt x="318" y="557" on="0"/>
        <pt x="297" y="538" on="0"/>
        <pt x="295" y="510" on="1"/>
        <pt x="285" y="353" on="0"/>
      </contour>
      <contour>
        <pt x="11" y="746" on="1"/>
        <pt x="4" y="762" on="1"/>
        <pt x="40" y="870" on="1"/>
        <pt x="56" y="875" on="1"/>
        <pt x="182" y="821" on="0"/>
        <pt x="305" y="775" on="1"/>
        <pt x="284" y="704" on="1"/>
        <pt x="265" y="691" on="1"/>
        <pt x="172" y="715" on="0"/>
      </contour>
    </TTGlyph>
    <TTGlyph name="Imacron" xMin="15" yMin="-5" xMax="359" yMax="823">
      <contour>
        <pt x="285" y="156" on="1"/>
        <pt x="285" y="114" on="0"/>
        <pt x="298" y="87" on="0"/>
        <pt x="317" y="87" on="1"/>
        <pt x="349" y="90" on="1"/>
        <pt x="357" y="80" on="1"/>
        <pt x="348" y="-4" on="1"/>
        <pt x="223" y="0" on="0"/>
        <pt x="181" y="0" on="1"/>
        <pt x="15" y="-5" on="1"/>
        <pt x="23" y="80" on="1"/>
        <pt x="63" y="89" on="0"/>
        <pt x="88" y="121" on="0"/>
        <pt x="88" y="162" on="1"/>
        <pt x="88" y="508" on="1"/>
        <pt x="88" y="539" on="0"/>
        <pt x="74" y="559" on="0"/>
        <pt x="53" y="559" on="1"/>
        <pt x="27" y="558" on="1"/>
        <pt x="18" y="572" on="1"/>
        <pt x="26" y="647" on="1"/>
        <pt x="187" y="647" on="1"/>
        <pt x="359" y="652" on="1"/>
        <pt x="352" y="562" on="1"/>
        <pt x="318" y="557" on="0"/>
        <pt x="297" y="538" on="0"/>
        <pt x="295" y="510" on="1"/>
        <pt x="285" y="353" on="0"/>
      </contour>
      <contour>
        <pt x="335" y="823" on="1"/>
        <pt x="346" y="805" on="1"/>
        <pt x="328" y="696" on="1"/>
        <pt x="54" y="694" on="1"/>
        <pt x="38" y="709" on="1"/>
        <pt x="57" y="818" on="1"/>
        <pt x="152" y="817" on="0"/>
        <pt x="211" y="817" on="1"/>
      </contour>
    </TTGlyph>
    <TTGlyph name="Iogonek" xMin="15" yMin="-242" xMax="363" yMax="652">
      <contour>
        <pt x="199" y="-242" on="0"/>
        <pt x="130" y="-194" on="0"/>
        <pt x="130" y="-121" on="0"/>
        <pt x="169" y="-53" on="0"/>
        <pt x="218" y="0" on="1"/>
        <pt x="181" y="0" on="1"/>
        <pt x="15" y="-5" on="1"/>
        <pt x="23" y="80" on="1"/>
        <pt x="63" y="89" on="0"/>
        <pt x="88" y="121" on="0"/>
        <pt x="88" y="162" on="1"/>
        <pt x="88" y="508" on="1"/>
        <pt x="88" y="539" on="0"/>
        <pt x="74" y="559" on="0"/>
        <pt x="53" y="559" on="1"/>
        <pt x="27" y="558" on="1"/>
        <pt x="18" y="572" on="1"/>
        <pt x="26" y="647" on="1"/>
        <pt x="187" y="647" on="1"/>
        <pt x="359" y="652" on="1"/>
        <pt x="352" y="562" on="1"/>
        <pt x="318" y="557" on="0"/>
        <pt x="297" y="538" on="0"/>
        <pt x="295" y="510" on="1"/>
        <pt x="285" y="353" on="0"/>
        <pt x="285" y="156" on="1"/>
        <pt x="285" y="114" on="0"/>
        <pt x="298" y="87" on="0"/>
        <pt x="317" y="87" on="1"/>
        <pt x="349" y="90" on="1"/>
        <pt x="357" y="80" on="1"/>
        <pt x="348" y="-4" on="1"/>
        <pt x="321" y="-3" on="0"/>
        <pt x="292" y="-2" on="1"/>
        <pt x="231" y="-83" on="0"/>
        <pt x="231" y="-116" on="1"/>
        <pt x="231" y="-135" on="0"/>
        <pt x="253" y="-157" on="0"/>
        <pt x="269" y="-157" on="1"/>
        <pt x="296" y="-157" on="0"/>
        <pt x="338" y="-132" on="1"/>
        <pt x="363" y="-171" on="1"/>
        <pt x="307" y="-224" on="0"/>
        <pt x="259" y="-242" on="1"/>
      </contour>
    </TTGlyph>
    <TTGlyph name="Itilde" xMin="-11" yMin="-5" xMax="383" yMax="913">
      <contour>
        <pt x="285" y="156" on="1"/>
        <pt x="285" y="114" on="0"/>
        <pt x="298" y="87" on="0"/>
        <pt x="317" y="87" on="1"/>
        <pt x="349" y="90" on="1"/>
        <pt x="357" y="80" on="1"/>
        <pt x="348" y="-4" on="1"/>
        <pt x="223" y="0" on="0"/>
        <pt x="181" y="0" on="1"/>
        <pt x="15" y="-5" on="1"/>
        <pt x="23" y="80" on="1"/>
        <pt x="63" y="89" on="0"/>
        <pt x="88" y="121" on="0"/>
        <pt x="88" y="162" on="1"/>
        <pt x="88" y="508" on="1"/>
        <pt x="88" y="539" on="0"/>
        <pt x="74" y="559" on="0"/>
        <pt x="53" y="559" on="1"/>
        <pt x="27" y="558" on="1"/>
        <pt x="18" y="572" on="1"/>
        <pt x="26" y="647" on="1"/>
        <pt x="187" y="647" on="1"/>
        <pt x="359" y="652" on="1"/>
        <pt x="352" y="562" on="1"/>
        <pt x="318" y="557" on="0"/>
        <pt x="297" y="538" on="0"/>
        <pt x="295" y="510" on="1"/>
        <pt x="285" y="353" on="0"/>
      </contour>
      <contour>
        <pt x="105" y="889" on="0"/>
        <pt x="227" y="855" on="0"/>
        <pt x="240" y="855" on="1"/>
        <pt x="262" y="855" on="0"/>
        <pt x="296" y="898" on="1"/>
        <pt x="308" y="913" on="1"/>
        <pt x="324" y="913" on="1"/>
        <pt x="383" y="859" on="1"/>
        <pt x="383" y="843" on="1"/>
        <pt x="302" y="728" on="1"/>
        <pt x="285" y="724" on="1"/>
        <pt x="267" y="724" on="0"/>
        <pt x="145" y="758" on="0"/>
        <pt x="120" y="758" on="0"/>
        <pt x="86" y="729" on="0"/>
        <pt x="64" y="700" on="1"/>
        <pt x="48" y="700" on="1"/>
        <pt x="-11" y="754" on="1"/>
        <pt x="-11" y="770" on="1"/>
        <pt x="70" y="885" on="1"/>
        <pt x="87" y="889" on="1"/>
      </contour>
    </TTGlyph>
    <TTGlyph name="J" xMin="-5" yMin="-164" xMax="342" yMax="655">
      <contour>
        <pt x="80" y="132" on="1"/>
        <pt x="80" y="508" on="1"/>
        <pt x="80" y="539" on="0"/>
        <pt x="67" y="559" on="0"/>
        <pt x="48" y="559" on="1"/>
        <pt x="12" y="557" on="1"/>
        <pt x="3" y="571" on="1"/>
        <pt x="11" y="647" on="1"/>
        <pt x="152" y="648" on="1"/>
        <pt x="342" y="655" on="1"/>
        <pt x="334" y="562" on="1"/>
        <pt x="305" y="555" on="0"/>
        <pt x="289" y="538" on="0"/>
        <pt x="287" y="510" on="1"/>
        <pt x="275" y="326" on="0"/>
        <pt x="275" y="85" on="1"/>
        <pt x="275" y="-11" on="0"/>
        <pt x="160" y="-131" on="0"/>
        <pt x="35" y="-164" on="1"/>
        <pt x="-5" y="-116" on="1"/>
        <pt x="-3" y="-101" on="1"/>
        <pt x="48" y="-54" on="0"/>
        <pt x="80" y="35" on="0"/>
      </contour>
    </TTGlyph>
    <TTGlyph name="Jcircumflex" xMin="-7" yMin="-164" xMax="353" yMax="934">
      <contour>
        <pt x="80" y="132" on="1"/>
        <pt x="80" y="508" on="1"/>
        <pt x="80" y="539" on="0"/>
        <pt x="67" y="559" on="0"/>
        <pt x="48" y="559" on="1"/>
        <pt x="12" y="557" on="1"/>
        <pt x="3" y="571" on="1"/>
        <pt x="11" y="647" on="1"/>
        <pt x="152" y="648" on="1"/>
        <pt x="342" y="655" on="1"/>
        <pt x="334" y="562" on="1"/>
        <pt x="305" y="555" on="0"/>
        <pt x="289" y="538" on="0"/>
        <pt x="287" y="510" on="1"/>
        <pt x="275" y="326" on="0"/>
        <pt x="275" y="85" on="1"/>
        <pt x="275" y="-11" on="0"/>
        <pt x="160" y="-131" on="0"/>
        <pt x="35" y="-164" on="1"/>
        <pt x="-5" y="-116" on="1"/>
        <pt x="-3" y="-101" on="1"/>
        <pt x="48" y="-54" on="0"/>
        <pt x="80" y="35" on="0"/>
      </contour>
      <contour>
        <pt x="39" y="716" on="1"/>
        <pt x="-7" y="778" on="1"/>
        <pt x="73" y="849" on="0"/>
        <pt x="160" y="934" on="1"/>
        <pt x="187" y="934" on="1"/>
        <pt x="275" y="847" on="0"/>
        <pt x="353" y="778" on="1"/>
        <pt x="308" y="716" on="1"/>
        <pt x="285" y="709" on="1"/>
        <pt x="247" y="735" on="0"/>
        <pt x="173" y="778" on="1"/>
        <pt x="105" y="739" on="0"/>
        <pt x="62" y="709" on="1"/>
      </contour>
    </TTGlyph>
    <TTGlyph name="K" xMin="15" yMin="-16" xMax="694" yMax="652">
      <contour>
        <pt x="88" y="162" on="1"/>
        <pt x="88" y="508" on="1"/>
        <pt x="88" y="539" on="0"/>
        <pt x="74" y="559" on="0"/>
        <pt x="53" y="559" on="1"/>
        <pt x="27" y="558" on="1"/>
        <pt x="18" y="572" on="1"/>
        <pt x="27" y="648" on="1"/>
        <pt x="169" y="647" on="0"/>
        <pt x="187" y="647" on="1"/>
        <pt x="359" y="652" on="1"/>
        <pt x="352" y="562" on="1"/>
        <pt x="315" y="553" on="0"/>
        <pt x="293" y="532" on="0"/>
        <pt x="292" y="506" on="1"/>
        <pt x="285" y="149" on="0"/>
        <pt x="285" y="112" on="0"/>
        <pt x="297" y="87" on="0"/>
        <pt x="317" y="87" on="1"/>
        <pt x="349" y="90" on="1"/>
        <pt x="357" y="80" on="1"/>
        <pt x="348" y="-4" on="1"/>
        <pt x="223" y="0" on="0"/>
        <pt x="181" y="0" on="1"/>
        <pt x="15" y="-5" on="1"/>
        <pt x="23" y="80" on="1"/>
        <pt x="63" y="88" on="0"/>
        <pt x="88" y="120" on="0"/>
      </contour>
      <contour>
        <pt x="411" y="480" on="1"/>
        <pt x="432" y="501" on="0"/>
        <pt x="432" y="543" on="0"/>
        <pt x="414" y="557" on="0"/>
        <pt x="391" y="558" on="1"/>
        <pt x="385" y="568" on="1"/>
        <pt x="394" y="650" on="1"/>
        <pt x="491" y="647" on="0"/>
        <pt x="537" y="647" on="1"/>
        <pt x="681" y="652" on="1"/>
        <pt x="690" y="637" on="1"/>
        <pt x="681" y="562" on="1"/>
        <pt x="610" y="522" on="0"/>
        <pt x="534" y="415" on="1"/>
        <pt x="492" y="356" on="1"/>
        <pt x="586" y="174" on="1"/>
        <pt x="609" y="130" on="0"/>
        <pt x="653" y="88" on="0"/>
        <pt x="684" y="84" on="1"/>
        <pt x="694" y="69" on="1"/>
        <pt x="683" y="-5" on="1"/>
        <pt x="555" y="-16" on="0"/>
        <pt x="491" y="-16" on="0"/>
        <pt x="443" y="19" on="0"/>
        <pt x="420" y="65" on="1"/>
        <pt x="294" y="317" on="1"/>
        <pt x="299" y="347" on="1"/>
      </contour>
    </TTGlyph>
    <TTGlyph name="Kcommaaccent" xMin="15" yMin="-345" xMax="694" yMax="652">
      <contour>
        <pt x="88" y="162" on="1"/>
        <pt x="88" y="508" on="1"/>
        <pt x="88" y="539" on="0"/>
        <pt x="74" y="559" on="0"/>
        <pt x="53" y="559" on="1"/>
        <pt x="27" y="558" on="1"/>
        <pt x="18" y="572" on="1"/>
        <pt x="27" y="648" on="1"/>
        <pt x="169" y="647" on="0"/>
        <pt x="187" y="647" on="1"/>
        <pt x="359" y="652" on="1"/>
        <pt x="352" y="562" on="1"/>
        <pt x="315" y="553" on="0"/>
        <pt x="293" y="532" on="0"/>
        <pt x="292" y="506" on="1"/>
        <pt x="285" y="149" on="0"/>
        <pt x="285" y="112" on="0"/>
        <pt x="297" y="87" on="0"/>
        <pt x="317" y="87" on="1"/>
        <pt x="349" y="90" on="1"/>
        <pt x="357" y="80" on="1"/>
        <pt x="348" y="-4" on="1"/>
        <pt x="223" y="0" on="0"/>
        <pt x="181" y="0" on="1"/>
        <pt x="15" y="-5" on="1"/>
        <pt x="23" y="80" on="1"/>
        <pt x="63" y="88" on="0"/>
        <pt x="88" y="120" on="0"/>
      </contour>
      <contour>
        <pt x="411" y="480" on="1"/>
        <pt x="432" y="501" on="0"/>
        <pt x="432" y="543" on="0"/>
        <pt x="414" y="557" on="0"/>
        <pt x="391" y="558" on="1"/>
        <pt x="385" y="568" on="1"/>
        <pt x="394" y="650" on="1"/>
        <pt x="491" y="647" on="0"/>
        <pt x="537" y="647" on="1"/>
        <pt x="681" y="652" on="1"/>
        <pt x="690" y="637" on="1"/>
        <pt x="681" y="562" on="1"/>
        <pt x="610" y="522" on="0"/>
        <pt x="534" y="415" on="1"/>
        <pt x="492" y="356" on="1"/>
        <pt x="586" y="174" on="1"/>
        <pt x="609" y="130" on="0"/>
        <pt x="653" y="88" on="0"/>
        <pt x="684" y="84" on="1"/>
        <pt x="694" y="69" on="1"/>
        <pt x="683" y="-5" on="1"/>
        <pt x="555" y="-16" on="0"/>
        <pt x="491" y="-16" on="0"/>
        <pt x="443" y="19" on="0"/>
        <pt x="420" y="65" on="1"/>
        <pt x="294" y="317" on="1"/>
        <pt x="299" y="347" on="1"/>
      </contour>
      <contour>
        <pt x="275" y="-78" on="1"/>
        <pt x="332" y="-34" on="0"/>
        <pt x="415" y="-34" on="0"/>
        <pt x="462" y="-89" on="0"/>
        <pt x="462" y="-188" on="0"/>
        <pt x="372" y="-301" on="0"/>
        <pt x="295" y="-345" on="1"/>
        <pt x="237" y="-299" on="1"/>
        <pt x="237" y="-274" on="1"/>
        <pt x="266" y="-253" on="0"/>
        <pt x="301" y="-195" on="0"/>
        <pt x="301" y="-124" on="0"/>
        <pt x="272" y="-92" on="1"/>
      </contour>
    </TTGlyph>
    <TTGlyph name="L" xMin="13" yMin="-10" xMax="557" yMax="652">
      <contour>
        <pt x="518" y="-7" on="1"/>
        <pt x="367" y="0" on="0"/>
        <pt x="272" y="0" on="1"/>
        <pt x="133" y="0" on="0"/>
        <pt x="13" y="-10" on="1"/>
        <pt x="22" y="82" on="1"/>
        <pt x="60" y="88" on="0"/>
        <pt x="87" y="125" on="0"/>
        <pt x="87" y="170" on="1"/>
        <pt x="87" y="508" on="1"/>
        <pt x="87" y="539" on="0"/>
        <pt x="73" y="559" on="0"/>
        <pt x="52" y="559" on="1"/>
        <pt x="26" y="558" on="1"/>
        <pt x="17" y="572" on="1"/>
        <pt x="25" y="647" on="1"/>
        <pt x="186" y="647" on="1"/>
        <pt x="393" y="652" on="1"/>
        <pt x="382" y="554" on="1"/>
        <pt x="330" y="549" on="0"/>
        <pt x="295" y="528" on="0"/>
        <pt x="294" y="502" on="1"/>
        <pt x="284" y="352" on="0"/>
        <pt x="284" y="158" on="1"/>
        <pt x="284" y="135" on="0"/>
        <pt x="301" y="115" on="0"/>
        <pt x="321" y="115" on="1"/>
        <pt x="374" y="115" on="0"/>
        <pt x="412" y="178" on="0"/>
        <pt x="417" y="278" on="1"/>
        <pt x="545" y="291" on="1"/>
        <pt x="557" y="276" on="1"/>
        <pt x="542" y="148" on="0"/>
        <pt x="533" y="9" on="1"/>
      </contour>
    </TTGlyph>
    <TTGlyph name="Lacute" xMin="13" yMin="-10" xMax="557" yMax="875">
      <contour>
        <pt x="518" y="-7" on="1"/>
        <pt x="367" y="0" on="0"/>
        <pt x="272" y="0" on="1"/>
        <pt x="133" y="0" on="0"/>
        <pt x="13" y="-10" on="1"/>
        <pt x="22" y="82" on="1"/>
        <pt x="60" y="88" on="0"/>
        <pt x="87" y="125" on="0"/>
        <pt x="87" y="170" on="1"/>
        <pt x="87" y="508" on="1"/>
        <pt x="87" y="539" on="0"/>
        <pt x="73" y="559" on="0"/>
        <pt x="52" y="559" on="1"/>
        <pt x="26" y="558" on="1"/>
        <pt x="17" y="572" on="1"/>
        <pt x="25" y="647" on="1"/>
        <pt x="186" y="647" on="1"/>
        <pt x="393" y="652" on="1"/>
        <pt x="382" y="554" on="1"/>
        <pt x="330" y="549" on="0"/>
        <pt x="295" y="528" on="0"/>
        <pt x="294" y="502" on="1"/>
        <pt x="284" y="352" on="0"/>
        <pt x="284" y="158" on="1"/>
        <pt x="284" y="135" on="0"/>
        <pt x="301" y="115" on="0"/>
        <pt x="321" y="115" on="1"/>
        <pt x="374" y="115" on="0"/>
        <pt x="412" y="178" on="0"/>
        <pt x="417" y="278" on="1"/>
        <pt x="545" y="291" on="1"/>
        <pt x="557" y="276" on="1"/>
        <pt x="542" y="148" on="0"/>
        <pt x="533" y="9" on="1"/>
      </contour>
      <contour>
        <pt x="379" y="762" on="1"/>
        <pt x="372" y="746" on="1"/>
        <pt x="242" y="722" on="0"/>
        <pt x="118" y="691" on="1"/>
        <pt x="99" y="704" on="1"/>
        <pt x="78" y="775" on="1"/>
        <pt x="181" y="813" on="0"/>
        <pt x="327" y="875" on="1"/>
        <pt x="343" y="870" on="1"/>
      </contour>
    </TTGlyph>
    <TTGlyph name="Lcaron" xMin="13" yMin="-10" xMax="574" yMax="652">
      <contour>
        <pt x="440" y="395" on="1"/>
        <pt x="440" y="410" on="0"/>
        <pt x="440" y="438" on="1"/>
        <pt x="440" y="510" on="0"/>
        <pt x="431" y="633" on="1"/>
        <pt x="565" y="647" on="1"/>
        <pt x="574" y="635" on="1"/>
        <pt x="558" y="526" on="0"/>
        <pt x="532" y="414" on="1"/>
        <pt x="459" y="389" on="1"/>
      </contour>
      <contour>
        <pt x="518" y="-7" on="1"/>
        <pt x="367" y="0" on="0"/>
        <pt x="272" y="0" on="1"/>
        <pt x="133" y="0" on="0"/>
        <pt x="13" y="-10" on="1"/>
        <pt x="22" y="82" on="1"/>
        <pt x="60" y="88" on="0"/>
        <pt x="87" y="125" on="0"/>
        <pt x="87" y="170" on="1"/>
        <pt x="87" y="508" on="1"/>
        <pt x="87" y="539" on="0"/>
        <pt x="73" y="559" on="0"/>
        <pt x="52" y="559" on="1"/>
        <pt x="26" y="558" on="1"/>
        <pt x="17" y="572" on="1"/>
        <pt x="25" y="647" on="1"/>
        <pt x="186" y="647" on="1"/>
        <pt x="393" y="652" on="1"/>
        <pt x="382" y="554" on="1"/>
        <pt x="330" y="549" on="0"/>
        <pt x="295" y="528" on="0"/>
        <pt x="294" y="502" on="1"/>
        <pt x="284" y="352" on="0"/>
        <pt x="284" y="158" on="1"/>
        <pt x="284" y="135" on="0"/>
        <pt x="301" y="115" on="0"/>
        <pt x="321" y="115" on="1"/>
        <pt x="374" y="115" on="0"/>
        <pt x="412" y="178" on="0"/>
        <pt x="417" y="278" on="1"/>
        <pt x="545" y="291" on="1"/>
        <pt x="557" y="276" on="1"/>
        <pt x="542" y="148" on="0"/>
        <pt x="533" y="9" on="1"/>
      </contour>
    </TTGlyph>
    <TTGlyph name="Lcommaaccent" xMin="13" yMin="-345" xMax="557" yMax="652">
      <contour>
        <pt x="518" y="-7" on="1"/>
        <pt x="367" y="0" on="0"/>
        <pt x="272" y="0" on="1"/>
        <pt x="133" y="0" on="0"/>
        <pt x="13" y="-10" on="1"/>
        <pt x="22" y="82" on="1"/>
        <pt x="60" y="88" on="0"/>
        <pt x="87" y="125" on="0"/>
        <pt x="87" y="170" on="1"/>
        <pt x="87" y="508" on="1"/>
        <pt x="87" y="539" on="0"/>
        <pt x="73" y="559" on="0"/>
        <pt x="52" y="559" on="1"/>
        <pt x="26" y="558" on="1"/>
        <pt x="17" y="572" on="1"/>
        <pt x="25" y="647" on="1"/>
        <pt x="186" y="647" on="1"/>
        <pt x="393" y="652" on="1"/>
        <pt x="382" y="554" on="1"/>
        <pt x="330" y="549" on="0"/>
        <pt x="295" y="528" on="0"/>
        <pt x="294" y="502" on="1"/>
        <pt x="284" y="352" on="0"/>
        <pt x="284" y="158" on="1"/>
        <pt x="284" y="135" on="0"/>
        <pt x="301" y="115" on="0"/>
        <pt x="321" y="115" on="1"/>
        <pt x="374" y="115" on="0"/>
        <pt x="412" y="178" on="0"/>
        <pt x="417" y="278" on="1"/>
        <pt x="545" y="291" on="1"/>
        <pt x="557" y="276" on="1"/>
        <pt x="542" y="148" on="0"/>
        <pt x="533" y="9" on="1"/>
      </contour>
      <contour>
        <pt x="190" y="-78" on="1"/>
        <pt x="247" y="-34" on="0"/>
        <pt x="330" y="-34" on="0"/>
        <pt x="377" y="-89" on="0"/>
        <pt x="377" y="-188" on="0"/>
        <pt x="287" y="-301" on="0"/>
        <pt x="210" y="-345" on="1"/>
        <pt x="152" y="-299" on="1"/>
        <pt x="152" y="-274" on="1"/>
        <pt x="181" y="-253" on="0"/>
        <pt x="216" y="-195" on="0"/>
        <pt x="216" y="-124" on="0"/>
        <pt x="187" y="-92" on="1"/>
      </contour>
    </TTGlyph>
    <TTGlyph name="Ldot" xMin="13" yMin="-10" xMax="572" yMax="652">
      <contour>
        <pt x="518" y="-7" on="1"/>
        <pt x="367" y="0" on="0"/>
        <pt x="272" y="0" on="1"/>
        <pt x="133" y="0" on="0"/>
        <pt x="13" y="-10" on="1"/>
        <pt x="22" y="82" on="1"/>
        <pt x="60" y="88" on="0"/>
        <pt x="87" y="125" on="0"/>
        <pt x="87" y="170" on="1"/>
        <pt x="87" y="508" on="1"/>
        <pt x="87" y="539" on="0"/>
        <pt x="73" y="559" on="0"/>
        <pt x="52" y="559" on="1"/>
        <pt x="26" y="558" on="1"/>
        <pt x="17" y="572" on="1"/>
        <pt x="25" y="647" on="1"/>
        <pt x="186" y="647" on="1"/>
        <pt x="393" y="652" on="1"/>
        <pt x="382" y="554" on="1"/>
        <pt x="330" y="549" on="0"/>
        <pt x="295" y="528" on="0"/>
        <pt x="294" y="502" on="1"/>
        <pt x="284" y="352" on="0"/>
        <pt x="284" y="158" on="1"/>
        <pt x="284" y="135" on="0"/>
        <pt x="301" y="115" on="0"/>
        <pt x="321" y="115" on="1"/>
        <pt x="374" y="115" on="0"/>
        <pt x="412" y="178" on="0"/>
        <pt x="417" y="278" on="1"/>
        <pt x="545" y="291" on="1"/>
        <pt x="557" y="276" on="1"/>
        <pt x="542" y="148" on="0"/>
        <pt x="533" y="9" on="1"/>
      </contour>
      <contour>
        <pt x="572" y="434" on="0"/>
        <pt x="518" y="378" on="0"/>
        <pt x="425" y="378" on="0"/>
        <pt x="377" y="427" on="0"/>
        <pt x="377" y="521" on="0"/>
        <pt x="432" y="577" on="0"/>
        <pt x="523" y="577" on="0"/>
        <pt x="572" y="527" on="0"/>
      </contour>
    </TTGlyph>
    <TTGlyph name="Lslash" xMin="15" yMin="-10" xMax="582" yMax="652">
      <contour>
        <pt x="543" y="-7" on="1"/>
        <pt x="392" y="0" on="0"/>
        <pt x="298" y="0" on="1"/>
        <pt x="158" y="0" on="0"/>
        <pt x="38" y="-10" on="1"/>
        <pt x="47" y="82" on="1"/>
        <pt x="85" y="88" on="0"/>
        <pt x="112" y="125" on="0"/>
        <pt x="112" y="170" on="1"/>
        <pt x="112" y="238" on="1"/>
        <pt x="56" y="210" on="1"/>
        <pt x="46" y="212" on="1"/>
        <pt x="15" y="306" on="1"/>
        <pt x="112" y="354" on="1"/>
        <pt x="112" y="508" on="1"/>
        <pt x="112" y="539" on="0"/>
        <pt x="98" y="559" on="0"/>
        <pt x="77" y="559" on="1"/>
        <pt x="51" y="558" on="1"/>
        <pt x="42" y="572" on="1"/>
        <pt x="50" y="647" on="1"/>
        <pt x="211" y="647" on="1"/>
        <pt x="418" y="652" on="1"/>
        <pt x="407" y="554" on="1"/>
        <pt x="355" y="549" on="0"/>
        <pt x="320" y="528" on="0"/>
        <pt x="317" y="480" on="0"/>
        <pt x="315" y="434" on="1"/>
        <pt x="397" y="475" on="1"/>
        <pt x="406" y="471" on="1"/>
        <pt x="437" y="378" on="1"/>
        <pt x="310" y="315" on="1"/>
        <pt x="309" y="269" on="0"/>
        <pt x="309" y="158" on="1"/>
        <pt x="309" y="135" on="0"/>
        <pt x="326" y="115" on="0"/>
        <pt x="346" y="115" on="1"/>
        <pt x="399" y="115" on="0"/>
        <pt x="437" y="178" on="0"/>
        <pt x="442" y="278" on="1"/>
        <pt x="570" y="291" on="1"/>
        <pt x="582" y="276" on="1"/>
        <pt x="567" y="148" on="0"/>
        <pt x="558" y="9" on="1"/>
      </contour>
    </TTGlyph>
    <TTGlyph name="M" xMin="7" yMin="-12" xMax="836" yMax="653">
      <contour>
        <pt x="211" y="122" on="1"/>
        <pt x="211" y="88" on="0"/>
        <pt x="244" y="88" on="1"/>
        <pt x="270" y="90" on="1"/>
        <pt x="279" y="82" on="1"/>
        <pt x="267" y="-4" on="1"/>
        <pt x="157" y="0" on="0"/>
        <pt x="106" y="0" on="0"/>
        <pt x="77" y="-2" on="1"/>
        <pt x="7" y="-7" on="0"/>
        <pt x="7" y="-8" on="1"/>
        <pt x="15" y="82" on="1"/>
        <pt x="43" y="85" on="0"/>
        <pt x="70" y="115" on="0"/>
        <pt x="72" y="148" on="1"/>
        <pt x="107" y="487" on="0"/>
        <pt x="107" y="541" on="0"/>
        <pt x="90" y="553" on="0"/>
        <pt x="45" y="558" on="1"/>
        <pt x="37" y="566" on="1"/>
        <pt x="47" y="652" on="1"/>
        <pt x="152" y="647" on="0"/>
        <pt x="194" y="647" on="1"/>
        <pt x="348" y="651" on="1"/>
        <pt x="374" y="519" on="0"/>
        <pt x="422" y="333" on="1"/>
        <pt x="435" y="333" on="1"/>
        <pt x="484" y="502" on="0"/>
        <pt x="519" y="647" on="1"/>
        <pt x="688" y="647" on="0"/>
        <pt x="704" y="648" on="1"/>
        <pt x="798" y="653" on="1"/>
        <pt x="805" y="649" on="1"/>
        <pt x="797" y="561" on="1"/>
        <pt x="756" y="560" on="0"/>
        <pt x="731" y="540" on="0"/>
        <pt x="731" y="510" on="1"/>
        <pt x="731" y="381" on="0"/>
        <pt x="753" y="176" on="1"/>
        <pt x="757" y="127" on="0"/>
        <pt x="777" y="89" on="0"/>
        <pt x="799" y="89" on="1"/>
        <pt x="829" y="91" on="1"/>
        <pt x="836" y="83" on="1"/>
        <pt x="827" y="-3" on="1"/>
        <pt x="712" y="1" on="0"/>
        <pt x="533" y="-5" on="0"/>
        <pt x="525" y="-8" on="1"/>
        <pt x="537" y="83" on="1"/>
        <pt x="565" y="86" on="0"/>
        <pt x="588" y="108" on="0"/>
        <pt x="588" y="132" on="1"/>
        <pt x="584" y="363" on="1"/>
        <pt x="571" y="363" on="1"/>
        <pt x="515" y="195" on="0"/>
        <pt x="462" y="-2" on="1"/>
        <pt x="337" y="-12" on="1"/>
        <pt x="285" y="183" on="0"/>
        <pt x="229" y="363" on="1"/>
        <pt x="216" y="363" on="1"/>
        <pt x="211" y="144" on="0"/>
      </contour>
    </TTGlyph>
    <TTGlyph name="N" xMin="13" yMin="-12" xMax="739" yMax="652">
      <contour>
        <pt x="465" y="559" on="1"/>
        <pt x="434" y="559" on="1"/>
        <pt x="429" y="570" on="1"/>
        <pt x="434" y="651" on="1"/>
        <pt x="544" y="647" on="0"/>
        <pt x="739" y="647" on="0"/>
        <pt x="739" y="650" on="1"/>
        <pt x="734" y="560" on="1"/>
        <pt x="702" y="556" on="0"/>
        <pt x="677" y="528" on="0"/>
        <pt x="676" y="497" on="1"/>
        <pt x="663" y="0" on="1"/>
        <pt x="475" y="-12" on="1"/>
        <pt x="371" y="161" on="0"/>
        <pt x="270" y="315" on="1"/>
        <pt x="255" y="315" on="1"/>
        <pt x="258" y="137" on="1"/>
        <pt x="259" y="108" on="0"/>
        <pt x="275" y="86" on="0"/>
        <pt x="297" y="86" on="1"/>
        <pt x="331" y="90" on="1"/>
        <pt x="340" y="81" on="1"/>
        <pt x="329" y="-4" on="1"/>
        <pt x="218" y="0" on="0"/>
        <pt x="181" y="0" on="1"/>
        <pt x="113" y="0" on="0"/>
        <pt x="21" y="-8" on="1"/>
        <pt x="31" y="82" on="1"/>
        <pt x="87" y="89" on="0"/>
        <pt x="88" y="145" on="1"/>
        <pt x="100" y="494" on="1"/>
        <pt x="100" y="528" on="0"/>
        <pt x="72" y="552" on="0"/>
        <pt x="25" y="557" on="1"/>
        <pt x="13" y="571" on="1"/>
        <pt x="19" y="652" on="1"/>
        <pt x="94" y="647" on="0"/>
        <pt x="167" y="647" on="1"/>
        <pt x="295" y="651" on="1"/>
        <pt x="375" y="507" on="0"/>
        <pt x="487" y="333" on="1"/>
        <pt x="502" y="333" on="1"/>
        <pt x="498" y="516" on="1"/>
        <pt x="497" y="541" on="0"/>
        <pt x="483" y="559" on="0"/>
      </contour>
    </TTGlyph>
    <TTGlyph name="Nacute" xMin="13" yMin="-12" xMax="739" yMax="875">
      <contour>
        <pt x="465" y="559" on="1"/>
        <pt x="434" y="559" on="1"/>
        <pt x="429" y="570" on="1"/>
        <pt x="434" y="651" on="1"/>
        <pt x="544" y="647" on="0"/>
        <pt x="739" y="647" on="0"/>
        <pt x="739" y="650" on="1"/>
        <pt x="734" y="560" on="1"/>
        <pt x="702" y="556" on="0"/>
        <pt x="677" y="528" on="0"/>
        <pt x="676" y="497" on="1"/>
        <pt x="663" y="0" on="1"/>
        <pt x="475" y="-12" on="1"/>
        <pt x="371" y="161" on="0"/>
        <pt x="270" y="315" on="1"/>
        <pt x="255" y="315" on="1"/>
        <pt x="258" y="137" on="1"/>
        <pt x="259" y="108" on="0"/>
        <pt x="275" y="86" on="0"/>
        <pt x="297" y="86" on="1"/>
        <pt x="331" y="90" on="1"/>
        <pt x="340" y="81" on="1"/>
        <pt x="329" y="-4" on="1"/>
        <pt x="218" y="0" on="0"/>
        <pt x="181" y="0" on="1"/>
        <pt x="113" y="0" on="0"/>
        <pt x="21" y="-8" on="1"/>
        <pt x="31" y="82" on="1"/>
        <pt x="87" y="89" on="0"/>
        <pt x="88" y="145" on="1"/>
        <pt x="100" y="494" on="1"/>
        <pt x="100" y="528" on="0"/>
        <pt x="72" y="552" on="0"/>
        <pt x="25" y="557" on="1"/>
        <pt x="13" y="571" on="1"/>
        <pt x="19" y="652" on="1"/>
        <pt x="94" y="647" on="0"/>
        <pt x="167" y="647" on="1"/>
        <pt x="295" y="651" on="1"/>
        <pt x="375" y="507" on="0"/>
        <pt x="487" y="333" on="1"/>
        <pt x="502" y="333" on="1"/>
        <pt x="498" y="516" on="1"/>
        <pt x="497" y="541" on="0"/>
        <pt x="483" y="559" on="0"/>
      </contour>
      <contour>
        <pt x="573" y="762" on="1"/>
        <pt x="566" y="746" on="1"/>
        <pt x="436" y="722" on="0"/>
        <pt x="312" y="691" on="1"/>
        <pt x="293" y="704" on="1"/>
        <pt x="272" y="775" on="1"/>
        <pt x="375" y="813" on="0"/>
        <pt x="521" y="875" on="1"/>
        <pt x="537" y="870" on="1"/>
      </contour>
    </TTGlyph>
    <TTGlyph name="Ncaron" xMin="13" yMin="-12" xMax="739" yMax="895">
      <contour>
        <pt x="465" y="559" on="1"/>
        <pt x="434" y="559" on="1"/>
        <pt x="429" y="570" on="1"/>
        <pt x="434" y="651" on="1"/>
        <pt x="544" y="647" on="0"/>
        <pt x="739" y="647" on="0"/>
        <pt x="739" y="650" on="1"/>
        <pt x="734" y="560" on="1"/>
        <pt x="702" y="556" on="0"/>
        <pt x="677" y="528" on="0"/>
        <pt x="676" y="497" on="1"/>
        <pt x="663" y="0" on="1"/>
        <pt x="475" y="-12" on="1"/>
        <pt x="371" y="161" on="0"/>
        <pt x="270" y="315" on="1"/>
        <pt x="255" y="315" on="1"/>
        <pt x="258" y="137" on="1"/>
        <pt x="259" y="108" on="0"/>
        <pt x="275" y="86" on="0"/>
        <pt x="297" y="86" on="1"/>
        <pt x="331" y="90" on="1"/>
        <pt x="340" y="81" on="1"/>
        <pt x="329" y="-4" on="1"/>
        <pt x="218" y="0" on="0"/>
        <pt x="181" y="0" on="1"/>
        <pt x="113" y="0" on="0"/>
        <pt x="21" y="-8" on="1"/>
        <pt x="31" y="82" on="1"/>
        <pt x="87" y="89" on="0"/>
        <pt x="88" y="145" on="1"/>
        <pt x="100" y="494" on="1"/>
        <pt x="100" y="528" on="0"/>
        <pt x="72" y="552" on="0"/>
        <pt x="25" y="557" on="1"/>
        <pt x="13" y="571" on="1"/>
        <pt x="19" y="652" on="1"/>
        <pt x="94" y="647" on="0"/>
        <pt x="167" y="647" on="1"/>
        <pt x="295" y="651" on="1"/>
        <pt x="375" y="507" on="0"/>
        <pt x="487" y="333" on="1"/>
        <pt x="502" y="333" on="1"/>
        <pt x="498" y="516" on="1"/>
        <pt x="497" y="541" on="0"/>
        <pt x="483" y="559" on="0"/>
      </contour>
      <contour>
        <pt x="538" y="888" on="1"/>
        <pt x="574" y="826" on="1"/>
        <pt x="491" y="766" on="0"/>
        <pt x="397" y="688" on="1"/>
        <pt x="370" y="688" on="1"/>
        <pt x="277" y="765" on="0"/>
        <pt x="194" y="826" on="1"/>
        <pt x="229" y="888" on="1"/>
        <pt x="252" y="895" on="1"/>
        <pt x="299" y="875" on="0"/>
        <pt x="384" y="844" on="1"/>
        <pt x="436" y="863" on="0"/>
        <pt x="515" y="895" on="1"/>
      </contour>
    </TTGlyph>
    <TTGlyph name="Ncommaaccent" xMin="13" yMin="-345" xMax="739" yMax="652">
      <contour>
        <pt x="465" y="559" on="1"/>
        <pt x="434" y="559" on="1"/>
        <pt x="429" y="570" on="1"/>
        <pt x="434" y="651" on="1"/>
        <pt x="544" y="647" on="0"/>
        <pt x="739" y="647" on="0"/>
        <pt x="739" y="650" on="1"/>
        <pt x="734" y="560" on="1"/>
        <pt x="702" y="556" on="0"/>
        <pt x="677" y="528" on="0"/>
        <pt x="676" y="497" on="1"/>
        <pt x="663" y="0" on="1"/>
        <pt x="475" y="-12" on="1"/>
        <pt x="371" y="161" on="0"/>
        <pt x="270" y="315" on="1"/>
        <pt x="255" y="315" on="1"/>
        <pt x="258" y="137" on="1"/>
        <pt x="259" y="108" on="0"/>
        <pt x="275" y="86" on="0"/>
        <pt x="297" y="86" on="1"/>
        <pt x="331" y="90" on="1"/>
        <pt x="340" y="81" on="1"/>
        <pt x="329" y="-4" on="1"/>
        <pt x="218" y="0" on="0"/>
        <pt x="181" y="0" on="1"/>
        <pt x="113" y="0" on="0"/>
        <pt x="21" y="-8" on="1"/>
        <pt x="31" y="82" on="1"/>
        <pt x="87" y="89" on="0"/>
        <pt x="88" y="145" on="1"/>
        <pt x="100" y="494" on="1"/>
        <pt x="100" y="528" on="0"/>
        <pt x="72" y="552" on="0"/>
        <pt x="25" y="557" on="1"/>
        <pt x="13" y="571" on="1"/>
        <pt x="19" y="652" on="1"/>
        <pt x="94" y="647" on="0"/>
        <pt x="167" y="647" on="1"/>
        <pt x="295" y="651" on="1"/>
        <pt x="375" y="507" on="0"/>
        <pt x="487" y="333" on="1"/>
        <pt x="502" y="333" on="1"/>
        <pt x="498" y="516" on="1"/>
        <pt x="497" y="541" on="0"/>
        <pt x="483" y="559" on="0"/>
      </contour>
      <contour>
        <pt x="286" y="-78" on="1"/>
        <pt x="343" y="-34" on="0"/>
        <pt x="426" y="-34" on="0"/>
        <pt x="473" y="-89" on="0"/>
        <pt x="473" y="-188" on="0"/>
        <pt x="383" y="-301" on="0"/>
        <pt x="306" y="-345" on="1"/>
        <pt x="248" y="-299" on="1"/>
        <pt x="248" y="-274" on="1"/>
        <pt x="277" y="-253" on="0"/>
        <pt x="312" y="-195" on="0"/>
        <pt x="312" y="-124" on="0"/>
        <pt x="283" y="-92" on="1"/>
      </contour>
    </TTGlyph>
    <TTGlyph name="Ntilde" xMin="13" yMin="-12" xMax="739" yMax="888">
      <contour>
        <pt x="465" y="559" on="1"/>
        <pt x="434" y="559" on="1"/>
        <pt x="429" y="570" on="1"/>
        <pt x="434" y="651" on="1"/>
        <pt x="544" y="647" on="0"/>
        <pt x="739" y="647" on="0"/>
        <pt x="739" y="650" on="1"/>
        <pt x="734" y="560" on="1"/>
        <pt x="702" y="556" on="0"/>
        <pt x="677" y="528" on="0"/>
        <pt x="676" y="497" on="1"/>
        <pt x="663" y="0" on="1"/>
        <pt x="475" y="-12" on="1"/>
        <pt x="371" y="161" on="0"/>
        <pt x="270" y="315" on="1"/>
        <pt x="255" y="315" on="1"/>
        <pt x="258" y="137" on="1"/>
        <pt x="259" y="108" on="0"/>
        <pt x="275" y="86" on="0"/>
        <pt x="297" y="86" on="1"/>
        <pt x="331" y="90" on="1"/>
        <pt x="340" y="81" on="1"/>
        <pt x="329" y="-4" on="1"/>
        <pt x="218" y="0" on="0"/>
        <pt x="181" y="0" on="1"/>
        <pt x="113" y="0" on="0"/>
        <pt x="21" y="-8" on="1"/>
        <pt x="31" y="82" on="1"/>
        <pt x="87" y="89" on="0"/>
        <pt x="88" y="145" on="1"/>
        <pt x="100" y="494" on="1"/>
        <pt x="100" y="528" on="0"/>
        <pt x="72" y="552" on="0"/>
        <pt x="25" y="557" on="1"/>
        <pt x="13" y="571" on="1"/>
        <pt x="19" y="652" on="1"/>
        <pt x="94" y="647" on="0"/>
        <pt x="167" y="647" on="1"/>
        <pt x="295" y="651" on="1"/>
        <pt x="375" y="507" on="0"/>
        <pt x="487" y="333" on="1"/>
        <pt x="502" y="333" on="1"/>
        <pt x="498" y="516" on="1"/>
        <pt x="497" y="541" on="0"/>
        <pt x="483" y="559" on="0"/>
      </contour>
      <contour>
        <pt x="304" y="864" on="0"/>
        <pt x="426" y="830" on="0"/>
        <pt x="438" y="830" on="1"/>
        <pt x="461" y="830" on="0"/>
        <pt x="496" y="874" on="1"/>
        <pt x="507" y="888" on="1"/>
        <pt x="523" y="888" on="1"/>
        <pt x="582" y="834" on="1"/>
        <pt x="582" y="818" on="1"/>
        <pt x="501" y="703" on="1"/>
        <pt x="484" y="699" on="1"/>
        <pt x="466" y="699" on="0"/>
        <pt x="344" y="733" on="0"/>
        <pt x="319" y="733" on="0"/>
        <pt x="285" y="704" on="0"/>
        <pt x="263" y="675" on="1"/>
        <pt x="247" y="675" on="1"/>
        <pt x="188" y="729" on="1"/>
        <pt x="188" y="745" on="1"/>
        <pt x="269" y="860" on="1"/>
        <pt x="286" y="864" on="1"/>
      </contour>
    </TTGlyph>
    <TTGlyph name="O" xMin="15" yMin="-12" xMax="640" yMax="659">
      <contour>
        <pt x="244" y="224" on="0"/>
        <pt x="283" y="114" on="0"/>
        <pt x="375" y="114" on="0"/>
        <pt x="411" y="189" on="0"/>
        <pt x="411" y="414" on="0"/>
        <pt x="371" y="522" on="0"/>
        <pt x="279" y="522" on="0"/>
        <pt x="244" y="449" on="0"/>
      </contour>
      <contour>
        <pt x="640" y="171" on="0"/>
        <pt x="470" y="-12" on="0"/>
        <pt x="168" y="-12" on="0"/>
        <pt x="15" y="155" on="0"/>
        <pt x="15" y="480" on="0"/>
        <pt x="183" y="659" on="0"/>
        <pt x="342" y="659" on="1"/>
        <pt x="640" y="659" on="0"/>
        <pt x="640" y="340" on="1"/>
      </contour>
    </TTGlyph>
    <TTGlyph name="OE" xMin="15" yMin="-10" xMax="900" yMax="659">
      <contour>
        <pt x="644" y="115" on="1"/>
        <pt x="709" y="115" on="0"/>
        <pt x="752" y="154" on="0"/>
        <pt x="760" y="221" on="1"/>
        <pt x="888" y="230" on="1"/>
        <pt x="900" y="215" on="1"/>
        <pt x="882" y="118" on="0"/>
        <pt x="872" y="9" on="1"/>
        <pt x="857" y="-7" on="1"/>
        <pt x="688" y="3" on="0"/>
        <pt x="493" y="3" on="0"/>
        <pt x="343" y="-10" on="0"/>
        <pt x="318" y="-10" on="1"/>
        <pt x="173" y="-10" on="0"/>
        <pt x="15" y="156" on="0"/>
        <pt x="15" y="480" on="0"/>
        <pt x="178" y="650" on="0"/>
        <pt x="337" y="650" on="1"/>
        <pt x="366" y="650" on="0"/>
        <pt x="517" y="638" on="0"/>
        <pt x="566" y="638" on="1"/>
        <pt x="718" y="638" on="0"/>
        <pt x="886" y="659" on="1"/>
        <pt x="899" y="643" on="1"/>
        <pt x="881" y="538" on="0"/>
        <pt x="876" y="444" on="1"/>
        <pt x="738" y="435" on="1"/>
        <pt x="740" y="459" on="0"/>
        <pt x="740" y="472" on="1"/>
        <pt x="740" y="506" on="0"/>
        <pt x="703" y="527" on="0"/>
        <pt x="621" y="527" on="0"/>
        <pt x="608" y="517" on="0"/>
        <pt x="608" y="500" on="1"/>
        <pt x="602" y="387" on="1"/>
        <pt x="684" y="386" on="1"/>
        <pt x="794" y="392" on="1"/>
        <pt x="806" y="378" on="1"/>
        <pt x="792" y="263" on="1"/>
        <pt x="718" y="266" on="0"/>
        <pt x="672" y="266" on="1"/>
        <pt x="597" y="260" on="1"/>
        <pt x="596" y="175" on="1"/>
        <pt x="596" y="136" on="0"/>
        <pt x="613" y="115" on="0"/>
      </contour>
      <contour>
        <pt x="332" y="108" on="1"/>
        <pt x="404" y="108" on="0"/>
        <pt x="404" y="196" on="1"/>
        <pt x="405" y="439" on="1"/>
        <pt x="405" y="528" on="0"/>
        <pt x="322" y="528" on="1"/>
        <pt x="278" y="528" on="0"/>
        <pt x="242" y="453" on="0"/>
        <pt x="242" y="221" on="0"/>
        <pt x="282" y="108" on="0"/>
      </contour>
    </TTGlyph>
    <TTGlyph name="Oacute" xMin="15" yMin="-12" xMax="640" yMax="875">
      <contour>
        <pt x="244" y="224" on="0"/>
        <pt x="283" y="114" on="0"/>
        <pt x="375" y="114" on="0"/>
        <pt x="411" y="189" on="0"/>
        <pt x="411" y="414" on="0"/>
        <pt x="371" y="522" on="0"/>
        <pt x="279" y="522" on="0"/>
        <pt x="244" y="449" on="0"/>
      </contour>
      <contour>
        <pt x="640" y="171" on="0"/>
        <pt x="470" y="-12" on="0"/>
        <pt x="168" y="-12" on="0"/>
        <pt x="15" y="155" on="0"/>
        <pt x="15" y="480" on="0"/>
        <pt x="183" y="659" on="0"/>
        <pt x="342" y="659" on="1"/>
        <pt x="640" y="659" on="0"/>
        <pt x="640" y="340" on="1"/>
      </contour>
      <contour>
        <pt x="513" y="762" on="1"/>
        <pt x="506" y="746" on="1"/>
        <pt x="376" y="722" on="0"/>
        <pt x="252" y="691" on="1"/>
        <pt x="233" y="704" on="1"/>
        <pt x="212" y="775" on="1"/>
        <pt x="315" y="813" on="0"/>
        <pt x="461" y="875" on="1"/>
        <pt x="477" y="870" on="1"/>
      </contour>
    </TTGlyph>
    <TTGlyph name="Obreve" xMin="15" yMin="-12" xMax="640" yMax="905">
      <contour>
        <pt x="244" y="224" on="0"/>
        <pt x="283" y="114" on="0"/>
        <pt x="375" y="114" on="0"/>
        <pt x="411" y="189" on="0"/>
        <pt x="411" y="414" on="0"/>
        <pt x="371" y="522" on="0"/>
        <pt x="279" y="522" on="0"/>
        <pt x="244" y="449" on="0"/>
      </contour>
      <contour>
        <pt x="640" y="171" on="0"/>
        <pt x="470" y="-12" on="0"/>
        <pt x="168" y="-12" on="0"/>
        <pt x="15" y="155" on="0"/>
        <pt x="15" y="480" on="0"/>
        <pt x="183" y="659" on="0"/>
        <pt x="342" y="659" on="1"/>
        <pt x="640" y="659" on="0"/>
        <pt x="640" y="340" on="1"/>
      </contour>
      <contour>
        <pt x="244" y="835" on="0"/>
        <pt x="406" y="835" on="0"/>
        <pt x="436" y="905" on="1"/>
        <pt x="463" y="898" on="1"/>
        <pt x="503" y="836" on="1"/>
        <pt x="485" y="778" on="0"/>
        <pt x="396" y="700" on="0"/>
        <pt x="254" y="700" on="0"/>
        <pt x="165" y="778" on="0"/>
        <pt x="147" y="836" on="1"/>
        <pt x="187" y="898" on="1"/>
        <pt x="214" y="905" on="1"/>
      </contour>
    </TTGlyph>
    <TTGlyph name="Ocircumflex" xMin="15" yMin="-12" xMax="640" yMax="908">
      <contour>
        <pt x="244" y="224" on="0"/>
        <pt x="283" y="114" on="0"/>
        <pt x="375" y="114" on="0"/>
        <pt x="411" y="189" on="0"/>
        <pt x="411" y="414" on="0"/>
        <pt x="371" y="522" on="0"/>
        <pt x="279" y="522" on="0"/>
        <pt x="244" y="449" on="0"/>
      </contour>
      <contour>
        <pt x="640" y="171" on="0"/>
        <pt x="470" y="-12" on="0"/>
        <pt x="168" y="-12" on="0"/>
        <pt x="15" y="155" on="0"/>
        <pt x="15" y="480" on="0"/>
        <pt x="183" y="659" on="0"/>
        <pt x="342" y="659" on="1"/>
        <pt x="640" y="659" on="0"/>
        <pt x="640" y="340" on="1"/>
      </contour>
      <contour>
        <pt x="340" y="908" on="1"/>
        <pt x="340" y="911" on="0"/>
        <pt x="364" y="891" on="1"/>
        <pt x="464" y="810" on="0"/>
        <pt x="516" y="770" on="1"/>
        <pt x="481" y="708" on="1"/>
        <pt x="458" y="701" on="1"/>
        <pt x="411" y="721" on="0"/>
        <pt x="326" y="752" on="1"/>
        <pt x="274" y="733" on="0"/>
        <pt x="195" y="701" on="1"/>
        <pt x="172" y="708" on="1"/>
        <pt x="136" y="770" on="1"/>
        <pt x="219" y="830" on="0"/>
        <pt x="313" y="908" on="1"/>
      </contour>
    </TTGlyph>
    <TTGlyph name="Odieresis" xMin="15" yMin="-12" xMax="640" yMax="852">
      <contour>
        <pt x="244" y="224" on="0"/>
        <pt x="283" y="114" on="0"/>
        <pt x="375" y="114" on="0"/>
        <pt x="411" y="189" on="0"/>
        <pt x="411" y="414" on="0"/>
        <pt x="371" y="522" on="0"/>
        <pt x="279" y="522" on="0"/>
        <pt x="244" y="449" on="0"/>
      </contour>
      <contour>
        <pt x="640" y="171" on="0"/>
        <pt x="470" y="-12" on="0"/>
        <pt x="168" y="-12" on="0"/>
        <pt x="15" y="155" on="0"/>
        <pt x="15" y="480" on="0"/>
        <pt x="183" y="659" on="0"/>
        <pt x="342" y="659" on="1"/>
        <pt x="640" y="659" on="0"/>
        <pt x="640" y="340" on="1"/>
      </contour>
      <contour>
        <pt x="418" y="685" on="1"/>
        <pt x="338" y="685" on="0"/>
        <pt x="338" y="765" on="1"/>
        <pt x="338" y="805" on="0"/>
        <pt x="384" y="852" on="0"/>
        <pt x="462" y="852" on="0"/>
        <pt x="503" y="810" on="0"/>
        <pt x="503" y="732" on="0"/>
        <pt x="457" y="685" on="0"/>
      </contour>
      <contour>
        <pt x="225" y="685" on="1"/>
        <pt x="146" y="685" on="0"/>
        <pt x="146" y="765" on="1"/>
        <pt x="146" y="805" on="0"/>
        <pt x="192" y="852" on="0"/>
        <pt x="270" y="852" on="0"/>
        <pt x="311" y="810" on="0"/>
        <pt x="311" y="732" on="0"/>
        <pt x="265" y="685" on="0"/>
      </contour>
    </TTGlyph>
    <TTGlyph name="Ograve" xMin="15" yMin="-12" xMax="640" yMax="875">
      <contour>
        <pt x="244" y="224" on="0"/>
        <pt x="283" y="114" on="0"/>
        <pt x="375" y="114" on="0"/>
        <pt x="411" y="189" on="0"/>
        <pt x="411" y="414" on="0"/>
        <pt x="371" y="522" on="0"/>
        <pt x="279" y="522" on="0"/>
        <pt x="244" y="449" on="0"/>
      </contour>
      <contour>
        <pt x="640" y="171" on="0"/>
        <pt x="470" y="-12" on="0"/>
        <pt x="168" y="-12" on="0"/>
        <pt x="15" y="155" on="0"/>
        <pt x="15" y="480" on="0"/>
        <pt x="183" y="659" on="0"/>
        <pt x="342" y="659" on="1"/>
        <pt x="640" y="659" on="0"/>
        <pt x="640" y="340" on="1"/>
      </contour>
      <contour>
        <pt x="148" y="746" on="1"/>
        <pt x="141" y="762" on="1"/>
        <pt x="177" y="870" on="1"/>
        <pt x="193" y="875" on="1"/>
        <pt x="319" y="821" on="0"/>
        <pt x="442" y="775" on="1"/>
        <pt x="421" y="704" on="1"/>
        <pt x="402" y="691" on="1"/>
        <pt x="309" y="715" on="0"/>
      </contour>
    </TTGlyph>
    <TTGlyph name="Ohungarumlaut" xMin="15" yMin="-12" xMax="640" yMax="880">
      <contour>
        <pt x="244" y="224" on="0"/>
        <pt x="283" y="114" on="0"/>
        <pt x="375" y="114" on="0"/>
        <pt x="411" y="189" on="0"/>
        <pt x="411" y="414" on="0"/>
        <pt x="371" y="522" on="0"/>
        <pt x="279" y="522" on="0"/>
        <pt x="244" y="449" on="0"/>
      </contour>
      <contour>
        <pt x="640" y="171" on="0"/>
        <pt x="470" y="-12" on="0"/>
        <pt x="168" y="-12" on="0"/>
        <pt x="15" y="155" on="0"/>
        <pt x="15" y="480" on="0"/>
        <pt x="183" y="659" on="0"/>
        <pt x="342" y="659" on="1"/>
        <pt x="640" y="659" on="0"/>
        <pt x="640" y="340" on="1"/>
      </contour>
      <contour>
        <pt x="373" y="799" on="1"/>
        <pt x="373" y="784" on="1"/>
        <pt x="284" y="731" on="0"/>
        <pt x="200" y="674" on="1"/>
        <pt x="181" y="679" on="1"/>
        <pt x="143" y="727" on="1"/>
        <pt x="292" y="879" on="1"/>
        <pt x="307" y="880" on="1"/>
      </contour>
      <contour>
        <pt x="571" y="799" on="1"/>
        <pt x="571" y="784" on="1"/>
        <pt x="482" y="731" on="0"/>
        <pt x="398" y="674" on="1"/>
        <pt x="379" y="679" on="1"/>
        <pt x="341" y="727" on="1"/>
        <pt x="490" y="879" on="1"/>
        <pt x="505" y="880" on="1"/>
      </contour>
    </TTGlyph>
    <TTGlyph name="Omacron" xMin="15" yMin="-12" xMax="640" yMax="823">
      <contour>
        <pt x="244" y="224" on="0"/>
        <pt x="283" y="114" on="0"/>
        <pt x="375" y="114" on="0"/>
        <pt x="411" y="189" on="0"/>
        <pt x="411" y="414" on="0"/>
        <pt x="371" y="522" on="0"/>
        <pt x="279" y="522" on="0"/>
        <pt x="244" y="449" on="0"/>
      </contour>
      <contour>
        <pt x="640" y="171" on="0"/>
        <pt x="470" y="-12" on="0"/>
        <pt x="168" y="-12" on="0"/>
        <pt x="15" y="155" on="0"/>
        <pt x="15" y="480" on="0"/>
        <pt x="183" y="659" on="0"/>
        <pt x="342" y="659" on="1"/>
        <pt x="640" y="659" on="0"/>
        <pt x="640" y="340" on="1"/>
      </contour>
      <contour>
        <pt x="472" y="823" on="1"/>
        <pt x="483" y="805" on="1"/>
        <pt x="465" y="696" on="1"/>
        <pt x="191" y="694" on="1"/>
        <pt x="175" y="709" on="1"/>
        <pt x="194" y="818" on="1"/>
        <pt x="289" y="817" on="0"/>
        <pt x="348" y="817" on="1"/>
      </contour>
    </TTGlyph>
    <TTGlyph name="Omega" xMin="5" yMin="-7" xMax="860" yMax="659">
      <contour>
        <pt x="492" y="114" on="0"/>
        <pt x="519" y="208" on="0"/>
        <pt x="519" y="434" on="0"/>
        <pt x="486" y="522" on="0"/>
        <pt x="395" y="522" on="0"/>
        <pt x="352" y="452" on="0"/>
        <pt x="352" y="371" on="1"/>
        <pt x="352" y="241" on="0"/>
        <pt x="382" y="113" on="0"/>
        <pt x="422" y="74" on="1"/>
        <pt x="396" y="-7" on="1"/>
        <pt x="324" y="3" on="1"/>
        <pt x="29" y="-3" on="1"/>
        <pt x="8" y="19" on="1"/>
        <pt x="5" y="246" on="1"/>
        <pt x="110" y="255" on="1"/>
        <pt x="114" y="183" on="0"/>
        <pt x="150" y="117" on="0"/>
        <pt x="188" y="112" on="1"/>
        <pt x="241" y="103" on="1"/>
        <pt x="123" y="217" on="0"/>
        <pt x="123" y="367" on="1"/>
        <pt x="123" y="496" on="0"/>
        <pt x="300" y="659" on="0"/>
        <pt x="579" y="659" on="0"/>
        <pt x="748" y="514" on="0"/>
        <pt x="748" y="396" on="1"/>
        <pt x="748" y="222" on="0"/>
        <pt x="619" y="102" on="1"/>
        <pt x="677" y="112" on="1"/>
        <pt x="711" y="117" on="0"/>
        <pt x="747" y="179" on="0"/>
        <pt x="754" y="246" on="1"/>
        <pt x="860" y="255" on="1"/>
        <pt x="857" y="111" on="0"/>
        <pt x="857" y="19" on="1"/>
        <pt x="836" y="-3" on="1"/>
        <pt x="546" y="3" on="1"/>
        <pt x="474" y="-7" on="1"/>
        <pt x="447" y="74" on="1"/>
      </contour>
    </TTGlyph>
    <TTGlyph name="Oslash" xMin="15" yMin="-117" xMax="649" yMax="752">
      <contour>
        <pt x="95" y="67" on="1"/>
        <pt x="15" y="150" on="0"/>
        <pt x="15" y="480" on="0"/>
        <pt x="183" y="659" on="0"/>
        <pt x="342" y="659" on="1"/>
        <pt x="417" y="659" on="0"/>
        <pt x="474" y="638" on="1"/>
        <pt x="550" y="752" on="1"/>
        <pt x="647" y="698" on="1"/>
        <pt x="649" y="685" on="1"/>
        <pt x="572" y="571" on="1"/>
        <pt x="640" y="491" on="0"/>
        <pt x="640" y="171" on="0"/>
        <pt x="470" y="-12" on="0"/>
        <pt x="313" y="-12" on="1"/>
        <pt x="248" y="-12" on="0"/>
        <pt x="195" y="5" on="1"/>
        <pt x="115" y="-117" on="1"/>
        <pt x="20" y="-62" on="1"/>
        <pt x="16" y="-52" on="1"/>
      </contour>
      <contour>
        <pt x="244" y="224" on="0"/>
        <pt x="283" y="114" on="0"/>
        <pt x="375" y="114" on="0"/>
        <pt x="411" y="189" on="0"/>
        <pt x="411" y="414" on="0"/>
        <pt x="371" y="522" on="0"/>
        <pt x="279" y="522" on="0"/>
        <pt x="244" y="449" on="0"/>
      </contour>
    </TTGlyph>
    <TTGlyph name="Oslashacute" xMin="15" yMin="-117" xMax="649" yMax="888">
      <contour>
        <pt x="95" y="67" on="1"/>
        <pt x="15" y="150" on="0"/>
        <pt x="15" y="480" on="0"/>
        <pt x="183" y="659" on="0"/>
        <pt x="342" y="659" on="1"/>
        <pt x="417" y="659" on="0"/>
        <pt x="474" y="638" on="1"/>
        <pt x="550" y="752" on="1"/>
        <pt x="647" y="698" on="1"/>
        <pt x="649" y="685" on="1"/>
        <pt x="572" y="571" on="1"/>
        <pt x="640" y="491" on="0"/>
        <pt x="640" y="171" on="0"/>
        <pt x="470" y="-12" on="0"/>
        <pt x="313" y="-12" on="1"/>
        <pt x="248" y="-12" on="0"/>
        <pt x="195" y="5" on="1"/>
        <pt x="115" y="-117" on="1"/>
        <pt x="20" y="-62" on="1"/>
        <pt x="16" y="-52" on="1"/>
      </contour>
      <contour>
        <pt x="244" y="224" on="0"/>
        <pt x="283" y="114" on="0"/>
        <pt x="375" y="114" on="0"/>
        <pt x="411" y="189" on="0"/>
        <pt x="411" y="414" on="0"/>
        <pt x="371" y="522" on="0"/>
        <pt x="279" y="522" on="0"/>
        <pt x="244" y="449" on="0"/>
      </contour>
      <contour>
        <pt x="496" y="775" on="1"/>
        <pt x="489" y="759" on="1"/>
        <pt x="359" y="735" on="0"/>
        <pt x="235" y="704" on="1"/>
        <pt x="216" y="717" on="1"/>
        <pt x="195" y="788" on="1"/>
        <pt x="298" y="826" on="0"/>
        <pt x="444" y="888" on="1"/>
        <pt x="460" y="883" on="1"/>
      </contour>
    </TTGlyph>
    <TTGlyph name="Otilde" xMin="15" yMin="-12" xMax="640" yMax="888">
      <contour>
        <pt x="244" y="224" on="0"/>
        <pt x="283" y="114" on="0"/>
        <pt x="375" y="114" on="0"/>
        <pt x="411" y="189" on="0"/>
        <pt x="411" y="414" on="0"/>
        <pt x="371" y="522" on="0"/>
        <pt x="279" y="522" on="0"/>
        <pt x="244" y="449" on="0"/>
      </contour>
      <contour>
        <pt x="640" y="171" on="0"/>
        <pt x="470" y="-12" on="0"/>
        <pt x="168" y="-12" on="0"/>
        <pt x="15" y="155" on="0"/>
        <pt x="15" y="480" on="0"/>
        <pt x="183" y="659" on="0"/>
        <pt x="342" y="659" on="1"/>
        <pt x="640" y="659" on="0"/>
        <pt x="640" y="340" on="1"/>
      </contour>
      <contour>
        <pt x="244" y="864" on="0"/>
        <pt x="366" y="830" on="0"/>
        <pt x="378" y="830" on="1"/>
        <pt x="401" y="830" on="0"/>
        <pt x="436" y="874" on="1"/>
        <pt x="447" y="888" on="1"/>
        <pt x="463" y="888" on="1"/>
        <pt x="522" y="834" on="1"/>
        <pt x="522" y="818" on="1"/>
        <pt x="441" y="703" on="1"/>
        <pt x="424" y="699" on="1"/>
        <pt x="406" y="699" on="0"/>
        <pt x="284" y="733" on="0"/>
        <pt x="259" y="733" on="0"/>
        <pt x="225" y="704" on="0"/>
        <pt x="203" y="675" on="1"/>
        <pt x="187" y="675" on="1"/>
        <pt x="128" y="729" on="1"/>
        <pt x="128" y="745" on="1"/>
        <pt x="209" y="860" on="1"/>
        <pt x="226" y="864" on="1"/>
      </contour>
    </TTGlyph>
    <TTGlyph name="P" xMin="14" yMin="-9" xMax="621" yMax="653">
      <contour>
        <pt x="621" y="445" on="1"/>
        <pt x="621" y="350" on="0"/>
        <pt x="471" y="208" on="0"/>
        <pt x="371" y="208" on="1"/>
        <pt x="285" y="208" on="1"/>
        <pt x="285" y="160" on="1"/>
        <pt x="285" y="118" on="0"/>
        <pt x="305" y="88" on="0"/>
        <pt x="335" y="88" on="1"/>
        <pt x="368" y="90" on="1"/>
        <pt x="373" y="82" on="1"/>
        <pt x="363" y="-4" on="1"/>
        <pt x="242" y="0" on="0"/>
        <pt x="200" y="0" on="1"/>
        <pt x="14" y="-9" on="1"/>
        <pt x="23" y="83" on="1"/>
        <pt x="60" y="89" on="0"/>
        <pt x="88" y="126" on="0"/>
        <pt x="88" y="168" on="1"/>
        <pt x="88" y="505" on="1"/>
        <pt x="88" y="536" on="0"/>
        <pt x="77" y="559" on="0"/>
        <pt x="62" y="559" on="1"/>
        <pt x="27" y="557" on="1"/>
        <pt x="17" y="569" on="1"/>
        <pt x="27" y="647" on="1"/>
        <pt x="170" y="647" on="1"/>
        <pt x="350" y="653" on="1"/>
        <pt x="418" y="653" on="0"/>
        <pt x="521" y="624" on="0"/>
        <pt x="577" y="581" on="0"/>
        <pt x="594" y="552" on="1"/>
        <pt x="621" y="505" on="0"/>
      </contour>
      <contour>
        <pt x="415" y="435" on="1"/>
        <pt x="415" y="484" on="0"/>
        <pt x="365" y="528" on="0"/>
        <pt x="312" y="528" on="1"/>
        <pt x="302" y="528" on="0"/>
        <pt x="299" y="524" on="1"/>
        <pt x="294" y="517" on="0"/>
        <pt x="287" y="331" on="1"/>
        <pt x="356" y="321" on="1"/>
        <pt x="415" y="342" on="0"/>
      </contour>
    </TTGlyph>
    <TTGlyph name="Q" xMin="15" yMin="-242" xMax="829" yMax="659">
      <contour>
        <pt x="168" y="-12" on="0"/>
        <pt x="15" y="155" on="0"/>
        <pt x="15" y="480" on="0"/>
        <pt x="183" y="659" on="0"/>
        <pt x="342" y="659" on="1"/>
        <pt x="640" y="659" on="0"/>
        <pt x="640" y="340" on="1"/>
        <pt x="640" y="236" on="0"/>
        <pt x="558" y="76" on="0"/>
        <pt x="485" y="32" on="1"/>
        <pt x="485" y="18" on="1"/>
        <pt x="539" y="-23" on="0"/>
        <pt x="660" y="-72" on="0"/>
        <pt x="709" y="-72" on="1"/>
        <pt x="748" y="-72" on="0"/>
        <pt x="800" y="-62" on="1"/>
        <pt x="812" y="-73" on="1"/>
        <pt x="829" y="-141" on="1"/>
        <pt x="690" y="-242" on="0"/>
        <pt x="653" y="-242" on="1"/>
        <pt x="591" y="-242" on="0"/>
        <pt x="467" y="-158" on="0"/>
        <pt x="313" y="-12" on="1"/>
      </contour>
      <contour>
        <pt x="244" y="224" on="0"/>
        <pt x="283" y="114" on="0"/>
        <pt x="375" y="114" on="0"/>
        <pt x="411" y="189" on="0"/>
        <pt x="411" y="414" on="0"/>
        <pt x="371" y="522" on="0"/>
        <pt x="279" y="522" on="0"/>
        <pt x="244" y="449" on="0"/>
      </contour>
    </TTGlyph>
    <TTGlyph name="R" xMin="14" yMin="-16" xMax="681" yMax="653">
      <contour>
        <pt x="285" y="228" on="1"/>
        <pt x="285" y="160" on="1"/>
        <pt x="285" y="114" on="0"/>
        <pt x="308" y="90" on="0"/>
        <pt x="356" y="88" on="1"/>
        <pt x="361" y="80" on="1"/>
        <pt x="351" y="-4" on="1"/>
        <pt x="229" y="0" on="0"/>
        <pt x="192" y="0" on="1"/>
        <pt x="111" y="0" on="0"/>
        <pt x="14" y="-9" on="1"/>
        <pt x="23" y="83" on="1"/>
        <pt x="60" y="89" on="0"/>
        <pt x="88" y="126" on="0"/>
        <pt x="88" y="168" on="1"/>
        <pt x="88" y="515" on="1"/>
        <pt x="88" y="540" on="0"/>
        <pt x="77" y="559" on="0"/>
        <pt x="62" y="559" on="1"/>
        <pt x="27" y="557" on="1"/>
        <pt x="17" y="569" on="1"/>
        <pt x="28" y="648" on="1"/>
        <pt x="129" y="647" on="0"/>
        <pt x="170" y="647" on="1"/>
        <pt x="355" y="653" on="1"/>
        <pt x="631" y="653" on="0"/>
        <pt x="631" y="465" on="1"/>
        <pt x="631" y="347" on="0"/>
        <pt x="511" y="276" on="1"/>
        <pt x="573" y="172" on="1"/>
        <pt x="625" y="84" on="0"/>
        <pt x="670" y="84" on="1"/>
        <pt x="681" y="68" on="1"/>
        <pt x="672" y="-5" on="1"/>
        <pt x="517" y="-16" on="1"/>
        <pt x="475" y="-16" on="0"/>
        <pt x="422" y="26" on="0"/>
        <pt x="403" y="75" on="1"/>
        <pt x="341" y="228" on="1"/>
      </contour>
      <contour>
        <pt x="398" y="358" on="0"/>
        <pt x="425" y="403" on="0"/>
        <pt x="425" y="488" on="0"/>
        <pt x="370" y="528" on="0"/>
        <pt x="312" y="528" on="1"/>
        <pt x="302" y="528" on="0"/>
        <pt x="299" y="524" on="1"/>
        <pt x="292" y="514" on="0"/>
        <pt x="288" y="354" on="1"/>
        <pt x="364" y="344" on="1"/>
      </contour>
    </TTGlyph>
    <TTGlyph name="Racute" xMin="14" yMin="-16" xMax="681" yMax="875">
      <contour>
        <pt x="285" y="228" on="1"/>
        <pt x="285" y="160" on="1"/>
        <pt x="285" y="114" on="0"/>
        <pt x="308" y="90" on="0"/>
        <pt x="356" y="88" on="1"/>
        <pt x="361" y="80" on="1"/>
        <pt x="351" y="-4" on="1"/>
        <pt x="229" y="0" on="0"/>
        <pt x="192" y="0" on="1"/>
        <pt x="111" y="0" on="0"/>
        <pt x="14" y="-9" on="1"/>
        <pt x="23" y="83" on="1"/>
        <pt x="60" y="89" on="0"/>
        <pt x="88" y="126" on="0"/>
        <pt x="88" y="168" on="1"/>
        <pt x="88" y="515" on="1"/>
        <pt x="88" y="540" on="0"/>
        <pt x="77" y="559" on="0"/>
        <pt x="62" y="559" on="1"/>
        <pt x="27" y="557" on="1"/>
        <pt x="17" y="569" on="1"/>
        <pt x="28" y="648" on="1"/>
        <pt x="129" y="647" on="0"/>
        <pt x="170" y="647" on="1"/>
        <pt x="355" y="653" on="1"/>
        <pt x="631" y="653" on="0"/>
        <pt x="631" y="465" on="1"/>
        <pt x="631" y="347" on="0"/>
        <pt x="511" y="276" on="1"/>
        <pt x="573" y="172" on="1"/>
        <pt x="625" y="84" on="0"/>
        <pt x="670" y="84" on="1"/>
        <pt x="681" y="68" on="1"/>
        <pt x="672" y="-5" on="1"/>
        <pt x="517" y="-16" on="1"/>
        <pt x="475" y="-16" on="0"/>
        <pt x="422" y="26" on="0"/>
        <pt x="403" y="75" on="1"/>
        <pt x="341" y="228" on="1"/>
      </contour>
      <contour>
        <pt x="398" y="358" on="0"/>
        <pt x="425" y="403" on="0"/>
        <pt x="425" y="488" on="0"/>
        <pt x="370" y="528" on="0"/>
        <pt x="312" y="528" on="1"/>
        <pt x="302" y="528" on="0"/>
        <pt x="299" y="524" on="1"/>
        <pt x="292" y="514" on="0"/>
        <pt x="288" y="354" on="1"/>
        <pt x="364" y="344" on="1"/>
      </contour>
      <contour>
        <pt x="531" y="762" on="1"/>
        <pt x="524" y="746" on="1"/>
        <pt x="394" y="722" on="0"/>
        <pt x="270" y="691" on="1"/>
        <pt x="251" y="704" on="1"/>
        <pt x="230" y="775" on="1"/>
        <pt x="333" y="813" on="0"/>
        <pt x="479" y="875" on="1"/>
        <pt x="495" y="870" on="1"/>
      </contour>
    </TTGlyph>
    <TTGlyph name="Rcaron" xMin="14" yMin="-16" xMax="681" yMax="895">
      <contour>
        <pt x="285" y="228" on="1"/>
        <pt x="285" y="160" on="1"/>
        <pt x="285" y="114" on="0"/>
        <pt x="308" y="90" on="0"/>
        <pt x="356" y="88" on="1"/>
        <pt x="361" y="80" on="1"/>
        <pt x="351" y="-4" on="1"/>
        <pt x="229" y="0" on="0"/>
        <pt x="192" y="0" on="1"/>
        <pt x="111" y="0" on="0"/>
        <pt x="14" y="-9" on="1"/>
        <pt x="23" y="83" on="1"/>
        <pt x="60" y="89" on="0"/>
        <pt x="88" y="126" on="0"/>
        <pt x="88" y="168" on="1"/>
        <pt x="88" y="515" on="1"/>
        <pt x="88" y="540" on="0"/>
        <pt x="77" y="559" on="0"/>
        <pt x="62" y="559" on="1"/>
        <pt x="27" y="557" on="1"/>
        <pt x="17" y="569" on="1"/>
        <pt x="28" y="648" on="1"/>
        <pt x="129" y="647" on="0"/>
        <pt x="170" y="647" on="1"/>
        <pt x="355" y="653" on="1"/>
        <pt x="631" y="653" on="0"/>
        <pt x="631" y="465" on="1"/>
        <pt x="631" y="347" on="0"/>
        <pt x="511" y="276" on="1"/>
        <pt x="573" y="172" on="1"/>
        <pt x="625" y="84" on="0"/>
        <pt x="670" y="84" on="1"/>
        <pt x="681" y="68" on="1"/>
        <pt x="672" y="-5" on="1"/>
        <pt x="517" y="-16" on="1"/>
        <pt x="475" y="-16" on="0"/>
        <pt x="422" y="26" on="0"/>
        <pt x="403" y="75" on="1"/>
        <pt x="341" y="228" on="1"/>
      </contour>
      <contour>
        <pt x="398" y="358" on="0"/>
        <pt x="425" y="403" on="0"/>
        <pt x="425" y="488" on="0"/>
        <pt x="370" y="528" on="0"/>
        <pt x="312" y="528" on="1"/>
        <pt x="302" y="528" on="0"/>
        <pt x="299" y="524" on="1"/>
        <pt x="292" y="514" on="0"/>
        <pt x="288" y="354" on="1"/>
        <pt x="364" y="344" on="1"/>
      </contour>
      <contour>
        <pt x="496" y="888" on="1"/>
        <pt x="532" y="826" on="1"/>
        <pt x="449" y="766" on="0"/>
        <pt x="355" y="688" on="1"/>
        <pt x="328" y="688" on="1"/>
        <pt x="235" y="765" on="0"/>
        <pt x="152" y="826" on="1"/>
        <pt x="187" y="888" on="1"/>
        <pt x="210" y="895" on="1"/>
        <pt x="257" y="875" on="0"/>
        <pt x="342" y="844" on="1"/>
        <pt x="394" y="863" on="0"/>
        <pt x="473" y="895" on="1"/>
      </contour>
    </TTGlyph>
    <TTGlyph name="Rcommaaccent" xMin="14" yMin="-345" xMax="681" yMax="653">
      <contour>
        <pt x="285" y="228" on="1"/>
        <pt x="285" y="160" on="1"/>
        <pt x="285" y="114" on="0"/>
        <pt x="308" y="90" on="0"/>
        <pt x="356" y="88" on="1"/>
        <pt x="361" y="80" on="1"/>
        <pt x="351" y="-4" on="1"/>
        <pt x="229" y="0" on="0"/>
        <pt x="192" y="0" on="1"/>
        <pt x="111" y="0" on="0"/>
        <pt x="14" y="-9" on="1"/>
        <pt x="23" y="83" on="1"/>
        <pt x="60" y="89" on="0"/>
        <pt x="88" y="126" on="0"/>
        <pt x="88" y="168" on="1"/>
        <pt x="88" y="515" on="1"/>
        <pt x="88" y="540" on="0"/>
        <pt x="77" y="559" on="0"/>
        <pt x="62" y="559" on="1"/>
        <pt x="27" y="557" on="1"/>
        <pt x="17" y="569" on="1"/>
        <pt x="28" y="648" on="1"/>
        <pt x="129" y="647" on="0"/>
        <pt x="170" y="647" on="1"/>
        <pt x="355" y="653" on="1"/>
        <pt x="631" y="653" on="0"/>
        <pt x="631" y="465" on="1"/>
        <pt x="631" y="347" on="0"/>
        <pt x="511" y="276" on="1"/>
        <pt x="573" y="172" on="1"/>
        <pt x="625" y="84" on="0"/>
        <pt x="670" y="84" on="1"/>
        <pt x="681" y="68" on="1"/>
        <pt x="672" y="-5" on="1"/>
        <pt x="517" y="-16" on="1"/>
        <pt x="475" y="-16" on="0"/>
        <pt x="422" y="26" on="0"/>
        <pt x="403" y="75" on="1"/>
        <pt x="341" y="228" on="1"/>
      </contour>
      <contour>
        <pt x="398" y="358" on="0"/>
        <pt x="425" y="403" on="0"/>
        <pt x="425" y="488" on="0"/>
        <pt x="370" y="528" on="0"/>
        <pt x="312" y="528" on="1"/>
        <pt x="302" y="528" on="0"/>
        <pt x="299" y="524" on="1"/>
        <pt x="292" y="514" on="0"/>
        <pt x="288" y="354" on="1"/>
        <pt x="364" y="344" on="1"/>
      </contour>
      <contour>
        <pt x="251" y="-78" on="1"/>
        <pt x="308" y="-34" on="0"/>
        <pt x="391" y="-34" on="0"/>
        <pt x="438" y="-89" on="0"/>
        <pt x="438" y="-188" on="0"/>
        <pt x="348" y="-301" on="0"/>
        <pt x="271" y="-345" on="1"/>
        <pt x="213" y="-299" on="1"/>
        <pt x="213" y="-274" on="1"/>
        <pt x="242" y="-253" on="0"/>
        <pt x="277" y="-195" on="0"/>
        <pt x="277" y="-124" on="0"/>
        <pt x="248" y="-92" on="1"/>
      </contour>
    </TTGlyph>
    <TTGlyph name="S" xMin="13" yMin="-12" xMax="535" yMax="659">
      <contour>
        <pt x="222" y="-12" on="1"/>
        <pt x="170" y="-12" on="0"/>
        <pt x="72" y="9" on="0"/>
        <pt x="48" y="20" on="1"/>
        <pt x="25" y="31" on="1"/>
        <pt x="13" y="49" on="1"/>
        <pt x="31" y="148" on="0"/>
        <pt x="34" y="214" on="1"/>
        <pt x="160" y="223" on="1"/>
        <pt x="160" y="121" on="0"/>
        <pt x="248" y="121" on="1"/>
        <pt x="279" y="121" on="0"/>
        <pt x="314" y="143" on="0"/>
        <pt x="314" y="175" on="0"/>
        <pt x="300" y="196" on="0"/>
        <pt x="267" y="216" on="0"/>
        <pt x="240" y="229" on="0"/>
        <pt x="184" y="253" on="0"/>
        <pt x="171" y="259" on="1"/>
        <pt x="101" y="290" on="0"/>
        <pt x="18" y="375" on="0"/>
        <pt x="18" y="445" on="1"/>
        <pt x="18" y="542" on="0"/>
        <pt x="187" y="659" on="0"/>
        <pt x="326" y="659" on="1"/>
        <pt x="375" y="659" on="0"/>
        <pt x="470" y="645" on="0"/>
        <pt x="517" y="631" on="1"/>
        <pt x="529" y="609" on="1"/>
        <pt x="510" y="525" on="0"/>
        <pt x="502" y="435" on="1"/>
        <pt x="386" y="427" on="1"/>
        <pt x="374" y="435" on="1"/>
        <pt x="374" y="451" on="1"/>
        <pt x="374" y="521" on="0"/>
        <pt x="301" y="521" on="1"/>
        <pt x="273" y="521" on="0"/>
        <pt x="238" y="496" on="0"/>
        <pt x="238" y="476" on="1"/>
        <pt x="238" y="462" on="0"/>
        <pt x="251" y="446" on="0"/>
        <pt x="260" y="436" on="0"/>
        <pt x="278" y="426" on="0"/>
        <pt x="290" y="419" on="0"/>
        <pt x="314" y="408" on="0"/>
        <pt x="328" y="402" on="0"/>
        <pt x="357" y="390" on="0"/>
        <pt x="401" y="371" on="0"/>
        <pt x="451" y="344" on="0"/>
        <pt x="479" y="322" on="1"/>
        <pt x="535" y="276" on="0"/>
        <pt x="535" y="197" on="1"/>
        <pt x="535" y="100" on="0"/>
        <pt x="368" y="-12" on="0"/>
      </contour>
    </TTGlyph>
    <TTGlyph name="Sacute" xMin="79" yMin="-12" xMax="601" yMax="875">
      <contour>
        <pt x="288" y="-12" on="1"/>
        <pt x="236" y="-12" on="0"/>
        <pt x="138" y="9" on="0"/>
        <pt x="114" y="20" on="1"/>
        <pt x="91" y="31" on="1"/>
        <pt x="79" y="49" on="1"/>
        <pt x="97" y="148" on="0"/>
        <pt x="100" y="214" on="1"/>
        <pt x="226" y="223" on="1"/>
        <pt x="226" y="121" on="0"/>
        <pt x="314" y="121" on="1"/>
        <pt x="345" y="121" on="0"/>
        <pt x="380" y="143" on="0"/>
        <pt x="380" y="175" on="0"/>
        <pt x="366" y="196" on="0"/>
        <pt x="333" y="216" on="0"/>
        <pt x="306" y="229" on="0"/>
        <pt x="250" y="253" on="0"/>
        <pt x="237" y="259" on="1"/>
        <pt x="167" y="290" on="0"/>
        <pt x="84" y="375" on="0"/>
        <pt x="84" y="445" on="1"/>
        <pt x="84" y="542" on="0"/>
        <pt x="253" y="659" on="0"/>
        <pt x="392" y="659" on="1"/>
        <pt x="441" y="659" on="0"/>
        <pt x="536" y="645" on="0"/>
        <pt x="583" y="631" on="1"/>
        <pt x="595" y="609" on="1"/>
        <pt x="576" y="525" on="0"/>
        <pt x="568" y="435" on="1"/>
        <pt x="452" y="427" on="1"/>
        <pt x="440" y="435" on="1"/>
        <pt x="440" y="451" on="1"/>
        <pt x="440" y="521" on="0"/>
        <pt x="367" y="521" on="1"/>
        <pt x="339" y="521" on="0"/>
        <pt x="304" y="496" on="0"/>
        <pt x="304" y="476" on="1"/>
        <pt x="304" y="462" on="0"/>
        <pt x="317" y="446" on="0"/>
        <pt x="326" y="436" on="0"/>
        <pt x="344" y="426" on="0"/>
        <pt x="356" y="419" on="0"/>
        <pt x="380" y="408" on="0"/>
        <pt x="394" y="402" on="0"/>
        <pt x="423" y="390" on="0"/>
        <pt x="467" y="371" on="0"/>
        <pt x="517" y="344" on="0"/>
        <pt x="545" y="322" on="1"/>
        <pt x="601" y="276" on="0"/>
        <pt x="601" y="197" on="1"/>
        <pt x="601" y="100" on="0"/>
        <pt x="434" y="-12" on="0"/>
      </contour>
      <contour>
        <pt x="476" y="762" on="1"/>
        <pt x="469" y="746" on="1"/>
        <pt x="339" y="722" on="0"/>
        <pt x="215" y="691" on="1"/>
        <pt x="196" y="704" on="1"/>
        <pt x="175" y="775" on="1"/>
        <pt x="278" y="813" on="0"/>
        <pt x="424" y="875" on="1"/>
        <pt x="440" y="870" on="1"/>
      </contour>
    </TTGlyph>
    <TTGlyph name="Scaron" xMin="79" yMin="-12" xMax="601" yMax="895">
      <contour>
        <pt x="288" y="-12" on="1"/>
        <pt x="236" y="-12" on="0"/>
        <pt x="138" y="9" on="0"/>
        <pt x="114" y="20" on="1"/>
        <pt x="91" y="31" on="1"/>
        <pt x="79" y="49" on="1"/>
        <pt x="97" y="148" on="0"/>
        <pt x="100" y="214" on="1"/>
        <pt x="226" y="223" on="1"/>
        <pt x="226" y="121" on="0"/>
        <pt x="314" y="121" on="1"/>
        <pt x="345" y="121" on="0"/>
        <pt x="380" y="143" on="0"/>
        <pt x="380" y="175" on="0"/>
        <pt x="366" y="196" on="0"/>
        <pt x="333" y="216" on="0"/>
        <pt x="306" y="229" on="0"/>
        <pt x="250" y="253" on="0"/>
        <pt x="237" y="259" on="1"/>
        <pt x="167" y="290" on="0"/>
        <pt x="84" y="375" on="0"/>
        <pt x="84" y="445" on="1"/>
        <pt x="84" y="542" on="0"/>
        <pt x="253" y="659" on="0"/>
        <pt x="392" y="659" on="1"/>
        <pt x="441" y="659" on="0"/>
        <pt x="536" y="645" on="0"/>
        <pt x="583" y="631" on="1"/>
        <pt x="595" y="609" on="1"/>
        <pt x="576" y="525" on="0"/>
        <pt x="568" y="435" on="1"/>
        <pt x="452" y="427" on="1"/>
        <pt x="440" y="435" on="1"/>
        <pt x="440" y="451" on="1"/>
        <pt x="440" y="521" on="0"/>
        <pt x="367" y="521" on="1"/>
        <pt x="339" y="521" on="0"/>
        <pt x="304" y="496" on="0"/>
        <pt x="304" y="476" on="1"/>
        <pt x="304" y="462" on="0"/>
        <pt x="317" y="446" on="0"/>
        <pt x="326" y="436" on="0"/>
        <pt x="344" y="426" on="0"/>
        <pt x="356" y="419" on="0"/>
        <pt x="380" y="408" on="0"/>
        <pt x="394" y="402" on="0"/>
        <pt x="423" y="390" on="0"/>
        <pt x="467" y="371" on="0"/>
        <pt x="517" y="344" on="0"/>
        <pt x="545" y="322" on="1"/>
        <pt x="601" y="276" on="0"/>
        <pt x="601" y="197" on="1"/>
        <pt x="601" y="100" on="0"/>
        <pt x="434" y="-12" on="0"/>
      </contour>
      <contour>
        <pt x="441" y="888" on="1"/>
        <pt x="477" y="826" on="1"/>
        <pt x="394" y="766" on="0"/>
        <pt x="300" y="688" on="1"/>
        <pt x="273" y="688" on="1"/>
        <pt x="180" y="765" on="0"/>
        <pt x="97" y="826" on="1"/>
        <pt x="132" y="888" on="1"/>
        <pt x="155" y="895" on="1"/>
        <pt x="202" y="875" on="0"/>
        <pt x="287" y="844" on="1"/>
        <pt x="339" y="863" on="0"/>
        <pt x="418" y="895" on="1"/>
      </contour>
    </TTGlyph>
    <TTGlyph name="Scedilla" xMin="79" yMin="-242" xMax="601" yMax="659">
      <contour>
        <pt x="314" y="121" on="1"/>
        <pt x="345" y="121" on="0"/>
        <pt x="380" y="143" on="0"/>
        <pt x="380" y="175" on="0"/>
        <pt x="366" y="196" on="0"/>
        <pt x="333" y="216" on="0"/>
        <pt x="306" y="229" on="0"/>
        <pt x="250" y="253" on="0"/>
        <pt x="237" y="259" on="1"/>
        <pt x="167" y="290" on="0"/>
        <pt x="84" y="375" on="0"/>
        <pt x="84" y="445" on="1"/>
        <pt x="84" y="542" on="0"/>
        <pt x="253" y="659" on="0"/>
        <pt x="392" y="659" on="1"/>
        <pt x="441" y="659" on="0"/>
        <pt x="536" y="645" on="0"/>
        <pt x="583" y="631" on="1"/>
        <pt x="595" y="609" on="1"/>
        <pt x="576" y="525" on="0"/>
        <pt x="568" y="435" on="1"/>
        <pt x="452" y="427" on="1"/>
        <pt x="440" y="435" on="1"/>
        <pt x="440" y="451" on="1"/>
        <pt x="440" y="521" on="0"/>
        <pt x="367" y="521" on="1"/>
        <pt x="339" y="521" on="0"/>
        <pt x="304" y="496" on="0"/>
        <pt x="304" y="476" on="1"/>
        <pt x="304" y="462" on="0"/>
        <pt x="317" y="446" on="0"/>
        <pt x="326" y="436" on="0"/>
        <pt x="344" y="426" on="0"/>
        <pt x="356" y="419" on="0"/>
        <pt x="380" y="408" on="0"/>
        <pt x="394" y="402" on="0"/>
        <pt x="423" y="390" on="0"/>
        <pt x="467" y="371" on="0"/>
        <pt x="517" y="344" on="0"/>
        <pt x="545" y="322" on="1"/>
        <pt x="601" y="276" on="0"/>
        <pt x="601" y="197" on="1"/>
        <pt x="601" y="100" on="0"/>
        <pt x="434" y="-12" on="0"/>
        <pt x="288" y="-12" on="1"/>
        <pt x="281" y="-12" on="1"/>
        <pt x="276" y="-38" on="1"/>
        <pt x="318" y="-58" on="0"/>
        <pt x="384" y="-113" on="0"/>
        <pt x="384" y="-184" on="0"/>
        <pt x="298" y="-242" on="0"/>
        <pt x="236" y="-242" on="1"/>
        <pt x="204" y="-242" on="0"/>
        <pt x="148" y="-213" on="0"/>
        <pt x="148" y="-169" on="0"/>
        <pt x="197" y="-120" on="1"/>
        <pt x="206" y="-120" on="1"/>
        <pt x="207" y="-147" on="0"/>
        <pt x="233" y="-176" on="0"/>
        <pt x="287" y="-176" on="0"/>
        <pt x="287" y="-129" on="0"/>
        <pt x="200" y="-87" on="1"/>
        <pt x="220" y="-7" on="1"/>
        <pt x="149" y="3" on="0"/>
        <pt x="91" y="31" on="1"/>
        <pt x="79" y="49" on="1"/>
        <pt x="97" y="148" on="0"/>
        <pt x="100" y="214" on="1"/>
        <pt x="226" y="223" on="1"/>
        <pt x="226" y="121" on="0"/>
      </contour>
    </TTGlyph>
    <TTGlyph name="Scircumflex" xMin="13" yMin="-12" xMax="535" yMax="934">
      <contour>
        <pt x="222" y="-12" on="1"/>
        <pt x="170" y="-12" on="0"/>
        <pt x="72" y="9" on="0"/>
        <pt x="48" y="20" on="1"/>
        <pt x="25" y="31" on="1"/>
        <pt x="13" y="49" on="1"/>
        <pt x="31" y="148" on="0"/>
        <pt x="34" y="214" on="1"/>
        <pt x="160" y="223" on="1"/>
        <pt x="160" y="121" on="0"/>
        <pt x="248" y="121" on="1"/>
        <pt x="279" y="121" on="0"/>
        <pt x="314" y="143" on="0"/>
        <pt x="314" y="175" on="0"/>
        <pt x="300" y="196" on="0"/>
        <pt x="267" y="216" on="0"/>
        <pt x="240" y="229" on="0"/>
        <pt x="184" y="253" on="0"/>
        <pt x="171" y="259" on="1"/>
        <pt x="101" y="290" on="0"/>
        <pt x="18" y="375" on="0"/>
        <pt x="18" y="445" on="1"/>
        <pt x="18" y="542" on="0"/>
        <pt x="187" y="659" on="0"/>
        <pt x="326" y="659" on="1"/>
        <pt x="375" y="659" on="0"/>
        <pt x="470" y="645" on="0"/>
        <pt x="517" y="631" on="1"/>
        <pt x="529" y="609" on="1"/>
        <pt x="510" y="525" on="0"/>
        <pt x="502" y="435" on="1"/>
        <pt x="386" y="427" on="1"/>
        <pt x="374" y="435" on="1"/>
        <pt x="374" y="451" on="1"/>
        <pt x="374" y="521" on="0"/>
        <pt x="301" y="521" on="1"/>
        <pt x="273" y="521" on="0"/>
        <pt x="238" y="496" on="0"/>
        <pt x="238" y="476" on="1"/>
        <pt x="238" y="462" on="0"/>
        <pt x="251" y="446" on="0"/>
        <pt x="260" y="436" on="0"/>
        <pt x="278" y="426" on="0"/>
        <pt x="290" y="419" on="0"/>
        <pt x="314" y="408" on="0"/>
        <pt x="328" y="402" on="0"/>
        <pt x="357" y="390" on="0"/>
        <pt x="401" y="371" on="0"/>
        <pt x="451" y="344" on="0"/>
        <pt x="479" y="322" on="1"/>
        <pt x="535" y="276" on="0"/>
        <pt x="535" y="197" on="1"/>
        <pt x="535" y="100" on="0"/>
        <pt x="368" y="-12" on="0"/>
      </contour>
      <contour>
        <pt x="158" y="716" on="1"/>
        <pt x="112" y="778" on="1"/>
        <pt x="192" y="849" on="0"/>
        <pt x="279" y="934" on="1"/>
        <pt x="306" y="934" on="1"/>
        <pt x="394" y="847" on="0"/>
        <pt x="472" y="778" on="1"/>
        <pt x="427" y="716" on="1"/>
        <pt x="404" y="709" on="1"/>
        <pt x="366" y="735" on="0"/>
        <pt x="292" y="778" on="1"/>
        <pt x="224" y="739" on="0"/>
        <pt x="181" y="709" on="1"/>
      </contour>
    </TTGlyph>
    <TTGlyph name="Scommaaccent" xMin="79" yMin="-345" xMax="601" yMax="659">
      <contour>
        <pt x="288" y="-12" on="1"/>
        <pt x="236" y="-12" on="0"/>
        <pt x="138" y="9" on="0"/>
        <pt x="114" y="20" on="1"/>
        <pt x="91" y="31" on="1"/>
        <pt x="79" y="49" on="1"/>
        <pt x="97" y="148" on="0"/>
        <pt x="100" y="214" on="1"/>
        <pt x="226" y="223" on="1"/>
        <pt x="226" y="121" on="0"/>
        <pt x="314" y="121" on="1"/>
        <pt x="345" y="121" on="0"/>
        <pt x="380" y="143" on="0"/>
        <pt x="380" y="175" on="0"/>
        <pt x="366" y="196" on="0"/>
        <pt x="333" y="216" on="0"/>
        <pt x="306" y="229" on="0"/>
        <pt x="250" y="253" on="0"/>
        <pt x="237" y="259" on="1"/>
        <pt x="167" y="290" on="0"/>
        <pt x="84" y="375" on="0"/>
        <pt x="84" y="445" on="1"/>
        <pt x="84" y="542" on="0"/>
        <pt x="253" y="659" on="0"/>
        <pt x="392" y="659" on="1"/>
        <pt x="441" y="659" on="0"/>
        <pt x="536" y="645" on="0"/>
        <pt x="583" y="631" on="1"/>
        <pt x="595" y="609" on="1"/>
        <pt x="576" y="525" on="0"/>
        <pt x="568" y="435" on="1"/>
        <pt x="452" y="427" on="1"/>
        <pt x="440" y="435" on="1"/>
        <pt x="440" y="451" on="1"/>
        <pt x="440" y="521" on="0"/>
        <pt x="367" y="521" on="1"/>
        <pt x="339" y="521" on="0"/>
        <pt x="304" y="496" on="0"/>
        <pt x="304" y="476" on="1"/>
        <pt x="304" y="462" on="0"/>
        <pt x="317" y="446" on="0"/>
        <pt x="326" y="436" on="0"/>
        <pt x="344" y="426" on="0"/>
        <pt x="356" y="419" on="0"/>
        <pt x="380" y="408" on="0"/>
        <pt x="394" y="402" on="0"/>
        <pt x="423" y="390" on="0"/>
        <pt x="467" y="371" on="0"/>
        <pt x="517" y="344" on="0"/>
        <pt x="545" y="322" on="1"/>
        <pt x="601" y="276" on="0"/>
        <pt x="601" y="197" on="1"/>
        <pt x="601" y="100" on="0"/>
        <pt x="434" y="-12" on="0"/>
      </contour>
      <contour>
        <pt x="156" y="-78" on="1"/>
        <pt x="213" y="-34" on="0"/>
        <pt x="296" y="-34" on="0"/>
        <pt x="343" y="-89" on="0"/>
        <pt x="343" y="-188" on="0"/>
        <pt x="253" y="-301" on="0"/>
        <pt x="176" y="-345" on="1"/>
        <pt x="118" y="-299" on="1"/>
        <pt x="118" y="-274" on="1"/>
        <pt x="147" y="-253" on="0"/>
        <pt x="182" y="-195" on="0"/>
        <pt x="182" y="-124" on="0"/>
        <pt x="153" y="-92" on="1"/>
      </contour>
    </TTGlyph>
    <TTGlyph name="T" xMin="0" yMin="-9" xMax="593" yMax="658">
      <contour>
        <pt x="197" y="168" on="1"/>
        <pt x="197" y="526" on="1"/>
        <pt x="157" y="526" on="0"/>
        <pt x="131" y="475" on="0"/>
        <pt x="124" y="390" on="1"/>
        <pt x="0" y="382" on="1"/>
        <pt x="7" y="530" on="0"/>
        <pt x="8" y="644" on="1"/>
        <pt x="21" y="658" on="1"/>
        <pt x="140" y="647" on="1"/>
        <pt x="454" y="647" on="1"/>
        <pt x="575" y="658" on="1"/>
        <pt x="588" y="644" on="1"/>
        <pt x="593" y="390" on="1"/>
        <pt x="469" y="382" on="1"/>
        <pt x="461" y="478" on="0"/>
        <pt x="439" y="526" on="0"/>
        <pt x="400" y="526" on="1"/>
        <pt x="395" y="361" on="0"/>
        <pt x="395" y="160" on="1"/>
        <pt x="395" y="122" on="0"/>
        <pt x="418" y="91" on="0"/>
        <pt x="447" y="91" on="1"/>
        <pt x="498" y="94" on="1"/>
        <pt x="503" y="88" on="1"/>
        <pt x="494" y="-6" on="1"/>
        <pt x="348" y="0" on="0"/>
        <pt x="291" y="0" on="1"/>
        <pt x="90" y="-9" on="1"/>
        <pt x="98" y="83" on="1"/>
        <pt x="159" y="88" on="0"/>
        <pt x="197" y="121" on="0"/>
      </contour>
    </TTGlyph>
    <TTGlyph name="Tbar" xMin="0" yMin="-9" xMax="593" yMax="658">
      <contour>
        <pt x="197" y="168" on="1"/>
        <pt x="197" y="252" on="1"/>
        <pt x="120" y="251" on="1"/>
        <pt x="109" y="261" on="1"/>
        <pt x="117" y="319" on="1"/>
        <pt x="155" y="318" on="0"/>
        <pt x="197" y="318" on="1"/>
        <pt x="197" y="526" on="1"/>
        <pt x="157" y="526" on="0"/>
        <pt x="131" y="475" on="0"/>
        <pt x="124" y="390" on="1"/>
        <pt x="0" y="382" on="1"/>
        <pt x="7" y="530" on="0"/>
        <pt x="8" y="644" on="1"/>
        <pt x="21" y="658" on="1"/>
        <pt x="140" y="647" on="1"/>
        <pt x="454" y="647" on="1"/>
        <pt x="575" y="658" on="1"/>
        <pt x="588" y="644" on="1"/>
        <pt x="593" y="390" on="1"/>
        <pt x="469" y="382" on="1"/>
        <pt x="461" y="478" on="0"/>
        <pt x="439" y="526" on="0"/>
        <pt x="400" y="526" on="1"/>
        <pt x="396" y="416" on="0"/>
        <pt x="395" y="319" on="1"/>
        <pt x="467" y="322" on="1"/>
        <pt x="482" y="307" on="1"/>
        <pt x="477" y="252" on="1"/>
        <pt x="395" y="252" on="1"/>
        <pt x="395" y="160" on="1"/>
        <pt x="395" y="122" on="0"/>
        <pt x="418" y="91" on="0"/>
        <pt x="447" y="91" on="1"/>
        <pt x="498" y="94" on="1"/>
        <pt x="503" y="88" on="1"/>
        <pt x="494" y="-6" on="1"/>
        <pt x="348" y="0" on="0"/>
        <pt x="291" y="0" on="1"/>
        <pt x="90" y="-9" on="1"/>
        <pt x="98" y="83" on="1"/>
        <pt x="159" y="88" on="0"/>
        <pt x="197" y="121" on="0"/>
      </contour>
    </TTGlyph>
    <TTGlyph name="Tcaron" xMin="0" yMin="-9" xMax="593" yMax="895">
      <contour>
        <pt x="197" y="168" on="1"/>
        <pt x="197" y="526" on="1"/>
        <pt x="157" y="526" on="0"/>
        <pt x="131" y="475" on="0"/>
        <pt x="124" y="390" on="1"/>
        <pt x="0" y="382" on="1"/>
        <pt x="7" y="530" on="0"/>
        <pt x="8" y="644" on="1"/>
        <pt x="21" y="658" on="1"/>
        <pt x="140" y="647" on="1"/>
        <pt x="454" y="647" on="1"/>
        <pt x="575" y="658" on="1"/>
        <pt x="588" y="644" on="1"/>
        <pt x="593" y="390" on="1"/>
        <pt x="469" y="382" on="1"/>
        <pt x="461" y="478" on="0"/>
        <pt x="439" y="526" on="0"/>
        <pt x="400" y="526" on="1"/>
        <pt x="395" y="361" on="0"/>
        <pt x="395" y="160" on="1"/>
        <pt x="395" y="122" on="0"/>
        <pt x="418" y="91" on="0"/>
        <pt x="447" y="91" on="1"/>
        <pt x="498" y="94" on="1"/>
        <pt x="503" y="88" on="1"/>
        <pt x="494" y="-6" on="1"/>
        <pt x="348" y="0" on="0"/>
        <pt x="291" y="0" on="1"/>
        <pt x="90" y="-9" on="1"/>
        <pt x="98" y="83" on="1"/>
        <pt x="159" y="88" on="0"/>
        <pt x="197" y="121" on="0"/>
      </contour>
      <contour>
        <pt x="454" y="888" on="1"/>
        <pt x="490" y="826" on="1"/>
        <pt x="407" y="766" on="0"/>
        <pt x="313" y="688" on="1"/>
        <pt x="286" y="688" on="1"/>
        <pt x="193" y="765" on="0"/>
        <pt x="110" y="826" on="1"/>
        <pt x="145" y="888" on="1"/>
        <pt x="168" y="895" on="1"/>
        <pt x="215" y="875" on="0"/>
        <pt x="300" y="844" on="1"/>
        <pt x="352" y="863" on="0"/>
        <pt x="431" y="895" on="1"/>
      </contour>
    </TTGlyph>
    <TTGlyph name="Tcedilla" xMin="0" yMin="-242" xMax="593" yMax="658">
      <contour>
        <pt x="197" y="168" on="1"/>
        <pt x="197" y="526" on="1"/>
        <pt x="157" y="526" on="0"/>
        <pt x="131" y="475" on="0"/>
        <pt x="124" y="390" on="1"/>
        <pt x="0" y="382" on="1"/>
        <pt x="7" y="530" on="0"/>
        <pt x="8" y="644" on="1"/>
        <pt x="21" y="658" on="1"/>
        <pt x="140" y="647" on="1"/>
        <pt x="454" y="647" on="1"/>
        <pt x="575" y="658" on="1"/>
        <pt x="588" y="644" on="1"/>
        <pt x="593" y="390" on="1"/>
        <pt x="469" y="382" on="1"/>
        <pt x="461" y="478" on="0"/>
        <pt x="439" y="526" on="0"/>
        <pt x="400" y="526" on="1"/>
        <pt x="395" y="361" on="0"/>
        <pt x="395" y="160" on="1"/>
        <pt x="395" y="122" on="0"/>
        <pt x="418" y="91" on="0"/>
        <pt x="447" y="91" on="1"/>
        <pt x="498" y="94" on="1"/>
        <pt x="503" y="88" on="1"/>
        <pt x="494" y="-6" on="1"/>
        <pt x="390" y="-2" on="0"/>
        <pt x="323" y="0" on="1"/>
        <pt x="315" y="-38" on="1"/>
        <pt x="357" y="-58" on="0"/>
        <pt x="423" y="-113" on="0"/>
        <pt x="423" y="-184" on="0"/>
        <pt x="337" y="-242" on="0"/>
        <pt x="275" y="-242" on="1"/>
        <pt x="243" y="-242" on="0"/>
        <pt x="187" y="-213" on="0"/>
        <pt x="187" y="-169" on="0"/>
        <pt x="236" y="-120" on="1"/>
        <pt x="245" y="-120" on="1"/>
        <pt x="246" y="-147" on="0"/>
        <pt x="272" y="-176" on="0"/>
        <pt x="326" y="-176" on="0"/>
        <pt x="326" y="-129" on="0"/>
        <pt x="239" y="-87" on="1"/>
        <pt x="261" y="0" on="1"/>
        <pt x="90" y="-9" on="1"/>
        <pt x="98" y="83" on="1"/>
        <pt x="159" y="88" on="0"/>
        <pt x="197" y="121" on="0"/>
      </contour>
    </TTGlyph>
    <TTGlyph name="Thorn" xMin="15" yMin="-5" xMax="605" yMax="652">
      <contour>
        <pt x="315" y="554" on="0"/>
        <pt x="297" y="543" on="0"/>
        <pt x="295" y="526" on="0"/>
        <pt x="294" y="522" on="1"/>
        <pt x="363" y="522" on="1"/>
        <pt x="487" y="522" on="0"/>
        <pt x="605" y="429" on="0"/>
        <pt x="605" y="245" on="0"/>
        <pt x="467" y="139" on="0"/>
        <pt x="356" y="139" on="1"/>
        <pt x="285" y="139" on="1"/>
        <pt x="285" y="116" on="1"/>
        <pt x="285" y="98" on="0"/>
        <pt x="297" y="87" on="0"/>
        <pt x="317" y="87" on="1"/>
        <pt x="359" y="90" on="1"/>
        <pt x="367" y="80" on="1"/>
        <pt x="358" y="-4" on="1"/>
        <pt x="226" y="0" on="0"/>
        <pt x="181" y="0" on="1"/>
        <pt x="15" y="-5" on="1"/>
        <pt x="23" y="80" on="1"/>
        <pt x="63" y="88" on="0"/>
        <pt x="88" y="120" on="0"/>
        <pt x="88" y="162" on="1"/>
        <pt x="88" y="508" on="1"/>
        <pt x="88" y="539" on="0"/>
        <pt x="74" y="559" on="0"/>
        <pt x="53" y="559" on="1"/>
        <pt x="27" y="558" on="1"/>
        <pt x="18" y="572" on="1"/>
        <pt x="26" y="647" on="1"/>
        <pt x="187" y="647" on="1"/>
        <pt x="359" y="652" on="1"/>
        <pt x="352" y="562" on="1"/>
      </contour>
      <contour>
        <pt x="288" y="385" on="1"/>
        <pt x="286" y="256" on="1"/>
        <pt x="331" y="246" on="0"/>
        <pt x="350" y="246" on="1"/>
        <pt x="399" y="259" on="0"/>
        <pt x="399" y="331" on="1"/>
        <pt x="399" y="371" on="0"/>
        <pt x="355" y="407" on="0"/>
        <pt x="308" y="407" on="1"/>
        <pt x="288" y="407" on="0"/>
      </contour>
    </TTGlyph>
    <TTGlyph name="U" xMin="0" yMin="-12" xMax="628" yMax="651">
      <contour>
        <pt x="257" y="171" on="0"/>
        <pt x="297" y="115" on="0"/>
        <pt x="372" y="115" on="0"/>
        <pt x="406" y="157" on="0"/>
        <pt x="406" y="203" on="1"/>
        <pt x="405" y="505" on="1"/>
        <pt x="405" y="536" on="0"/>
        <pt x="394" y="559" on="0"/>
        <pt x="379" y="559" on="1"/>
        <pt x="356" y="557" on="1"/>
        <pt x="353" y="561" on="1"/>
        <pt x="364" y="650" on="1"/>
        <pt x="447" y="647" on="0"/>
        <pt x="484" y="647" on="1"/>
        <pt x="628" y="650" on="1"/>
        <pt x="620" y="560" on="1"/>
        <pt x="589" y="550" on="0"/>
        <pt x="572" y="534" on="0"/>
        <pt x="572" y="516" on="1"/>
        <pt x="572" y="234" on="1"/>
        <pt x="572" y="112" on="0"/>
        <pt x="437" y="-12" on="0"/>
        <pt x="177" y="-12" on="0"/>
        <pt x="59" y="89" on="0"/>
        <pt x="59" y="199" on="1"/>
        <pt x="59" y="505" on="1"/>
        <pt x="59" y="538" on="0"/>
        <pt x="48" y="559" on="0"/>
        <pt x="31" y="559" on="1"/>
        <pt x="2" y="557" on="1"/>
        <pt x="0" y="561" on="1"/>
        <pt x="10" y="650" on="1"/>
        <pt x="108" y="647" on="0"/>
        <pt x="187" y="647" on="1"/>
        <pt x="321" y="651" on="1"/>
        <pt x="311" y="558" on="1"/>
        <pt x="285" y="556" on="0"/>
        <pt x="264" y="533" on="0"/>
        <pt x="263" y="509" on="1"/>
        <pt x="257" y="220" on="1"/>
      </contour>
    </TTGlyph>
</ttFont>
